SplineFontDB: 3.0
FontName: Poly-Regular
FullName: Poly
FamilyName: Poly
Weight: Regular
Copyright: Copyright (c) 2010 by Nicols Silva <info@nsilva.com>, with Reserved Font Names "Poly".
Version: 001.001
ItalicAngle: 0
UnderlinePosition: -50
UnderlineWidth: 50
Ascent: 800
Descent: 200
sfntRevision: 0x00010042
LayerCount: 2
Layer: 0 1 "Back"  1
Layer: 1 1 "Fore"  0
NeedsXUIDChange: 1
XUID: [1021 288 713564382 12734113]
FSType: 0
OS2Version: 2
OS2_WeightWidthSlopeOnly: 0
OS2_UseTypoMetrics: 1
CreationTime: 1317406193
ModificationTime: 1317402887
PfmFamily: 17
TTFWeight: 400
TTFWidth: 5
LineGap: 0
VLineGap: 0
Panose: 2 4 5 3 5 4 0 0 0 4
OS2TypoAscent: 919
OS2TypoAOffset: 0
OS2TypoDescent: -223
OS2TypoDOffset: 0
OS2TypoLinegap: 0
OS2WinAscent: 919
OS2WinAOffset: 0
OS2WinDescent: 223
OS2WinDOffset: 0
HheadAscent: 919
HheadAOffset: 0
HheadDescent: -223
HheadDOffset: 0
OS2SubXSize: 700
OS2SubYSize: 650
OS2SubXOff: 0
OS2SubYOff: -163
OS2SupXSize: 700
OS2SupYSize: 650
OS2SupXOff: 0
OS2SupYOff: 435
OS2StrikeYSize: 50
OS2StrikeYPos: 250
OS2FamilyClass: 768
OS2Vendor: 'pyrs'
OS2CodePages: 20000003.00000000
OS2UnicodeRanges: 8000000f.0000006a.00000000.00000000
Lookup: 1 0 0 "'aalt' Access All Alternates in Latin lookup 0"  {"'aalt' Access All Alternates in Latin lookup 0 subtable"  } ['aalt' ('latn' <'dflt' > ) ]
Lookup: 3 0 0 "'aalt' Access All Alternates in Latin lookup 1"  {"'aalt' Access All Alternates in Latin lookup 1 subtable"  } ['aalt' ('latn' <'dflt' > ) ]
Lookup: 1 0 0 "'sinf' Scientific Inferiors in Latin lookup 2"  {"'sinf' Scientific Inferiors in Latin lookup 2 subtable"  } ['sinf' ('latn' <'dflt' > ) ]
Lookup: 1 0 0 "'sups' Superscript in Latin lookup 3"  {"'sups' Superscript in Latin lookup 3 subtable" ("superior" ) } ['sups' ('latn' <'dflt' > ) ]
Lookup: 1 0 0 "'c2sc' Capitals to Small Capitals in Latin lookup 4"  {"'c2sc' Capitals to Small Capitals in Latin lookup 4 subtable"  } ['c2sc' ('latn' <'dflt' > ) ]

StartChar: .notdef
Encoding: 65536 -1 0
Width: 520
Flags: HMW
HStem: 0 46<79 441 79 490> 633 46<79 441 79 79>
VStem: 30 49<46 46 46 633> 441 49<46 633 633 633>
LayerCount: 2
Fore
SplineSet
30 0 m 1,0,-1
 30 679 l 1,1,-1
 490 679 l 1,2,-1
 490 0 l 1,3,-1
 30 0 l 1,0,-1
79 46 m 1,4,-1
 441 46 l 1,5,-1
 441 633 l 1,6,-1
 79 633 l 1,7,-1
 79 46 l 1,4,-1
EndSplineSet
EndChar

StartChar: F
Encoding: 70 70 2
Width: 546
Flags: HMW
HStem: 0 21G<50 50 50 334> 311 53<217 371 371 375 217 378 217 371> 640 53
VStem: 120 97<101 311 364 592 592 611.5>
LayerCount: 2
Fore
SplineSet
50 0 m 1,0,-1
 44 39 l 1,1,2
 97 48 97 48 108.5 59 c 128,-1,3
 120 70 120 70 120 101 c 2,4,-1
 120 592 l 2,5,6
 120 623 120 623 108.5 634 c 128,-1,7
 97 645 97 645 44 654 c 1,8,-1
 50 693 l 1,9,-1
 516 693 l 1,10,11
 522 656 522 656 522 619.5 c 128,-1,12
 522 583 522 583 520 537 c 1,13,-1
 463 530 l 1,14,15
 449 599 449 599 443 616.5 c 128,-1,16
 437 634 437 634 429 635 c 0,17,18
 405 638 405 638 368 639 c 2,19,-1
 217 642 l 1,20,-1
 217 364 l 1,21,-1
 371 364 l 2,22,23
 396 364 396 364 415 435 c 1,24,-1
 446 432 l 1,25,26
 446 359.333333333 446 359.333333333 448.5 330.166666667 c 128,-1,27
 451 301 451 301 451.5 295 c 128,-1,28
 452 289 452 289 455.5 266 c 128,-1,29
 459 243 459 243 460 234 c 1,30,-1
 424 228 l 1,31,32
 400 311 400 311 378 311 c 2,33,-1
 217 311 l 1,34,-1
 217 77 l 2,35,36
 217 53 217 53 237 51 c 2,37,-1
 338 39 l 1,38,-1
 334 0 l 1,39,-1
 50 0 l 1,0,-1
EndSplineSet
Substitution2: "'c2sc' Capitals to Small Capitals in Latin lookup 4 subtable" F.sc
Position2: "'cpsp' Capital Spacing in Latin lookup 0 subtable" dx=25 dy=0 dh=25 dv=0
EndChar

StartChar: E
Encoding: 69 69 3
Width: 592
Flags: HMW
HStem: 0 52<306 306 306 537> 320 53<217 367 367 371 217 374 217 367> 640 53
VStem: 120 97<101 320 373 592 592 611.5>
LayerCount: 2
Fore
SplineSet
50 0 m 1,0,-1
 44 39 l 1,1,2
 97 48 97 48 108.5 59 c 128,-1,3
 120 70 120 70 120 101 c 2,4,-1
 120 592 l 2,5,6
 120 623 120 623 108.5 634 c 128,-1,7
 97 645 97 645 44 654 c 1,8,-1
 50 693 l 1,9,-1
 516 693 l 1,10,11
 522 656 522 656 522 619.5 c 128,-1,12
 522 583 522 583 520 537 c 1,13,-1
 463 530 l 1,14,15
 449 599 449 599 443 616.5 c 128,-1,16
 437 634 437 634 429 635 c 0,17,18
 405 638 405 638 368 639 c 2,19,-1
 217 642 l 1,20,-1
 217 373 l 1,21,-1
 367 373 l 2,22,23
 380 373 380 373 399 444 c 1,24,-1
 430 441 l 1,25,26
 430 368.333333333 430 368.333333333 432.5 339.166666667 c 128,-1,27
 435 310 435 310 435.5 304 c 128,-1,28
 436 298 436 298 439.5 275 c 128,-1,29
 443 252 443 252 444 243 c 1,30,-1
 408 237 l 1,31,32
 392 294 392 294 386.5 307 c 128,-1,33
 381 320 381 320 374 320 c 2,34,-1
 217 320 l 1,35,-1
 217 51 l 1,36,-1
 306 52 l 1,37,38
 419 52 419 52 444 64.5 c 0,39,40
 447 66 447 66 448 66 c 0,41,42
 465 71 465 71 492 184 c 1,43,-1
 547 179 l 1,44,45
 548 162 548 162 548 118.5 c 128,-1,46
 548 75 548 75 537 0 c 1,47,-1
 50 0 l 1,0,-1
EndSplineSet
Substitution2: "'c2sc' Capitals to Small Capitals in Latin lookup 4 subtable" E.sc
Position2: "'cpsp' Capital Spacing in Latin lookup 0 subtable" dx=25 dy=0 dh=25 dv=0
EndChar

StartChar: L
Encoding: 76 76 4
Width: 558
Flags: HMW
HStem: 0 52<306 306 306 537> 673 20G<50 295 295 295>
VStem: 120 97<101 592 592 611.5>
LayerCount: 2
Fore
SplineSet
50 0 m 1,0,-1
 44 39 l 1,1,2
 97 48 97 48 108.5 59 c 128,-1,3
 120 70 120 70 120 101 c 2,4,-1
 120 592 l 2,5,6
 120 623 120 623 108.5 634 c 128,-1,7
 97 645 97 645 44 654 c 1,8,-1
 50 693 l 1,9,-1
 295 693 l 1,10,-1
 299 654 l 1,11,-1
 237 642 l 2,12,13
 217 638 217 638 217 616 c 2,14,-1
 217 51 l 1,15,-1
 306 52 l 2,16,17
 417 54 417 54 436 59 c 0,18,19
 452 64 452 64 492 213 c 1,20,-1
 547 208 l 1,21,22
 548 191 548 191 548 138.5 c 0,23,24
 548 86 548 86 537 0 c 1,25,-1
 50 0 l 1,0,-1
EndSplineSet
Substitution2: "'c2sc' Capitals to Small Capitals in Latin lookup 4 subtable" L.sc
Position2: "'cpsp' Capital Spacing in Latin lookup 0 subtable" dx=25 dy=0 dh=25 dv=0
EndChar

StartChar: H
Encoding: 72 72 5
Width: 767
Flags: HMW
HStem: 0 21G<50 50 50 295 480 480 480 725> 327 60<217 550 217 550> 673 20G<50 295 295 295 480 725 725 725>
VStem: 120 97<101 327 387 592 592 611.5> 550 97<101 327 327 327 387 592 592 611.5>
LayerCount: 2
Fore
SplineSet
50 0 m 1,0,-1
 44 39 l 1,1,2
 97 48 97 48 108.5 59 c 128,-1,3
 120 70 120 70 120 101 c 2,4,-1
 120 592 l 2,5,6
 120 623 120 623 108.5 634 c 128,-1,7
 97 645 97 645 44 654 c 1,8,-1
 50 693 l 1,9,-1
 295 693 l 1,10,-1
 299 654 l 1,11,-1
 237 642 l 2,12,13
 217 638 217 638 217 616 c 2,14,-1
 217 387 l 1,15,-1
 550 387 l 1,16,-1
 550 592 l 2,17,18
 550 623 550 623 538.5 634 c 128,-1,19
 527 645 527 645 474 654 c 1,20,-1
 480 693 l 1,21,-1
 725 693 l 1,22,-1
 729 654 l 1,23,-1
 667 642 l 2,24,25
 647 638 647 638 647 616 c 2,26,-1
 647 77 l 2,27,28
 647 55 647 55 667 51 c 2,29,-1
 729 39 l 1,30,-1
 725 0 l 1,31,-1
 480 0 l 1,32,-1
 474 39 l 1,33,34
 527 48 527 48 538.5 59 c 128,-1,35
 550 70 550 70 550 101 c 2,36,-1
 550 327 l 1,37,-1
 217 327 l 1,38,-1
 217 77 l 2,39,40
 217 55 217 55 237 51 c 2,41,-1
 299 39 l 1,42,-1
 295 0 l 1,43,-1
 50 0 l 1,0,-1
EndSplineSet
Substitution2: "'c2sc' Capitals to Small Capitals in Latin lookup 4 subtable" H.sc
Position2: "'cpsp' Capital Spacing in Latin lookup 0 subtable" dx=25 dy=0 dh=25 dv=0
EndChar

StartChar: _em
Encoding: 65537 -1 6
Width: 1000
Flags: HMW
HStem: -222 21G<0 0 0 1000> 758 20G<0 1000 1000 1000>
LayerCount: 2
Fore
SplineSet
0 -222 m 1,0,-1
 0 778 l 1,1,-1
 1000 778 l 1,2,-1
 1000 -222 l 1,3,-1
 0 -222 l 1,0,-1
EndSplineSet
EndChar

StartChar: T
Encoding: 84 84 7
Width: 577
Flags: HMW
HStem: 0 21G<155 430 155 155> 515 178 641 52<240 240 337 337>
VStem: 240 97<101 641>
LayerCount: 2
Fore
SplineSet
149 39 m 1,0,1
 212 49 212 49 226 59.5 c 128,-1,2
 240 70 240 70 240 101 c 2,3,-1
 240 641 l 1,4,5
 111 639 111 639 102 635 c 128,-1,6
 93 631 93 631 88.5 625.5 c 0,7,8
 75.7804878049 609.953929539 75.7804878049 609.953929539 59 513 c 1,9,-1
 8 517 l 1,10,11
 7 532 7 532 7 575.5 c 128,-1,12
 7 619 7 619 16 693 c 1,13,-1
 561 693 l 1,14,15
 570 619 570 619 570 575.5 c 128,-1,16
 570 532 570 532 569 517 c 1,17,-1
 518 513 l 1,18,19
 501.219512195 609.953929539 501.219512195 609.953929539 488.5 625.5 c 0,20,21
 484 631 484 631 475 635 c 128,-1,22
 466 639 466 639 337 641 c 1,23,-1
 337 77 l 2,24,25
 337 54 337 54 357 51 c 2,26,-1
 434 39 l 1,27,-1
 430 0 l 1,28,-1
 155 0 l 1,29,-1
 149 39 l 1,0,1
EndSplineSet
Substitution2: "'c2sc' Capitals to Small Capitals in Latin lookup 4 subtable" T.sc
Position2: "'cpsp' Capital Spacing in Latin lookup 0 subtable" dx=25 dy=0 dh=25 dv=0
EndChar

StartChar: N
Encoding: 78 78 8
Width: 775
Flags: HMW
HStem: 0 21G<50 50 50 297 595 595 598 598 598 657> 673 20G<50 186 127 241 186 186 241 241 500 735 735 735>
VStem: 120 67<101 592> 590 67<189 572 572 601>
LayerCount: 2
Fore
SplineSet
598 0 m 1,0,-1
 582 189 l 1,1,-1
 590 189 l 1,2,-1
 590 572 l 2,3,4
 590 617 590 617 573.5 632 c 128,-1,5
 557 647 557 647 494 654 c 1,6,-1
 500 693 l 1,7,-1
 735 693 l 1,8,-1
 739 654 l 1,9,-1
 677 642 l 2,10,11
 657 638 657 638 657 616 c 2,12,-1
 657 0 l 1,13,-1
 598 0 l 1,0,-1
595 0 m 1,14,-1
 127 693 l 1,15,-1
 241 693 l 1,16,-1
 647 95 l 1,17,-1
 645 1 l 1,18,-1
 595 0 l 1,14,-1
50 0 m 1,19,-1
 44 39 l 1,20,21
 97 48 97 48 108.5 59 c 128,-1,22
 120 70 120 70 120 101 c 2,23,-1
 120 592 l 2,24,25
 120 623 120 623 108.5 634 c 128,-1,26
 97 645 97 645 44 654 c 1,27,-1
 50 693 l 1,28,-1
 186 693 l 1,29,-1
 196 592 l 1,30,-1
 187 592 l 1,31,-1
 187 100 l 2,32,33
 187 75 187 75 196.5 63 c 128,-1,34
 206 51 206 51 231 48 c 2,35,-1
 301 39 l 1,36,-1
 297 0 l 1,37,-1
 50 0 l 1,19,-1
EndSplineSet
Substitution2: "'c2sc' Capitals to Small Capitals in Latin lookup 4 subtable" N.sc
Position2: "'cpsp' Capital Spacing in Latin lookup 0 subtable" dx=25 dy=0 dh=25 dv=0
EndChar

StartChar: M
Encoding: 77 77 9
Width: 913
Flags: HMW
HStem: 0 21G<43 43 43 276 624 624 624 871> 673 20G<50 260 260 260 669 850 850 850>
VStem: 120 67<101 590> 696 97<93 550 550 559.5>
LayerCount: 2
Fore
SplineSet
43 0 m 1,0,-1
 37 39 l 1,1,2
 91 49 91 49 105.5 60 c 128,-1,3
 120 71 120 71 120 101 c 2,4,-1
 120 592 l 2,5,6
 120 623 120 623 108.5 634 c 128,-1,7
 97 645 97 645 44 654 c 1,8,-1
 50 693 l 1,9,-1
 260 693 l 1,10,-1
 452 167 l 2,11,12
 457 151 457 151 459 142 c 1,13,-1
 469 142 l 1,14,15
 470 153 470 153 474 162 c 2,16,-1
 669 693 l 1,17,-1
 850 693 l 1,18,-1
 854 654 l 1,19,-1
 812 642 l 2,20,21
 793 636 793 636 793 619 c 2,22,-1
 793 77 l 2,23,24
 793 55 793 55 813 51 c 2,25,-1
 875 39 l 1,26,-1
 871 0 l 1,27,-1
 624 0 l 1,28,-1
 618 39 l 1,29,30
 667 48 667 48 681.5 58.5 c 128,-1,31
 696 69 696 69 696 93 c 2,32,-1
 696 550 l 2,33,34
 696 573 696 573 699 588 c 1,35,-1
 691 588 l 1,36,-1
 480 20 l 1,37,-1
 408 20 l 1,38,-1
 195 590 l 1,39,-1
 187 590 l 1,40,-1
 187 100 l 2,41,42
 187 76 187 76 196.5 64 c 128,-1,43
 206 52 206 52 231 48 c 2,44,-1
 280 39 l 1,45,-1
 276 0 l 1,46,-1
 43 0 l 1,0,-1
EndSplineSet
Substitution2: "'c2sc' Capitals to Small Capitals in Latin lookup 4 subtable" M.sc
Position2: "'cpsp' Capital Spacing in Latin lookup 0 subtable" dx=25 dy=0 dh=25 dv=0
EndChar

StartChar: A
Encoding: 65 65 10
Width: 670
Flags: HMW
HStem: 0 21G<14 14 14 203 428 428 428 661> 224 53<204 427 204 444 185 427> 682 20G<294 377 377 377>
LayerCount: 2
Fore
SplineSet
14 0 m 1,0,-1
 7 40 l 1,1,2
 45 50 45 50 53.5 56 c 128,-1,3
 62 62 62 62 70 83 c 2,4,-1
 294 702 l 1,5,-1
 377 702 l 1,6,-1
 606 67 l 2,7,8
 611 52 611 52 665 42 c 1,9,-1
 661 0 l 1,10,-1
 428 0 l 1,11,-1
 422 40 l 1,12,13
 492 54 492 54 492 73 c 0,14,15
 492 81 492 81 488 94 c 2,16,-1
 444 224 l 1,17,-1
 185 224 l 1,18,-1
 134 82 l 2,19,20
 130 70 130 70 130 65.5 c 0,21,22
 130 61 130 61 136 60 c 2,23,-1
 207 41 l 1,24,-1
 203 0 l 1,25,-1
 14 0 l 1,0,-1
204 277 m 1,26,-1
 427 277 l 1,27,-1
 329 558 l 2,28,29
 322 579 322 579 322 587 c 1,30,-1
 312 587 l 1,31,-1
 204 277 l 1,26,-1
EndSplineSet
Substitution2: "'ordn' Ordinals in Latin lookup 6 subtable" ordfeminine
Substitution2: "'c2sc' Capitals to Small Capitals in Latin lookup 4 subtable" A.sc
Position2: "'cpsp' Capital Spacing in Latin lookup 0 subtable" dx=25 dy=0 dh=25 dv=0
EndChar

StartChar: V
Encoding: 86 86 11
Width: 655
Flags: HMW
HStem: -9 21G<293 293 293 362> 673 20G<10 248 248 248 454 651 651 651>
LayerCount: 2
Fore
SplineSet
293 -9 m 1,0,-1
 70 610 l 2,1,2
 62 631 62 631 51 637.5 c 128,-1,3
 40 644 40 644 3 653 c 1,4,-1
 10 693 l 1,5,-1
 248 693 l 1,6,-1
 252 652 l 1,7,-1
 181 633 l 2,8,9
 174 632 174 632 174 627.5 c 0,10,11
 174 623 174 623 178 611 c 2,12,-1
 332 158 l 2,13,14
 341 133 341 133 341 124 c 1,15,-1
 351 124 l 1,16,-1
 507 569 l 2,17,18
 521 608 521 608 521 620 c 0,19,20
 521 639 521 639 448 653 c 1,21,-1
 454 693 l 1,22,-1
 651 693 l 1,23,-1
 655 651 l 1,24,25
 614 643 614 643 603 633 c 128,-1,26
 592 623 592 623 582 595 c 2,27,-1
 362 -9 l 1,28,-1
 293 -9 l 1,0,-1
EndSplineSet
Substitution2: "'c2sc' Capitals to Small Capitals in Latin lookup 4 subtable" V.sc
Position2: "'cpsp' Capital Spacing in Latin lookup 0 subtable" dx=25 dy=0 dh=25 dv=0
EndChar

StartChar: I
Encoding: 73 73 12
Width: 337
Flags: HMW
HStem: 0 21G<50 50 50 295> 673 20G<50 295 295 295>
VStem: 120 97<101 592 592 611.5>
LayerCount: 2
Fore
SplineSet
50 0 m 1,0,-1
 44 39 l 1,1,2
 97 48 97 48 108.5 59 c 128,-1,3
 120 70 120 70 120 101 c 2,4,-1
 120 592 l 2,5,6
 120 623 120 623 108.5 634 c 128,-1,7
 97 645 97 645 44 654 c 1,8,-1
 50 693 l 1,9,-1
 295 693 l 1,10,-1
 299 654 l 1,11,-1
 237 642 l 2,12,13
 217 638 217 638 217 616 c 2,14,-1
 217 77 l 2,15,16
 217 55 217 55 237 51 c 2,17,-1
 299 39 l 1,18,-1
 295 0 l 1,19,-1
 50 0 l 1,0,-1
EndSplineSet
Substitution2: "'c2sc' Capitals to Small Capitals in Latin lookup 4 subtable" I.sc
Position2: "'cpsp' Capital Spacing in Latin lookup 0 subtable" dx=25 dy=0 dh=25 dv=0
EndChar

StartChar: n
Encoding: 110 110 14
Width: 596
Flags: HMW
HStem: 0 21G<47 47 47 261 355 355 355 569> 416 72<333.5 367.5> 466 20G<170 175>
VStem: 111 90<96 331> 414 90<96 312 312 337.5>
LayerCount: 2
Fore
SplineSet
47 0 m 1,0,-1
 41 39 l 1,1,2
 90 49 90 49 100.5 59.5 c 128,-1,3
 111 70 111 70 111 96 c 2,4,-1
 111 384 l 2,5,6
 111 410 111 410 98.5 420.5 c 128,-1,7
 86 431 86 431 35 441 c 1,8,-1
 41 473 l 1,9,-1
 170 486 l 2,10,11
 177 486 177 486 184.5 458 c 128,-1,12
 192 430 192 430 192 409 c 2,13,-1
 192 403 l 1,14,-1
 200 400 l 1,15,-1
 212 414 l 2,16,17
 275 488 275 488 366 488 c 0,18,19
 430 488 430 488 467 449.5 c 128,-1,20
 504 411 504 411 504 342 c 2,21,-1
 504 72 l 2,22,23
 504 60.3333333333 504 60.3333333333 509.5 56.6666666667 c 128,-1,24
 515 53 515 53 524 51 c 2,25,-1
 573 39 l 1,26,-1
 569 0 l 1,27,-1
 355 0 l 1,28,-1
 349 39 l 1,29,30
 394 48 394 48 404 59 c 128,-1,31
 414 70 414 70 414 96 c 2,32,-1
 414 312 l 2,33,34
 414 359 414 359 397 387.5 c 128,-1,35
 380 416 380 416 330.5 416 c 128,-1,36
 281 416 281 416 223 377 c 0,37,38
 214 371 214 371 210.5 367.5 c 0,39,40
 201 358 201 358 201 331 c 2,41,-1
 201 73 l 2,42,43
 201 62 201 62 204.5 58 c 128,-1,44
 208 54 208 54 221 51 c 2,45,-1
 265 39 l 1,46,-1
 261 0 l 1,47,-1
 47 0 l 1,0,-1
EndSplineSet
Substitution2: "'smcp' Lowercase to Small Capitals in Latin lookup 5 subtable" N.sc
EndChar

StartChar: h
Encoding: 104 104 15
Width: 596
Flags: HMW
HStem: 0 21G<40 40 40 254 355 355 355 569> 416 72<327.5 365.5> 752 20G<171 183>
VStem: 104 90<96 329 468.5 481 481 677 677 691.5> 414 90<96 312 312 338>
LayerCount: 2
Fore
SplineSet
40 0 m 1,0,-1
 34 39 l 1,1,2
 83 49 83 49 93.5 59.5 c 128,-1,3
 104 70 104 70 104 96 c 2,4,-1
 104 677 l 2,5,6
 104 698 104 698 88 707.5 c 128,-1,7
 72 717 72 717 28 726 c 1,8,-1
 34 758 l 1,9,10
 141 772 141 772 183 772 c 1,11,-1
 194 762 l 1,12,-1
 194 481 l 2,13,14
 194 426 194 426 187 403 c 1,15,-1
 195 400 l 1,16,-1
 207 414 l 1,17,18
 269 488 269 488 362 488 c 0,19,20
 429 488 429 488 466.5 449 c 128,-1,21
 504 410 504 410 504 342 c 2,22,-1
 504 72 l 2,23,24
 504 60.3333333333 504 60.3333333333 509.5 56.6666666667 c 128,-1,25
 515 53 515 53 524 51 c 2,26,-1
 573 39 l 1,27,-1
 569 0 l 1,28,-1
 355 0 l 1,29,-1
 349 39 l 1,30,31
 394 48 394 48 404 59 c 128,-1,32
 414 70 414 70 414 96 c 2,33,-1
 414 312 l 2,34,35
 414 360 414 360 396.5 388 c 128,-1,36
 379 416 379 416 326.5 416 c 128,-1,37
 274 416 274 416 217 377 c 0,38,39
 204 368 204 368 199 359.5 c 128,-1,40
 194 351 194 351 194 329 c 2,41,-1
 194 72 l 2,42,43
 194 60.3333333333 194 60.3333333333 199.5 56.6666666667 c 128,-1,44
 205 53 205 53 214 51 c 2,45,-1
 258 39 l 1,46,-1
 254 0 l 1,47,-1
 40 0 l 1,0,-1
EndSplineSet
Substitution2: "'smcp' Lowercase to Small Capitals in Latin lookup 5 subtable" H.sc
EndChar

StartChar: p
Encoding: 112 112 16
Width: 557
Flags: HMW
HStem: -210 21G<32 293 32 32> -9 57<278 321 278 369.5> 416 72<308 343> 466 20G<153.5 159.5>
VStem: 96 90<-114 -30 97 336> 424 97<196.5 296>
LayerCount: 2
Fore
SplineSet
96 -114 m 2,0,-1
 96 384 l 2,1,2
 96 410 96 410 83.5 420.5 c 128,-1,3
 71 431 71 431 20 441 c 1,4,-1
 26 473 l 1,5,6
 150 486 150 486 156 486 c 128,-1,7
 162 486 162 486 170.5 459.5 c 128,-1,8
 179 433 179 433 179 413 c 2,9,-1
 179 403 l 1,10,-1
 187 400 l 1,11,-1
 197 413 l 2,12,13
 255 488 255 488 336 488 c 128,-1,14
 417 488 417 488 469 423.5 c 128,-1,15
 521 359 521 359 521 247 c 128,-1,16
 521 135 521 135 462 63 c 128,-1,17
 403 -9 403 -9 297 -9 c 0,18,19
 222 -9 222 -9 189 17 c 1,20,-1
 182 14 l 1,21,22
 186 -8 186 -8 186 -30 c 2,23,-1
 186 -138 l 2,24,25
 186 -150.666666667 186 -150.666666667 191.5 -154.333333333 c 128,-1,26
 197 -158 197 -158 206 -159 c 2,27,-1
 297 -171 l 1,28,-1
 293 -210 l 1,29,-1
 32 -210 l 1,30,-1
 26 -171 l 1,31,32
 75 -161 75 -161 85.5 -150.5 c 128,-1,33
 96 -140 96 -140 96 -114 c 2,0,-1
186 97 m 1,34,35
 227 48 227 48 314 48 c 0,36,37
 357 48 357 48 382 76 c 0,38,39
 424 123 424 123 424 222.5 c 128,-1,40
 424 322 424 322 392.5 369 c 128,-1,41
 361 416 361 416 313 416 c 128,-1,42
 265 416 265 416 213 382 c 0,43,44
 186 364 186 364 186 336 c 2,45,-1
 186 97 l 1,34,35
EndSplineSet
Substitution2: "'smcp' Lowercase to Small Capitals in Latin lookup 5 subtable" P.sc
EndChar

StartChar: l
Encoding: 108 108 17
Width: 303
Flags: HMW
HStem: 0 21G<40 40 40 259> 752 20G<171 183>
VStem: 104 90<96 677 677 691.5>
LayerCount: 2
Fore
SplineSet
40 0 m 1,0,-1
 34 39 l 1,1,2
 83 49 83 49 93.5 59.5 c 128,-1,3
 104 70 104 70 104 96 c 2,4,-1
 104 677 l 2,5,6
 104 698 104 698 88 707.5 c 128,-1,7
 72 717 72 717 28 726 c 1,8,-1
 34 758 l 1,9,10
 141 772 141 772 183 772 c 1,11,-1
 194 762 l 1,12,-1
 194 72 l 2,13,14
 194 60.3333333333 194 60.3333333333 199.5 56.6666666667 c 128,-1,15
 205 53 205 53 214 51 c 2,16,-1
 263 39 l 1,17,-1
 259 0 l 1,18,-1
 40 0 l 1,0,-1
EndSplineSet
Substitution2: "'smcp' Lowercase to Small Capitals in Latin lookup 5 subtable" L.sc
EndChar

StartChar: b
Encoding: 98 98 18
Width: 544
Flags: HMW
HStem: -9 57<264 302.5 264 354> 416 72<295 329> 752 20G<150 162>
VStem: 83 90<84 84 84 336 468.5 481 481 677 677 691.5> 411 97<198.5 297.5>
LayerCount: 2
Fore
SplineSet
83 34 m 1,0,-1
 83 677 l 2,1,2
 83 698 83 698 67 707.5 c 128,-1,3
 51 717 51 717 7 726 c 1,4,-1
 13 758 l 1,5,6
 120 772 120 772 162 772 c 1,7,-1
 173 762 l 1,8,-1
 173 481 l 2,9,10
 173 426 173 426 166 403 c 1,11,-1
 174 400 l 1,12,-1
 184 413 l 2,13,14
 242 488 242 488 323 488 c 0,15,16
 404 488 404 488 456 423.5 c 128,-1,17
 508 359 508 359 508 246 c 0,18,19
 508 133 508 133 448.5 62 c 128,-1,20
 389 -9 389 -9 277 -9 c 0,21,22
 224 -9 224 -9 169 5 c 128,-1,23
 114 19 114 19 83 34 c 1,0,-1
173 84 m 1,24,25
 216 48 216 48 281.5 48 c 0,26,27
 347 48 347 48 370 75 c 0,28,29
 388 95 388 95 399.5 138.5 c 128,-1,30
 411 182 411 182 411 235 c 0,31,32
 411 324 411 324 379 370 c 128,-1,33
 347 416 347 416 300 416 c 128,-1,34
 253 416 253 416 200 381 c 0,35,36
 183 370 183 370 178 361 c 128,-1,37
 173 352 173 352 173 336 c 2,38,-1
 173 84 l 1,24,25
EndSplineSet
Substitution2: "'smcp' Lowercase to Small Capitals in Latin lookup 5 subtable" B.sc
EndChar

StartChar: m
Encoding: 109 109 19
Width: 859
Flags: HMW
HStem: 0 21G<47 47 47 261 335 335 335 544 618 618 618 832> 416 72<324 349 607.5 632> 466 20G<170 175>
VStem: 111 90<96 331> 394 90<96 323 323 331> 677 90<96 323 323 342>
CounterMasks: 1 1c
LayerCount: 2
Fore
SplineSet
47 0 m 1,0,-1
 41 39 l 1,1,2
 90 49 90 49 100.5 59.5 c 128,-1,3
 111 70 111 70 111 96 c 2,4,-1
 111 384 l 2,5,6
 111 410 111 410 98.5 420.5 c 128,-1,7
 86 431 86 431 35 441 c 1,8,-1
 41 473 l 1,9,-1
 170 486 l 2,10,11
 177 486 177 486 184.5 458.5 c 128,-1,12
 192 431 192 431 192 409 c 2,13,-1
 192 403 l 1,14,-1
 199 400 l 1,15,-1
 209 413 l 2,16,17
 234 445 234 445 272.5 466.5 c 128,-1,18
 311 488 311 488 354 488 c 0,19,20
 450 488 450 488 476 402 c 1,21,-1
 483 401 l 1,22,-1
 494 415 l 2,23,24
 551 488 551 488 637 488 c 0,25,26
 698 488 698 488 732.5 449 c 128,-1,27
 767 410 767 410 767 342 c 2,28,-1
 767 72 l 2,29,30
 767 60.3333333333 767 60.3333333333 772.5 56.6666666667 c 128,-1,31
 778 53 778 53 787 51 c 2,32,-1
 836 39 l 1,33,-1
 832 0 l 1,34,-1
 618 0 l 1,35,-1
 612 39 l 1,36,37
 657 48 657 48 667 59 c 128,-1,38
 677 70 677 70 677 96 c 2,39,-1
 677 323 l 2,40,41
 677 416 677 416 602 416 c 0,42,43
 563 416 563 416 504 377 c 0,44,45
 492 370 492 370 488 361.5 c 128,-1,46
 484 353 484 353 484 331 c 2,47,-1
 484 72 l 2,48,49
 484 60.3333333333 484 60.3333333333 489.5 56.6666666667 c 128,-1,50
 495 53 495 53 504 51 c 2,51,-1
 548 39 l 1,52,-1
 544 0 l 1,53,-1
 335 0 l 1,54,-1
 329 39 l 1,55,56
 374 48 374 48 384 59 c 128,-1,57
 394 70 394 70 394 96 c 2,58,-1
 394 323 l 2,59,60
 394 416 394 416 319 416 c 0,61,62
 280 416 280 416 221 377 c 0,63,64
 209 370 209 370 205 361.5 c 128,-1,65
 201 353 201 353 201 331 c 2,66,-1
 201 72 l 2,67,68
 201 60.3333333333 201 60.3333333333 206.5 56.6666666667 c 128,-1,69
 212 53 212 53 221 51 c 2,70,-1
 265 39 l 1,71,-1
 261 0 l 1,72,-1
 47 0 l 1,0,-1
EndSplineSet
Substitution2: "'smcp' Lowercase to Small Capitals in Latin lookup 5 subtable" M.sc
EndChar

StartChar: u
Encoding: 117 117 20
Width: 577
Flags: HMW
HStem: -9 72<227 258.5> 463 20G<159 171 455 467>
VStem: 92 90<141.5 167 167 388 388 402.5> 388 90<148 388 388 402.5>
LayerCount: 2
Fore
SplineSet
92 124 m 2,0,-1
 92 388 l 2,1,2
 92 409 92 409 76 418.5 c 128,-1,3
 60 428 60 428 16 437 c 1,4,-1
 22 469 l 1,5,6
 129 483 129 483 171 483 c 1,7,-1
 182 473 l 1,8,-1
 182 167 l 2,9,10
 182 63 182 63 261 63 c 0,11,12
 312 63 312 63 367 102 c 0,13,14
 380 111 380 111 384 119.5 c 128,-1,15
 388 128 388 128 388 148 c 2,16,-1
 388 388 l 2,17,18
 388 409 388 409 372 418.5 c 128,-1,19
 356 428 356 428 312 437 c 1,20,-1
 318 469 l 1,21,22
 425 483 425 483 467 483 c 1,23,-1
 478 473 l 1,24,-1
 478 99 l 2,25,26
 478 73 478 73 490.5 62.5 c 128,-1,27
 503 52 503 52 554 42 c 1,28,-1
 548 10 l 1,29,-1
 419 -4 l 2,30,31
 412 -5 412 -5 404.5 22.5 c 128,-1,32
 397 50 397 50 397 70 c 2,33,-1
 397 76 l 1,34,-1
 389 79 l 1,35,-1
 377 65 l 2,36,37
 314 -9 314 -9 223 -9 c 0,38,39
 162 -9 162 -9 127 23.5 c 128,-1,40
 92 56 92 56 92 124 c 2,0,-1
EndSplineSet
Substitution2: "'smcp' Lowercase to Small Capitals in Latin lookup 5 subtable" U.sc
EndChar

StartChar: d
Encoding: 100 100 21
Width: 569
Flags: HMW
HStem: -9 72<214 249> -4 21G<404.5 411> 431 57<236 279> 752 20G<438 450>
VStem: 36 97<183 282.5 183 303> 371 90<143 382 382 382 509 677 677 691.5>
LayerCount: 2
Fore
SplineSet
360 66 m 2,0,1
 302 -9 302 -9 221 -9 c 128,-1,2
 140 -9 140 -9 88 55.5 c 128,-1,3
 36 120 36 120 36 232 c 128,-1,4
 36 344 36 344 95 416 c 128,-1,5
 154 488 154 488 260 488 c 0,6,7
 333 488 333 488 368 462 c 1,8,-1
 375 465 l 1,9,10
 371 481 371 481 371 509 c 2,11,-1
 371 677 l 2,12,13
 371 698 371 698 350.5 708.5 c 128,-1,14
 330 719 330 719 277 726 c 1,15,-1
 283 758 l 1,16,17
 390 772 390 772 450 772 c 1,18,-1
 461 762 l 1,19,-1
 461 98 l 2,20,21
 461 72 461 72 473.5 61.5 c 128,-1,22
 486 51 486 51 537 41 c 1,23,-1
 531 9 l 1,24,-1
 411 -4 l 1,25,26
 401 -4 401 -4 389 16 c 128,-1,27
 377 36 377 36 377 52 c 128,-1,28
 377 68 377 68 378 76 c 1,29,-1
 370 79 l 1,30,-1
 360 66 l 2,0,1
164.5 110 m 128,-1,32
 196 63 196 63 244 63 c 128,-1,33
 292 63 292 63 344 97 c 0,34,35
 371 115 371 115 371 143 c 2,36,-1
 371 382 l 1,37,38
 330 431 330 431 243 431 c 0,39,40
 200 431 200 431 175 403 c 0,41,42
 133 356 133 356 133 256.5 c 128,-1,31
 133 157 133 157 164.5 110 c 128,-1,32
EndSplineSet
Substitution2: "'smcp' Lowercase to Small Capitals in Latin lookup 5 subtable" D.sc
EndChar

StartChar: q
Encoding: 113 113 22
Width: 543
Flags: HMW
HStem: -210 21G<266 526 266 266> -9 72<215 249> 431 57<241.5 280>
VStem: 36 97<181.5 280.5 181.5 305> 371 90<-109 -2 -2 10.5 143 395 395 395>
LayerCount: 2
Fore
SplineSet
360 66 m 2,0,1
 302 -9 302 -9 221 -9 c 128,-1,2
 140 -9 140 -9 88 55.5 c 128,-1,3
 36 120 36 120 36 233 c 128,-1,4
 36 346 36 346 95.5 417 c 128,-1,5
 155 488 155 488 267 488 c 0,6,7
 320 488 320 488 375 474 c 128,-1,8
 430 460 430 460 461 445 c 1,9,-1
 461 -138 l 2,10,11
 461 -149.666666667 461 -149.666666667 466.5 -153.333333333 c 128,-1,12
 472 -157 472 -157 481 -159 c 2,13,-1
 530 -171 l 1,14,-1
 526 -210 l 1,15,-1
 266 -210 l 1,16,-1
 260 -171 l 1,17,18
 332 -162 332 -162 351.5 -149 c 128,-1,19
 371 -136 371 -136 371 -109 c 2,20,-1
 371 -2 l 2,21,22
 371 53 371 53 378 76 c 1,23,-1
 370 79 l 1,24,-1
 360 66 l 2,0,1
244 63 m 128,-1,26
 291 63 291 63 344 98 c 0,27,28
 361 109 361 109 366 118 c 128,-1,29
 371 127 371 127 371 143 c 2,30,-1
 371 395 l 1,31,32
 328 431 328 431 262.5 431 c 128,-1,33
 197 431 197 431 174 404 c 0,34,35
 156 384 156 384 144.5 340.5 c 128,-1,36
 133 297 133 297 133 244 c 0,37,38
 133 155 133 155 165 109 c 128,-1,25
 197 63 197 63 244 63 c 128,-1,26
EndSplineSet
Substitution2: "'smcp' Lowercase to Small Capitals in Latin lookup 5 subtable" Q.sc
EndChar

StartChar: a
Encoding: 97 97 23
Width: 512
Flags: HMW
HStem: -9 68<188 205.5> -3 21G<347.5 354> 229 44<314 314> 435 53<216 256>
VStem: 42 97<107 167 107 171.5> 314 90<131 229 229 229 273 305 305 329>
LayerCount: 2
Fore
SplineSet
42 123 m 0,0,1
 42 198 42 198 106 235 c 128,-1,2
 170 272 170 272 314 273 c 1,3,-1
 314 305 l 2,4,5
 314 435 314 435 220 435 c 0,6,7
 175 435 175 435 163.5 422 c 0,8,9
 152 409 152 409 139 337 c 1,10,-1
 85 343 l 1,11,12
 77 374 77 374 77 407.5 c 0,13,14
 77 441 77 441 78 451 c 1,15,16
 137 488 137 488 233 488 c 0,17,18
 329 488 329 488 366.5 451 c 128,-1,19
 404 414 404 414 404 329 c 2,20,-1
 404 99 l 2,21,22
 404 73 404 73 416.5 62.5 c 128,-1,23
 429 52 429 52 480 42 c 1,24,-1
 474 10 l 1,25,-1
 354 -3 l 1,26,27
 344 -3 344 -3 333 16 c 128,-1,28
 322 35 322 35 322 51.5 c 0,29,30
 322 68 322 68 323 76 c 1,31,-1
 315 79 l 1,32,-1
 303 61 l 2,33,34
 256 -9 256 -9 174 -9 c 0,35,36
 118 -9 118 -9 80 26 c 128,-1,37
 42 61 42 61 42 123 c 0,0,1
139 132 m 0,38,39
 139 96 139 96 158 77.5 c 128,-1,40
 177 59 177 59 212 59 c 0,41,42
 247 59 247 59 291 93 c 0,43,44
 314 111 314 111 314 131 c 2,45,-1
 314 229 l 1,46,47
 224 227 224 227 181.5 205 c 128,-1,48
 139 183 139 183 139 132 c 0,38,39
EndSplineSet
Substitution2: "'ordn' Ordinals in Latin lookup 6 subtable" ordfeminine
Substitution2: "'smcp' Lowercase to Small Capitals in Latin lookup 5 subtable" A.sc
EndChar

StartChar: e
Encoding: 101 101 24
Width: 478
Flags: HMW
HStem: -9 68<244 288.5> 252 236 435 53<206 288>
VStem: 34 95<172 244 172 301.5> 349 96<279 350.5>
LayerCount: 2
Fore
SplineSet
89.5 60 m 128,-1,1
 34 129 34 129 34 234.5 c 128,-1,2
 34 340 34 340 98 414 c 128,-1,3
 162 488 162 488 267 488 c 0,4,5
 437 488 437 488 445 279 c 1,6,-1
 419 260 l 1,7,-1
 129 244 l 1,8,9
 129 59 129 59 287 59 c 0,10,11
 356 59 356 59 422 93 c 1,12,-1
 443 60 l 1,13,14
 410 33 410 33 357 12 c 128,-1,15
 304 -9 304 -9 246 -9 c 0,16,0
 145 -9 145 -9 89.5 60 c 128,-1,1
132 290 m 1,17,-1
 339 308 l 2,18,19
 349 309 349 309 349 327 c 0,20,21
 349 371 349 371 325.5 403 c 128,-1,22
 302 435 302 435 246 435 c 128,-1,23
 190 435 190 435 164.5 397.5 c 128,-1,24
 139 360 139 360 132 290 c 1,17,-1
EndSplineSet
Substitution2: "'smcp' Lowercase to Small Capitals in Latin lookup 5 subtable" E.sc
EndChar

StartChar: o
Encoding: 111 111 25
Width: 520
Flags: HMW
HStem: -9 53<221.5 282.5 221.5 329> 435 53<237.5 298.5>
VStem: 32 97<190.5 281.5 190.5 308.5> 391 97<197.5 288.5>
LayerCount: 2
Fore
SplineSet
90 55 m 128,-1,1
 32 119 32 119 32 234 c 128,-1,2
 32 349 32 349 93.5 418.5 c 128,-1,3
 155 488 155 488 263.5 488 c 128,-1,4
 372 488 372 488 430 423.5 c 128,-1,5
 488 359 488 359 488 244 c 128,-1,6
 488 129 488 129 426.5 60 c 128,-1,7
 365 -9 365 -9 256.5 -9 c 128,-1,0
 148 -9 148 -9 90 55 c 128,-1,1
165 101 m 128,-1,9
 201 44 201 44 263 44 c 128,-1,10
 325 44 325 44 351 74 c 0,11,12
 369 94 369 94 380 137.5 c 128,-1,13
 391 181 391 181 391 232 c 0,14,15
 391 321 391 321 355 378 c 128,-1,16
 319 435 319 435 257 435 c 128,-1,17
 195 435 195 435 169 405 c 0,18,19
 151 385 151 385 140 341.5 c 128,-1,20
 129 298 129 298 129 247 c 0,21,8
 129 158 129 158 165 101 c 128,-1,9
EndSplineSet
Substitution2: "'ordn' Ordinals in Latin lookup 6 subtable" ordmasculine
Substitution2: "'smcp' Lowercase to Small Capitals in Latin lookup 5 subtable" O.sc
EndChar

StartChar: c
Encoding: 99 99 26
Width: 468
Flags: HMW
HStem: -9 68<242.5 297> 433 55<227 255>
VStem: 34 97<176 275.5 176 293.5>
LayerCount: 2
Fore
SplineSet
82 404.5 m 0,0,1
 107 443 107 443 155.5 465.5 c 128,-1,2
 204 488 204 488 275.5 488 c 128,-1,3
 347 488 347 488 417 460 c 1,4,5
 418 452 418 452 418 408.5 c 128,-1,6
 418 365 418 365 406 323 c 1,7,-1
 350 317 l 1,8,9
 334 418 334 418 320 424 c 0,10,11
 299 433 299 433 245 433 c 128,-1,12
 191 433 191 433 166 396 c 0,13,14
 131 343 131 343 131 245.5 c 128,-1,15
 131 148 131 148 173.5 103.5 c 128,-1,16
 216 59 216 59 284.5 59 c 128,-1,17
 353 59 353 59 417 103 c 1,18,-1
 445 70 l 1,19,20
 364 -9 364 -9 254.5 -9 c 128,-1,21
 145 -9 145 -9 89.5 59.5 c 128,-1,22
 34 128 34 128 34 229.29 c 128,-1,23
 34 330.58 34 330.58 82 404.5 c 0,0,1
EndSplineSet
Substitution2: "'smcp' Lowercase to Small Capitals in Latin lookup 5 subtable" C.sc
EndChar

StartChar: s
Encoding: 115 115 27
Width: 437
Flags: HMW
HStem: -9 53<203 235.5 203 259.5> 435 53<207 236>
VStem: 57 79<349 385.5 349 389.5> 302 86<99.5 137>
LayerCount: 2
Fore
SplineSet
224 435 m 0,0,1
 136 435 136 435 136 375 c 0,2,3
 136 350.666666667 136 350.666666667 148 339.333333333 c 128,-1,4
 160 328 160 328 165.5 322.5 c 128,-1,5
 171 317 171 317 187 309 c 128,-1,6
 203 301 203 301 209.5 297.5 c 128,-1,7
 216 294 216 294 236.5 285.5 c 0,8,9
 319.685692542 251.008371385 319.685692542 251.008371385 353.842846271 220.004185693 c 128,-1,10
 388 189 388 189 388 132 c 128,-1,11
 388 75 388 75 337.5 33 c 128,-1,12
 287 -9 287 -9 199 -9 c 0,13,14
 160 -9 160 -9 118 -1 c 128,-1,15
 76 7 76 7 57 15 c 1,16,17
 55 28 55 28 55 68 c 128,-1,18
 55 108 55 108 64 155 c 1,19,-1
 116 159 l 1,20,21
 123 95 123 95 126.5 80.5 c 128,-1,22
 130 66 130 66 137 62 c 0,23,24
 169 44 169 44 215 44 c 0,25,26
 302 44 302 44 302 109 c 0,27,28
 302 139.5 302 139.5 278 159.5 c 0,29,30
 250.581395349 182.348837209 250.581395349 182.348837209 215.790697674 196.674418605 c 0,31,32
 123.576449912 234.644991213 123.576449912 234.644991213 90.2882249561 266.322495606 c 128,-1,33
 57 298 57 298 57 354 c 128,-1,34
 57 410 57 410 108 449 c 128,-1,35
 159 488 159 488 231 488 c 128,-1,36
 303 488 303 488 363 463 c 1,37,38
 364 455 364 455 364 418 c 128,-1,39
 364 381 364 381 351 340 c 1,40,-1
 305 335 l 1,41,42
 298 413 298 413 282.5 424 c 128,-1,43
 267 435 267 435 224 435 c 0,0,1
EndSplineSet
Substitution2: "'smcp' Lowercase to Small Capitals in Latin lookup 5 subtable" S.sc
EndChar

StartChar: v
Encoding: 118 118 28
Width: 496
Flags: HMW
HStem: -9 21G<211 211 211 276> 453 20G<6 212 212 212 319 497 497 497>
LayerCount: 2
Fore
SplineSet
211 -9 m 1,0,-1
 53 398 l 2,1,2
 46 417 46 417 39 422 c 128,-1,3
 32 427 32 427 0 434 c 1,4,-1
 6 473 l 1,5,-1
 212 473 l 1,6,-1
 216 434 l 1,7,-1
 155 419 l 2,8,9
 148 418 148 418 148 411 c 0,10,11
 148 410 148 410 152 398 c 2,12,-1
 242 146 l 2,13,14
 254 111 254 111 254 91 c 1,15,-1
 262 91 l 1,16,-1
 373 375 l 2,17,18
 379 391 379 391 379 401.5 c 0,19,20
 379 412 379 412 364.5 419 c 128,-1,21
 350 426 350 426 313 434 c 1,22,-1
 319 473 l 1,23,-1
 497 473 l 1,24,-1
 501 434 l 1,25,26
 469 426 469 426 462 423.5 c 128,-1,27
 455 421 455 421 454 417 c 2,28,-1
 276 -9 l 1,29,-1
 211 -9 l 1,0,-1
EndSplineSet
Substitution2: "'smcp' Lowercase to Small Capitals in Latin lookup 5 subtable" V.sc
EndChar

StartChar: g
Encoding: 103 103 29
Width: 554
Flags: HMW
HStem: -219 50<210.5 304> 162 49<231 296.5 231 308.5> 439 49<227.5 293> 470 20G
VStem: 55 77<-114 -100> 74 73<84.5 90.5> 74 92<292 365 292 378.5> 358 92<285 358> 358 165<285 449> 417 68<-87.5 -46>
LayerCount: 2
Fore
SplineSet
392 422 m 1,0,-1
 379 453 l 1,1,2
 448 488 448 488 513 490 c 1,3,4
 523 473 523 473 523 449.5 c 128,-1,5
 523 426 523 426 520 417 c 1,6,7
 486 425 486 425 449 425 c 128,-1,8
 412 425 412 425 392 422 c 1,0,-1
395 204.5 m 128,-1,10
 340 162 340 162 257.5 162 c 128,-1,11
 175 162 175 162 124.5 202 c 128,-1,12
 74 242 74 242 74 322.5 c 128,-1,13
 74 403 74 403 129 445.5 c 128,-1,14
 184 488 184 488 266.5 488 c 128,-1,15
 349 488 349 488 399.5 447.5 c 128,-1,16
 450 407 450 407 450 327 c 128,-1,9
 450 247 450 247 395 204.5 c 128,-1,10
265 211 m 0,17,18
 358 211 358 211 358 325 c 128,-1,19
 358 439 358 439 259 439 c 0,20,21
 166 439 166 439 166 325 c 128,-1,22
 166 211 166 211 265 211 c 0,17,18
74 61 m 0,23,24
 74 101 74 101 103.5 137.5 c 128,-1,25
 133 174 133 174 171 198 c 1,26,-1
 186 184 l 1,27,28
 147 143 147 143 147 105 c 0,29,30
 147 74.6666666667 147 74.6666666667 181 69 c 0,31,32
 211 64 211 64 248.5 64 c 128,-1,33
 286 64 286 64 306.5 63.5 c 128,-1,34
 327 63 327 63 359 60 c 128,-1,35
 391 57 391 57 409.5 50 c 128,-1,36
 428 43 428 43 447.5 32 c 0,37,38
 485 10.8461538462 485 10.8461538462 485 -42 c 0,39,40
 485 -114 485 -114 413 -166.5 c 128,-1,41
 341 -219 341 -219 219 -219 c 0,42,43
 55 -219 55 -219 55 -125 c 0,44,45
 55 -91 55 -91 74.5 -66.5 c 128,-1,46
 94 -42 94 -42 131 -15 c 1,47,48
 74 3 74 3 74 61 c 0,23,24
160 -24 m 1,49,50
 132 -55 132 -55 132 -91 c 128,-1,51
 132 -127 132 -127 162 -148 c 128,-1,52
 192 -169 192 -169 264.5 -169 c 128,-1,53
 337 -169 337 -169 377 -139 c 128,-1,54
 417 -109 417 -109 417 -79 c 128,-1,55
 417 -49 417 -49 384 -42.5 c 128,-1,56
 351 -36 351 -36 279.5 -35 c 128,-1,57
 208 -34 208 -34 160 -24 c 1,49,50
EndSplineSet
Substitution2: "'smcp' Lowercase to Small Capitals in Latin lookup 5 subtable" G.sc
EndChar

StartChar: r
Encoding: 114 114 30
Width: 432
Flags: HMW
HStem: 0 21G<40 40 40 308> 410 78<288.5 350> 466 20G<170 174.5>
VStem: 111 90<96 298>
LayerCount: 2
Fore
SplineSet
40 0 m 1,0,-1
 34 39 l 1,1,2
 87 48 87 48 99 59 c 128,-1,3
 111 70 111 70 111 96 c 2,4,-1
 111 384 l 2,5,6
 111 410 111 410 97.5 421.5 c 128,-1,7
 84 433 84 433 28 441 c 1,8,-1
 34 473 l 1,9,-1
 170 486 l 2,10,11
 177 486 177 486 185 466 c 128,-1,12
 193 446 193 446 193 424.5 c 128,-1,13
 193 403 193 403 189 375 c 1,14,-1
 197 372 l 1,15,-1
 210 401 l 2,16,17
 228 441 228 441 264.5 464.5 c 128,-1,18
 301 488 301 488 338.5 488 c 128,-1,19
 376 488 376 488 408 472 c 1,20,21
 408 390 408 390 393 308 c 1,22,-1
 344 303 l 1,23,24
 336 387 336 387 328 398.5 c 128,-1,25
 320 410 320 410 301.5 410 c 128,-1,26
 283 410 283 410 258 393.5 c 128,-1,27
 233 377 233 377 217 358.5 c 128,-1,28
 201 340 201 340 201 298 c 2,29,-1
 201 72 l 2,30,31
 201 59.3333333333 201 59.3333333333 206.5 55.6666666667 c 128,-1,32
 212 52 212 52 221 51 c 2,33,-1
 312 39 l 1,34,-1
 308 0 l 1,35,-1
 40 0 l 1,0,-1
EndSplineSet
Substitution2: "'smcp' Lowercase to Small Capitals in Latin lookup 5 subtable" R.sc
EndChar

StartChar: w
Encoding: 119 119 31
Width: 754
Flags: HMW
HStem: -9 21G<207 207 207 272 474 474 474 539> 453 20G<14 199 199 199 302 466 466 466 584 748 748 748>
LayerCount: 2
Fore
SplineSet
207 -9 m 1,0,-1
 62 398 l 2,1,2
 55 417 55 417 48 422 c 128,-1,3
 41 427 41 427 8 434 c 1,4,-1
 14 473 l 1,5,-1
 199 473 l 1,6,-1
 203 434 l 1,7,-1
 159 420 l 1,8,9
 152 419 152 419 152 413 c 0,10,11
 152 412 152 412 156 400 c 2,12,-1
 248 112 l 2,13,14
 252 102 252 102 252 88 c 2,15,-1
 252 84 l 1,16,-1
 260 84 l 1,17,18
 260 95 260 95 268 114 c 2,19,-1
 359 341 l 1,20,-1
 340 398 l 2,21,22
 334 416 334 416 327.5 421.5 c 128,-1,23
 321 427 321 427 296 434 c 1,24,-1
 302 473 l 1,25,-1
 466 473 l 1,26,-1
 470 434 l 1,27,-1
 426 420 l 1,28,29
 419 419 419 419 419 413 c 0,30,31
 419 412 419 412 423 400 c 2,32,-1
 514 112 l 2,33,34
 518 100 518 100 518 88 c 2,35,-1
 518 84 l 1,36,-1
 526 84 l 1,37,38
 526 90 526 90 534 114 c 2,39,-1
 625 375 l 2,40,41
 631 391 631 391 631 396.5 c 0,42,43
 631 402 631 402 630.5 404.5 c 128,-1,44
 630 407 630 407 628 409.5 c 128,-1,45
 626 412 626 412 624.5 413.5 c 128,-1,46
 623 415 623 415 619.5 417 c 128,-1,47
 616 419 616 419 613.5 420.5 c 128,-1,48
 611 422 611 422 606 424 c 128,-1,49
 601 426 601 426 597.5 427 c 128,-1,50
 594 428 594 428 588 430.5 c 128,-1,51
 582 433 582 433 578 434 c 1,52,-1
 584 473 l 1,53,-1
 748 473 l 1,54,-1
 752 434 l 1,55,56
 720 426 720 426 713 423.5 c 128,-1,57
 706 421 706 421 705 417 c 2,58,-1
 539 -9 l 1,59,-1
 474 -9 l 1,60,-1
 392 243 l 2,61,62
 387 258 387 258 387 270 c 1,63,-1
 379 270 l 1,64,65
 379 259 379 259 373 244 c 2,66,-1
 272 -9 l 1,67,-1
 207 -9 l 1,0,-1
EndSplineSet
Substitution2: "'smcp' Lowercase to Small Capitals in Latin lookup 5 subtable" W.sc
EndChar

StartChar: y
Encoding: 121 121 32
Width: 500
Flags: HMW
HStem: -219 21G -140 20G<81.5 106> 453 20G<10 216 216 216 323 501 501 501>
LayerCount: 2
Fore
SplineSet
29 -117 m 1,0,1
 53 -120 53 -120 95.5 -120 c 128,-1,2
 138 -120 138 -120 163 -109.5 c 128,-1,3
 188 -99 188 -99 223 0 c 1,4,-1
 57 398 l 2,5,6
 49 417 49 417 42.5 422 c 128,-1,7
 36 427 36 427 4 434 c 1,8,-1
 10 473 l 1,9,-1
 216 473 l 1,10,-1
 220 434 l 1,11,-1
 159 419 l 2,12,13
 152 418 152 418 152 411 c 0,14,15
 152 410 152 410 156 398 c 2,16,-1
 258 131 l 2,17,18
 263 117 263 117 263 100 c 1,19,-1
 271 100 l 1,20,-1
 377 375 l 2,21,22
 383 391 383 391 383 401.5 c 128,-1,23
 383 412 383 412 368.5 419 c 128,-1,24
 354 426 354 426 317 434 c 1,25,-1
 323 473 l 1,26,-1
 501 473 l 1,27,-1
 505 434 l 1,28,29
 461 424 461 424 458 417 c 2,30,-1
 300 25 l 2,31,32
 280 -25 280 -25 268 -51.5 c 128,-1,33
 256 -78 256 -78 235 -111 c 128,-1,34
 214 -144 214 -144 191 -161.5 c 0,35,36
 133.925925926 -204.925925926 133.925925926 -204.925925926 53 -219 c 1,37,38
 27 -193 27 -193 27 -137 c 0,39,40
 27 -131 27 -131 29 -117 c 1,0,1
EndSplineSet
Substitution2: "'smcp' Lowercase to Small Capitals in Latin lookup 5 subtable" Y.sc
EndChar

StartChar: k
Encoding: 107 107 33
Width: 569
Flags: HMW
HStem: 0 39<34 40 34 254> 453 20G<311 510 510 510> 752 20G<171 183>
VStem: 104 90<96 164 231 677 677 691.5>
LayerCount: 2
Fore
SplineSet
40 0 m 1,0,-1
 34 39 l 1,1,2
 83 49 83 49 93.5 59.5 c 128,-1,3
 104 70 104 70 104 96 c 2,4,-1
 104 677 l 2,5,6
 104 698 104 698 88 707.5 c 128,-1,7
 72 717 72 717 28 726 c 1,8,-1
 34 758 l 1,9,10
 141 772 141 772 183 772 c 1,11,-1
 194 762 l 1,12,-1
 194 231 l 1,13,-1
 366 392 l 1,14,15
 374 401 374 401 374 409 c 0,16,17
 374 424 374 424 305 434 c 1,18,-1
 311 473 l 1,19,-1
 510 473 l 1,20,-1
 514 434 l 1,21,22
 468 427 468 427 459 418 c 2,23,-1
 322 287 l 1,24,-1
 467 80 l 1,25,26
 483 60 483 60 502.5 51 c 128,-1,27
 522 42 522 42 559 39 c 1,28,-1
 553 0 l 1,29,-1
 414 0 l 1,30,-1
 259 226 l 1,31,-1
 194 164 l 1,32,-1
 194 72 l 2,33,34
 194 60.3333333333 194 60.3333333333 199.5 56.6666666667 c 128,-1,35
 205 53 205 53 214 51 c 2,36,-1
 258 39 l 1,37,-1
 254 0 l 1,38,-1
 40 0 l 1,0,-1
EndSplineSet
Substitution2: "'smcp' Lowercase to Small Capitals in Latin lookup 5 subtable" K.sc
EndChar

StartChar: x
Encoding: 120 120 34
Width: 554
Flags: HMW
HStem: 0 21G<16 16 16 202 331 331 331 529> 453 20G<31 229 229 229 331 517 517 517>
LayerCount: 2
Fore
SplineSet
16 0 m 1,0,-1
 12 39 l 1,1,2
 63 47 63 47 69 53 c 2,3,-1
 226 237 l 1,4,-1
 83 408 l 2,5,6
 75 418 75 418 63 422 c 2,7,-1
 27 434 l 1,8,-1
 31 473 l 1,9,-1
 229 473 l 1,10,-1
 235 434 l 1,11,-1
 204 427 l 1,12,13
 191 423 191 423 191 415.5 c 0,14,15
 191 408 191 408 206 390 c 2,16,-1
 285 295 l 1,17,-1
 363 392 l 2,18,19
 370 400 370 400 370 408 c 0,20,21
 370 425 370 425 325 434 c 1,22,-1
 331 473 l 1,23,-1
 517 473 l 1,24,-1
 521 434 l 1,25,26
 475 427 475 427 466 418 c 1,27,-1
 323 249 l 1,28,-1
 477 65 l 2,29,30
 485 55 485 55 497 51 c 2,31,-1
 533 39 l 1,32,-1
 529 0 l 1,33,-1
 331 0 l 1,34,-1
 325 39 l 1,35,-1
 356 46 l 1,36,37
 369 50 369 50 369 57.5 c 0,38,39
 369 65 369 65 354 83 c 2,40,-1
 262 193 l 1,41,-1
 170 81 l 2,42,43
 163 73 163 73 163 65 c 0,44,45
 163 48 163 48 208 39 c 1,46,-1
 202 0 l 1,47,-1
 16 0 l 1,0,-1
EndSplineSet
Substitution2: "'smcp' Lowercase to Small Capitals in Latin lookup 5 subtable" X.sc
EndChar

StartChar: z
Encoding: 122 122 35
Width: 443
Flags: HMW
HStem: 0 52<193 193 193 401> 422 51<178 187 187 301>
LayerCount: 2
Fore
SplineSet
28 0 m 1,0,-1
 28 26 l 1,1,-1
 281 392 l 1,2,3
 297 412 297 412 303 415 c 1,4,-1
 301 422 l 1,5,-1
 187 422 l 2,6,7
 148 422 148 422 121 419 c 0,8,9
 114 418 114 418 109 404.5 c 128,-1,10
 104 391 104 391 90 335 c 1,11,-1
 44 340 l 1,12,13
 42 372 42 372 42 404 c 0,14,15
 42 436 42 436 48 473 c 1,16,-1
 414 473 l 1,17,-1
 414 445 l 1,18,-1
 164 81 l 2,19,20
 151 62 151 62 142 58 c 1,21,-1
 144 51 l 1,22,-1
 193 52 l 2,23,24
 300 54 300 54 319 58.5 c 0,25,26
 338 63 338 63 360 158 c 1,27,-1
 412 154 l 1,28,29
 410 74 410 74 401 0 c 1,30,-1
 28 0 l 1,0,-1
EndSplineSet
Substitution2: "'smcp' Lowercase to Small Capitals in Latin lookup 5 subtable" Z.sc
EndChar

StartChar: f
Encoding: 102 102 36
Width: 350
Flags: HMW
HStem: 0 21G<51 51 51 298> 719 53<260 298>
VStem: 115 90<96 404>
LayerCount: 2
Fore
SplineSet
51 0 m 1,0,-1
 45 39 l 1,1,2
 94 49 94 49 104.5 59.5 c 128,-1,3
 115 70 115 70 115 96 c 2,4,-1
 115 405 l 1,5,-1
 50 405 l 1,6,-1
 46 448 l 1,7,-1
 95 460 l 2,8,9
 108 463 108 463 112 471 c 128,-1,10
 116 479 116 479 117 498 c 128,-1,11
 118 517 118 517 120.5 535 c 128,-1,12
 123 553 123 553 129 590 c 128,-1,13
 135 627 135 627 148.5 655 c 128,-1,14
 162 683 162 683 182 711.5 c 0,15,16
 224.456140351 772 224.456140351 772 309 772 c 0,17,18
 363 772 363 772 423 749 c 1,19,20
 423 673 423 673 410 628 c 1,21,-1
 357 623 l 1,22,23
 341 704 341 704 333 709 c 0,24,25
 317 719 317 719 291 719 c 0,26,27
 205 719 205 719 205 466 c 1,28,-1
 323 466 l 1,29,-1
 315 419 l 1,30,-1
 205 404 l 1,31,-1
 205 72 l 2,32,33
 205 62 205 62 209 57.5 c 128,-1,34
 213 53 213 53 227 51 c 2,35,-1
 302 39 l 1,36,-1
 298 0 l 1,37,-1
 51 0 l 1,0,-1
EndSplineSet
Substitution2: "'smcp' Lowercase to Small Capitals in Latin lookup 5 subtable" F.sc
EndChar

StartChar: j
Encoding: 106 106 37
Width: 280
Flags: HMW
HStem: -219 79<18.5 32.5 18.5 58.5> 458 20G<167 179> 597 115<118 150 115.5 152>
VStem: -53 243<-192 38> 76 114 100 90<68 383 383 397.5>
LayerCount: 2
Fore
SplineSet
100 68 m 2,0,-1
 100 383 l 2,1,2
 100 404 100 404 84 413.5 c 128,-1,3
 68 423 68 423 24 432 c 1,4,-1
 30 464 l 1,5,6
 137 478 137 478 179 478 c 1,7,-1
 190 468 l 1,8,-1
 190 38 l 2,9,10
 190 -56 190 -56 134 -137.5 c 128,-1,11
 78 -219 78 -219 26 -219 c 0,12,13
 -10 -219 -10 -219 -50 -212 c 1,14,15
 -53 -200 -53 -200 -53 -179 c 128,-1,16
 -53 -158 -53 -158 -36 -130 c 1,17,18
 4 -140 4 -140 24.5 -140 c 128,-1,19
 45 -140 45 -140 55 -133 c 0,20,21
 76 -119 76 -119 88 -61.5 c 128,-1,22
 100 -4 100 -4 100 68 c 2,0,-1
175.5 614 m 128,-1,24
 160 597 160 597 134.5 597 c 128,-1,25
 109 597 109 597 92.5 612 c 128,-1,26
 76 627 76 627 76 653.5 c 128,-1,27
 76 680 76 680 91.5 696 c 128,-1,28
 107 712 107 712 134 712 c 0,29,30
 191 712 191 712 191 656 c 0,31,23
 191 631 191 631 175.5 614 c 128,-1,24
EndSplineSet
Substitution2: "'smcp' Lowercase to Small Capitals in Latin lookup 5 subtable" J.sc
EndChar

StartChar: _fk
Encoding: 65538 -1 38
Width: 919
Flags: HMW
HStem: 0 39<45 51 45 288> 453 20G<661 860 860 860> 722 50<314.5 378.5>
VStem: 115 90<96 404> 454 90<96 164 231 677 677 685>
LayerCount: 2
Fore
SplineSet
454 677 m 2,0,1
 454 722 454 722 371 722 c 128,-1,2
 288 722 288 722 246.5 654.5 c 128,-1,3
 205 587 205 587 205 466 c 1,4,-1
 323 466 l 1,5,-1
 315 419 l 1,6,-1
 205 404 l 1,7,-1
 205 72 l 2,8,9
 205 62 205 62 209 57.5 c 128,-1,10
 213 53 213 53 227 51 c 2,11,-1
 292 39 l 1,12,-1
 288 0 l 1,13,-1
 51 0 l 1,14,-1
 45 39 l 1,15,16
 94 49 94 49 104.5 59.5 c 128,-1,17
 115 70 115 70 115 96 c 2,18,-1
 115 405 l 1,19,-1
 50 405 l 1,20,-1
 46 448 l 1,21,-1
 95 460 l 2,22,23
 108 463 108 463 112 471 c 128,-1,24
 116 479 116 479 119 514.5 c 128,-1,25
 122 550 122 550 137 595.5 c 128,-1,26
 152 641 152 641 183 682.5 c 128,-1,27
 214 724 214 724 270.5 748 c 128,-1,28
 327 772 327 772 398 772 c 128,-1,29
 469 772 469 772 527 763 c 1,30,-1
 544 737 l 1,31,-1
 544 231 l 1,32,-1
 716 392 l 2,33,34
 724 400 724 400 724 409 c 0,35,36
 724 424 724 424 655 434 c 1,37,-1
 661 473 l 1,38,-1
 860 473 l 1,39,-1
 864 434 l 1,40,41
 818 427 818 427 809 418 c 2,42,-1
 672 287 l 1,43,-1
 817 80 l 2,44,45
 831 60 831 60 851 51 c 128,-1,46
 871 42 871 42 909 39 c 1,47,-1
 903 0 l 1,48,-1
 764 0 l 1,49,-1
 609 226 l 1,50,-1
 544 164 l 1,51,-1
 544 72 l 2,52,53
 544 63 544 63 547.5 59 c 128,-1,54
 551 55 551 55 564 51 c 2,55,-1
 608 39 l 1,56,-1
 604 0 l 1,57,-1
 390 0 l 1,58,-1
 384 39 l 1,59,60
 433 49 433 49 443.5 59.5 c 128,-1,61
 454 70 454 70 454 96 c 2,62,-1
 454 677 l 2,0,1
EndSplineSet
Ligature2: "'liga' Standard Ligatures in Latin lookup 13 subtable" f k
EndChar

StartChar: _fb
Encoding: 65539 -1 39
Width: 894
Flags: HMW
HStem: -9 21G<587 704> 0 48 416 72<645.5 679> 722 50<314.5 376.5>
VStem: 115 90<96 404> 433 90<84 84 84 336 468.5 481 481 677 677 685> 761 97<198.5 297.5>
LayerCount: 2
Fore
SplineSet
51 0 m 1,0,-1
 45 39 l 1,1,2
 94 49 94 49 104.5 59.5 c 128,-1,3
 115 70 115 70 115 96 c 2,4,-1
 115 405 l 1,5,-1
 50 405 l 1,6,-1
 46 448 l 1,7,-1
 95 460 l 2,8,9
 108 463 108 463 112 471 c 128,-1,10
 116 479 116 479 119 514.5 c 128,-1,11
 122 550 122 550 137 595.5 c 128,-1,12
 152 641 152 641 183 682.5 c 128,-1,13
 214 724 214 724 270.5 748 c 128,-1,14
 327 772 327 772 392 772 c 128,-1,15
 457 772 457 772 506 763 c 1,16,-1
 523 737 l 1,17,-1
 523 481 l 2,18,19
 523 426 523 426 516 403 c 1,20,-1
 524 400 l 1,21,-1
 534 413 l 2,22,23
 592 488 592 488 673 488 c 128,-1,24
 754 488 754 488 806 423.5 c 128,-1,25
 858 359 858 359 858 246 c 128,-1,26
 858 133 858 133 798.5 62 c 128,-1,27
 739 -9 739 -9 627 -9 c 0,28,29
 574 -9 574 -9 519 5 c 128,-1,30
 464 19 464 19 433 34 c 1,31,-1
 433 677 l 2,32,33
 433 698 433 698 417 708 c 1,34,35
 403 722 403 722 373 722 c 0,36,37
 288 722 288 722 246.5 654.5 c 128,-1,38
 205 587 205 587 205 466 c 1,39,-1
 323 466 l 1,40,-1
 315 419 l 1,41,-1
 205 404 l 1,42,-1
 205 72 l 2,43,44
 205 62 205 62 209 57.5 c 128,-1,45
 213 53 213 53 227 51 c 2,46,-1
 292 39 l 1,47,-1
 288 0 l 1,48,-1
 51 0 l 1,0,-1
523 84 m 1,49,50
 566 48 566 48 631.5 48 c 128,-1,51
 697 48 697 48 717 72 c 0,52,53
 761 124.8 761 124.8 761 224.4 c 128,-1,54
 761 324 761 324 729 370 c 128,-1,55
 697 416 697 416 650 416 c 128,-1,56
 603 416 603 416 550 381 c 0,57,58
 533 370 533 370 528 361 c 128,-1,59
 523 352 523 352 523 336 c 2,60,-1
 523 84 l 1,49,50
EndSplineSet
Ligature2: "'liga' Standard Ligatures in Latin lookup 13 subtable" f b
EndChar

StartChar: _fh
Encoding: 65540 -1 40
Width: 946
Flags: HMW
HStem: 0 21G<51 51 51 288 390 390 390 604 705 705 705 919> 416 72<677.5 715.5> 722 50<314.5 378.5>
VStem: 115 90<96 404> 454 90<96 329 468.5 481 481 677 677 685> 764 90<96 312 312 338>
LayerCount: 2
Fore
SplineSet
454 677 m 2,0,1
 454 722 454 722 371 722 c 128,-1,2
 288 722 288 722 246.5 654.5 c 128,-1,3
 205 587 205 587 205 466 c 1,4,-1
 323 466 l 1,5,-1
 315 419 l 1,6,-1
 205 404 l 1,7,-1
 205 72 l 2,8,9
 205 62 205 62 209 57.5 c 128,-1,10
 213 53 213 53 227 51 c 2,11,-1
 292 39 l 1,12,-1
 288 0 l 1,13,-1
 51 0 l 1,14,-1
 45 39 l 1,15,16
 94 49 94 49 104.5 59.5 c 128,-1,17
 115 70 115 70 115 96 c 2,18,-1
 115 405 l 1,19,-1
 50 405 l 1,20,-1
 46 448 l 1,21,-1
 95 460 l 2,22,23
 108 463 108 463 112 471 c 128,-1,24
 116 479 116 479 119 514.5 c 128,-1,25
 122 550 122 550 137 595.5 c 128,-1,26
 152 641 152 641 183 682.5 c 128,-1,27
 214 724 214 724 270.5 748 c 128,-1,28
 327 772 327 772 398 772 c 128,-1,29
 469 772 469 772 527 763 c 1,30,-1
 544 737 l 1,31,-1
 544 481 l 2,32,33
 544 426 544 426 537 403 c 1,34,-1
 545 400 l 1,35,-1
 557 414 l 1,36,37
 619 488 619 488 712 488 c 0,38,39
 779 488 779 488 816.5 449 c 128,-1,40
 854 410 854 410 854 342 c 2,41,-1
 854 72 l 2,42,43
 854 63 854 63 857.5 59 c 128,-1,44
 861 55 861 55 874 51 c 2,45,-1
 923 39 l 1,46,-1
 919 0 l 1,47,-1
 705 0 l 1,48,-1
 699 39 l 1,49,50
 744 48 744 48 754 59 c 128,-1,51
 764 70 764 70 764 96 c 2,52,-1
 764 312 l 2,53,54
 764 360 764 360 746.5 388 c 128,-1,55
 729 416 729 416 676.5 416 c 128,-1,56
 624 416 624 416 567 377 c 0,57,58
 554 368 554 368 549 359.5 c 128,-1,59
 544 351 544 351 544 329 c 2,60,-1
 544 72 l 2,61,62
 544 63 544 63 547.5 59 c 128,-1,63
 551 55 551 55 564 51 c 2,64,-1
 608 39 l 1,65,-1
 604 0 l 1,66,-1
 390 0 l 1,67,-1
 384 39 l 1,68,69
 433 49 433 49 443.5 59.5 c 128,-1,70
 454 70 454 70 454 96 c 2,71,-1
 454 677 l 2,0,1
EndSplineSet
Ligature2: "'liga' Standard Ligatures in Latin lookup 13 subtable" f h
EndChar

StartChar: t
Encoding: 116 116 41
Width: 350
Flags: HMW
HStem: -9 72<211.5 233.5> 453 20G<175 314 314 314> 587 20G<175 175>
VStem: 85 90<142.5 167 167 411>
LayerCount: 2
Fore
SplineSet
85 137 m 2,0,-1
 85 412 l 1,1,-1
 20 412 l 1,2,-1
 16 455 l 1,3,-1
 65 467 l 2,4,5
 84 472 84 472 90.5 489.5 c 128,-1,6
 97 507 97 507 114 601 c 1,7,-1
 175 607 l 1,8,-1
 175 473 l 1,9,-1
 314 473 l 1,10,-1
 306 426 l 1,11,-1
 175 411 l 1,12,-1
 175 167 l 2,13,14
 175 63 175 63 239 63 c 0,15,16
 275 63 275 63 315 93 c 1,17,-1
 336 64 l 1,18,19
 282 -9 282 -9 204 -9 c 0,20,21
 148 -9 148 -9 116.5 30 c 128,-1,22
 85 69 85 69 85 137 c 2,0,-1
EndSplineSet
Substitution2: "'smcp' Lowercase to Small Capitals in Latin lookup 5 subtable" T.sc
EndChar

StartChar: O
Encoding: 79 79 42
Width: 711
Flags: HMW
HStem: -9 53<291 439 291 452> 649 53<272 420>
VStem: 35 111<267 429 267 446.5> 565 111<269.5 432>
LayerCount: 2
Fore
SplineSet
117 84.5 m 128,-1,1
 35 178 35 178 35 340.5 c 128,-1,2
 35 503 35 503 122 602.5 c 128,-1,3
 209 702 209 702 360.5 702 c 128,-1,4
 512 702 512 702 594 610.5 c 128,-1,5
 676 519 676 519 676 356.5 c 128,-1,6
 676 194 676 194 589 92.5 c 128,-1,7
 502 -9 502 -9 350.5 -9 c 128,-1,0
 199 -9 199 -9 117 84.5 c 128,-1,1
364 44 m 0,8,9
 418 44 418 44 458.5 69 c 128,-1,10
 499 94 499 94 521.5 138 c 0,11,12
 565 223.066666667 565 223.066666667 565 352.033333333 c 128,-1,13
 565 481 565 481 508.5 565 c 128,-1,14
 452 649 452 649 347 649 c 0,15,16
 293 649 293 649 252.5 624.5 c 128,-1,17
 212 600 212 600 189.5 557 c 0,18,19
 146 473.866666667 146 473.866666667 146 345.433333333 c 128,-1,20
 146 217 146 217 202 130.5 c 128,-1,21
 258 44 258 44 364 44 c 0,8,9
EndSplineSet
Substitution2: "'ordn' Ordinals in Latin lookup 6 subtable" ordmasculine
Substitution2: "'c2sc' Capitals to Small Capitals in Latin lookup 4 subtable" O.sc
Position2: "'cpsp' Capital Spacing in Latin lookup 0 subtable" dx=25 dy=0 dh=25 dv=0
EndChar

StartChar: C
Encoding: 67 67 43
Width: 620
Flags: HMW
HStem: -9 56<329.5 411> 649 53<291.5 394.5>
VStem: 35 111<244 416>
LayerCount: 2
Fore
SplineSet
35 331 m 0,0,1
 35 445.019230769 35 445.019230769 82 534.5 c 0,2,3
 136.814130212 638.85767098 136.814130212 638.85767098 247 679.5 c 0,4,5
 308 702 308 702 374 702 c 128,-1,6
 440 702 440 702 501 692 c 128,-1,7
 562 682 562 682 581 674 c 1,8,9
 587 637 587 637 587 596.5 c 128,-1,10
 587 556 587 556 585 506 c 1,11,-1
 528 498 l 1,12,13
 506 614 506 614 489 626 c 0,14,15
 480 633 480 633 442.5 641 c 128,-1,16
 405 649 405 649 368 649 c 0,17,18
 258 649 258 649 202 568 c 128,-1,19
 146 487 146 487 146 355 c 0,20,21
 146 199 146 199 217 123 c 128,-1,22
 288 47 288 47 393 47 c 0,23,24
 431 47 431 47 464.5 56 c 128,-1,25
 498 65 498 65 508.5 73 c 128,-1,26
 519 81 519 81 541 200 c 1,27,-1
 596 198 l 1,28,29
 596 122 596 122 585 36 c 1,30,31
 554 19 554 19 491.5 5 c 128,-1,32
 429 -9 429 -9 364 -9 c 0,33,34
 201 -9 201 -9 118 87 c 128,-1,35
 35 183 35 183 35 331 c 0,0,1
EndSplineSet
Substitution2: "'c2sc' Capitals to Small Capitals in Latin lookup 4 subtable" C.sc
Position2: "'cpsp' Capital Spacing in Latin lookup 0 subtable" dx=25 dy=0 dh=25 dv=0
EndChar

StartChar: D
Encoding: 68 68 44
Width: 713
Flags: HMW
HStem: 0 53<323 341> 640 53<217 340 217 217>
VStem: 120 97<101 592 592 611.5> 567 111<280.5 448.5 280.5 459>
LayerCount: 2
Fore
SplineSet
50 0 m 1,0,-1
 44 39 l 1,1,2
 97 48 97 48 108.5 59 c 128,-1,3
 120 70 120 70 120 101 c 2,4,-1
 120 592 l 2,5,6
 120 623 120 623 108.5 634 c 128,-1,7
 97 645 97 645 44 654 c 1,8,-1
 50 693 l 1,9,-1
 363 693 l 2,10,11
 449 693 449 693 512 665.5 c 128,-1,12
 575 638 575 638 610 590.5 c 0,13,14
 678 498.214285714 678 498.214285714 678 368 c 0,15,16
 678 224.896103896 678 224.896103896 602.5 119 c 0,17,18
 564 65 564 65 496.5 32.5 c 128,-1,19
 429 0 429 0 341 0 c 2,20,-1
 50 0 l 1,0,-1
217 93 m 2,21,22
 217 71 217 71 238 67 c 0,23,24
 308 53 308 53 344 53 c 0,25,26
 455 53 455 53 511 132 c 128,-1,27
 567 211 567 211 567 343 c 0,28,29
 567 426 567 426 545.5 487 c 128,-1,30
 524 548 524 548 488.5 579.5 c 0,31,32
 420.317460317 640 420.317460317 640 340 640 c 2,33,-1
 217 640 l 1,34,-1
 217 93 l 2,21,22
EndSplineSet
Substitution2: "'c2sc' Capitals to Small Capitals in Latin lookup 4 subtable" D.sc
Position2: "'cpsp' Capital Spacing in Latin lookup 0 subtable" dx=25 dy=0 dh=25 dv=0
EndChar

StartChar: B
Encoding: 66 66 45
Width: 619
Flags: HMW
HStem: 0 52<273 342> 330 53<217 273 273 314 217 273> 640 53<217 284 217 217>
VStem: 120 97<101 330 383 592 592 611.5> 432 107<482 574.5> 473 66 473 111<149.5 233.5 149.5 243>
LayerCount: 2
Fore
SplineSet
50 0 m 1,0,-1
 44 39 l 1,1,2
 97 48 97 48 108.5 59 c 128,-1,3
 120 70 120 70 120 101 c 2,4,-1
 120 592 l 2,5,6
 120 623 120 623 108.5 634 c 128,-1,7
 97 645 97 645 44 654 c 1,8,-1
 50 693 l 1,9,-1
 314 693 l 2,10,11
 423 693 423 693 481 649.5 c 128,-1,12
 539 606 539 606 539 528 c 0,13,14
 539 466 539 466 505.5 423.5 c 128,-1,15
 472 381 472 381 434 369 c 1,16,-1
 434 362 l 1,17,18
 498 350 498 350 541 302 c 128,-1,19
 584 254 584 254 584 185.5 c 128,-1,20
 584 117 584 117 524.5 58.5 c 128,-1,21
 465 0 465 0 342 0 c 2,22,-1
 50 0 l 1,0,-1
217 383 m 1,23,-1
 273 383 l 2,24,25
 355 383 355 383 393.5 418.5 c 128,-1,26
 432 454 432 454 432 516 c 0,27,28
 432 640 432 640 284 640 c 2,29,-1
 217 640 l 1,30,-1
 217 383 l 1,23,-1
217 97 m 2,31,32
 217 68 217 68 232 62 c 1,33,34
 247 52 247 52 293 52 c 0,35,36
 389 52 389 52 431 86 c 128,-1,37
 473 120 473 120 473 184 c 0,38,39
 473 276.704545455 473 276.704545455 398 312.5 c 0,40,41
 361.333333333 330 361.333333333 330 314 330 c 2,42,-1
 217 330 l 1,43,-1
 217 97 l 2,31,32
EndSplineSet
Substitution2: "'c2sc' Capitals to Small Capitals in Latin lookup 4 subtable" B.sc
Position2: "'cpsp' Capital Spacing in Latin lookup 0 subtable" dx=25 dy=0 dh=25 dv=0
EndChar

StartChar: R
Encoding: 82 82 46
Width: 632
Flags: HMW
HStem: 0 39<44 50 44 288> 304 51<217 272 272 282 217 272> 640 53<227.5 237 237 297>
VStem: 120 97<101 304 355 592 592 611.5> 432 107<479.5 569.5>
LayerCount: 2
Fore
SplineSet
50 0 m 1,0,-1
 44 39 l 1,1,2
 97 48 97 48 108.5 59 c 128,-1,3
 120 70 120 70 120 101 c 2,4,-1
 120 592 l 2,5,6
 120 623 120 623 108.5 634 c 128,-1,7
 97 645 97 645 44 654 c 1,8,-1
 50 693 l 1,9,-1
 328 693 l 2,10,11
 435 693 435 693 487 649 c 128,-1,12
 539 605 539 605 539 530 c 0,13,14
 539 455 539 455 498 399.5 c 128,-1,15
 457 344 457 344 383 319 c 1,16,-1
 383 314 l 1,17,18
 393 311 393 311 405 292 c 2,19,-1
 546 80 l 2,20,21
 561 58 561 58 575.5 50 c 128,-1,22
 590 42 590 42 628 39 c 1,23,-1
 622 0 l 1,24,-1
 480 0 l 1,25,-1
 282 304 l 1,26,-1
 217 304 l 1,27,-1
 217 77 l 2,28,29
 217 55 217 55 237 51 c 2,30,-1
 292 39 l 1,31,-1
 288 0 l 1,32,-1
 50 0 l 1,0,-1
217 355 m 1,33,-1
 272 355 l 2,34,35
 351 355 351 355 391.5 389.5 c 128,-1,36
 432 424 432 424 432 516 c 0,37,38
 432 640 432 640 297 640 c 2,39,-1
 237 640 l 2,40,41
 217 640 217 640 217 616 c 2,42,-1
 217 355 l 1,33,-1
EndSplineSet
Substitution2: "'c2sc' Capitals to Small Capitals in Latin lookup 4 subtable" R.sc
Position2: "'cpsp' Capital Spacing in Latin lookup 0 subtable" dx=25 dy=0 dh=25 dv=0
EndChar

StartChar: P
Encoding: 80 80 47
Width: 559
Flags: HMW
HStem: 0 21G<50 50 50 334> 268 53<217 261 261 269 217 261> 640 53<227.5 237 237 299>
VStem: 120 97<101 268 321 592 592 611.5> 434 107<440.5 552.5>
LayerCount: 2
Fore
SplineSet
50 0 m 1,0,-1
 44 39 l 1,1,2
 97 48 97 48 108.5 59 c 128,-1,3
 120 70 120 70 120 101 c 2,4,-1
 120 592 l 2,5,6
 120 623 120 623 108.5 634 c 128,-1,7
 97 645 97 645 44 654 c 1,8,-1
 50 693 l 1,9,-1
 329 693 l 2,10,11
 435 693 435 693 488 641.5 c 128,-1,12
 541 590 541 590 541 496 c 128,-1,13
 541 402 541 402 471.5 335 c 128,-1,14
 402 268 402 268 269 268 c 2,15,-1
 217 268 l 1,16,-1
 217 77 l 2,17,18
 217 53 217 53 237 51 c 2,19,-1
 338 39 l 1,20,-1
 334 0 l 1,21,-1
 50 0 l 1,0,-1
217 321 m 1,22,-1
 261 321 l 2,23,24
 326.764705882 321 326.764705882 321 376 352 c 0,25,26
 434 388.518518519 434 388.518518519 434 488 c 0,27,28
 434 580.272727273 434 580.272727273 386 613 c 0,29,30
 346.4 640 346.4 640 299 640 c 2,31,-1
 237 640 l 2,32,33
 217 640 217 640 217 616 c 2,34,-1
 217 321 l 1,22,-1
EndSplineSet
Substitution2: "'c2sc' Capitals to Small Capitals in Latin lookup 4 subtable" P.sc
Position2: "'cpsp' Capital Spacing in Latin lookup 0 subtable" dx=25 dy=0 dh=25 dv=0
EndChar

StartChar: K
Encoding: 75 75 48
Width: 652
Flags: HMW
HStem: 0 39<44 50 44 288> 653 40
VStem: 120 97<101 263 352 592 592 611.5>
LayerCount: 2
Fore
SplineSet
50 0 m 1,0,-1
 44 39 l 1,1,2
 97 48 97 48 108.5 59 c 128,-1,3
 120 70 120 70 120 101 c 2,4,-1
 120 592 l 2,5,6
 120 623 120 623 108.5 634 c 128,-1,7
 97 645 97 645 44 654 c 1,8,-1
 50 693 l 1,9,-1
 295 693 l 1,10,-1
 299 654 l 1,11,-1
 237 642 l 2,12,13
 217 638 217 638 217 616 c 2,14,-1
 217 352 l 1,15,-1
 458 608 l 2,16,17
 473 623 473 623 473 632 c 0,18,19
 473 650 473 650 397 653 c 1,20,-1
 403 693 l 1,21,-1
 615 693 l 1,22,-1
 619 651 l 1,23,24
 583 651 583 651 558 626 c 0,25,26
 555 623 555 623 548.5 616 c 128,-1,27
 542 609 542 609 541 608 c 2,28,-1
 319 372 l 1,29,-1
 560 80 l 2,30,31
 576 60 576 60 595.5 51 c 128,-1,32
 615 42 615 42 652 39 c 1,33,-1
 646 0 l 1,34,-1
 494 0 l 1,35,-1
 251 299 l 1,36,-1
 217 263 l 1,37,-1
 217 77 l 2,38,39
 217 55 217 55 237 51 c 2,40,-1
 292 39 l 1,41,-1
 288 0 l 1,42,-1
 50 0 l 1,0,-1
EndSplineSet
Substitution2: "'c2sc' Capitals to Small Capitals in Latin lookup 4 subtable" K.sc
Position2: "'cpsp' Capital Spacing in Latin lookup 0 subtable" dx=25 dy=0 dh=25 dv=0
EndChar

StartChar: Q
Encoding: 81 81 49
Width: 711
Flags: HMW
HStem: -152 78<589 601> -152 196<291 601> 649 53<272 420>
VStem: 35 111<267 429 267 446.5> 565 111<276 432>
LayerCount: 2
Fore
SplineSet
312 -7 m 0,0,1
 179 4 179 4 107 96 c 128,-1,2
 35 188 35 188 35 345.5 c 128,-1,3
 35 503 35 503 122 602.5 c 128,-1,4
 209 702 209 702 360.5 702 c 128,-1,5
 512 702 512 702 594 610.5 c 128,-1,6
 676 519 676 519 676 364 c 0,7,8
 676 231 676 231 621.5 138 c 128,-1,9
 567 45 567 45 467 10 c 1,10,-1
 467 6 l 1,11,12
 486 -1 486 -1 536 -37.5 c 128,-1,13
 586 -74 586 -74 609 -74 c 128,-1,14
 632 -74 632 -74 671 -59 c 1,15,-1
 694 -95 l 1,16,17
 672 -113 672 -113 658.5 -122.5 c 0,18,19
 616.578947368 -152 616.578947368 -152 580.789473684 -152 c 128,-1,20
 545 -152 545 -152 509.5 -130.5 c 128,-1,21
 474 -109 474 -109 447.5 -83 c 128,-1,22
 421 -57 421 -57 384 -33.5 c 128,-1,23
 347 -10 347 -10 312 -7 c 0,0,1
364 44 m 0,24,25
 418 44 418 44 458.5 69 c 128,-1,26
 499 94 499 94 521.5 138 c 0,27,28
 565 223.066666667 565 223.066666667 565 352.033333333 c 128,-1,29
 565 481 565 481 508.5 565 c 128,-1,30
 452 649 452 649 347 649 c 0,31,32
 293 649 293 649 252.5 624.5 c 128,-1,33
 212 600 212 600 189.5 557 c 0,34,35
 146 473.866666667 146 473.866666667 146 345.433333333 c 128,-1,36
 146 217 146 217 202 130.5 c 128,-1,37
 258 44 258 44 364 44 c 0,24,25
EndSplineSet
Substitution2: "'c2sc' Capitals to Small Capitals in Latin lookup 4 subtable" Q.sc
Position2: "'cpsp' Capital Spacing in Latin lookup 0 subtable" dx=25 dy=0 dh=25 dv=0
EndChar

StartChar: acute
Encoding: 180 180 50
Width: 198
Flags: HMW
HStem: 561 21G<47 47> 745 20G<119 119>
LayerCount: 2
Fore
SplineSet
199 735 m 1,0,-1
 199 712 l 1,1,-1
 47 561 l 1,2,-1
 12 586 l 1,3,-1
 119 765 l 1,4,-1
 199 735 l 1,0,-1
EndSplineSet
EndChar

StartChar: aacute
Encoding: 225 225 52
Width: 512
Flags: HMW
HStem: -9 68<188 205.5> -3 21G<347.5 354> 229 44<314 314> 435 53<216 256> 745 20G<296 296>
VStem: 42 97<107 167 107 171.5> 314 90<131 229 229 229 273 305 305 329>
LayerCount: 2
Fore
SplineSet
42 123 m 0,0,1
 42 198 42 198 106 235 c 128,-1,2
 170 272 170 272 314 273 c 1,3,-1
 314 305 l 2,4,5
 314 435 314 435 220 435 c 0,6,7
 175 435 175 435 163.5 422 c 0,8,9
 152 409 152 409 139 337 c 1,10,-1
 85 343 l 1,11,12
 77 374 77 374 77 407.5 c 0,13,14
 77 441 77 441 78 451 c 1,15,16
 137 488 137 488 233 488 c 0,17,18
 329 488 329 488 366.5 451 c 128,-1,19
 404 414 404 414 404 329 c 2,20,-1
 404 99 l 2,21,22
 404 73 404 73 416.5 62.5 c 128,-1,23
 429 52 429 52 480 42 c 1,24,-1
 474 10 l 1,25,-1
 354 -3 l 1,26,27
 344 -3 344 -3 333 16 c 128,-1,28
 322 35 322 35 322 51.5 c 0,29,30
 322 68 322 68 323 76 c 1,31,-1
 315 79 l 1,32,-1
 303 61 l 2,33,34
 256 -9 256 -9 174 -9 c 0,35,36
 118 -9 118 -9 80 26 c 128,-1,37
 42 61 42 61 42 123 c 0,0,1
139 132 m 0,38,39
 139 96 139 96 158 77.5 c 128,-1,40
 177 59 177 59 212 59 c 0,41,42
 247 59 247 59 291 93 c 0,43,44
 314 111 314 111 314 131 c 2,45,-1
 314 229 l 1,46,47
 224 227 224 227 181.5 205 c 128,-1,48
 139 183 139 183 139 132 c 0,38,39
376 735 m 1,49,-1
 376 712 l 1,50,-1
 224 561 l 1,51,-1
 189 586 l 1,52,-1
 296 765 l 1,53,-1
 376 735 l 1,49,-1
EndSplineSet
Substitution2: "'smcp' Lowercase to Small Capitals in Latin lookup 5 subtable" Aacute.sc
EndChar

StartChar: uacute
Encoding: 250 250 54
Width: 577
Flags: HMW
HStem: -9 72<227 258.5> 463 20G<159 171 455 467> 745 20G<342 342>
VStem: 92 90<141.5 167 167 388 388 402.5> 388 90<148 388 388 402.5>
LayerCount: 2
Fore
SplineSet
92 124 m 2,0,-1
 92 388 l 2,1,2
 92 409 92 409 76 418.5 c 128,-1,3
 60 428 60 428 16 437 c 1,4,-1
 22 469 l 1,5,6
 129 483 129 483 171 483 c 1,7,-1
 182 473 l 1,8,-1
 182 167 l 2,9,10
 182 63 182 63 261 63 c 0,11,12
 312 63 312 63 367 102 c 0,13,14
 380 111 380 111 384 119.5 c 128,-1,15
 388 128 388 128 388 148 c 2,16,-1
 388 388 l 2,17,18
 388 409 388 409 372 418.5 c 128,-1,19
 356 428 356 428 312 437 c 1,20,-1
 318 469 l 1,21,22
 425 483 425 483 467 483 c 1,23,-1
 478 473 l 1,24,-1
 478 99 l 2,25,26
 478 73 478 73 490.5 62.5 c 128,-1,27
 503 52 503 52 554 42 c 1,28,-1
 548 10 l 1,29,-1
 419 -4 l 2,30,31
 412 -5 412 -5 404.5 22.5 c 128,-1,32
 397 50 397 50 397 70 c 2,33,-1
 397 76 l 1,34,-1
 389 79 l 1,35,-1
 377 65 l 2,36,37
 314 -9 314 -9 223 -9 c 0,38,39
 162 -9 162 -9 127 23.5 c 128,-1,40
 92 56 92 56 92 124 c 2,0,-1
422 735 m 1,41,-1
 422 712 l 1,42,-1
 270 561 l 1,43,-1
 235 586 l 1,44,-1
 342 765 l 1,45,-1
 422 735 l 1,41,-1
EndSplineSet
Substitution2: "'smcp' Lowercase to Small Capitals in Latin lookup 5 subtable" Uacute.sc
EndChar

StartChar: iacute
Encoding: 237 237 56
Width: 310
Flags: HMW
HStem: 0 21G<47 47 47 266> 458 20G<178 190> 745 20G<208 208>
VStem: 111 90<96 383 383 397.5>
LayerCount: 2
Fore
SplineSet
288 735 m 1,0,-1
 288 712 l 1,1,-1
 136 561 l 1,2,-1
 101 586 l 1,3,-1
 208 765 l 1,4,-1
 288 735 l 1,0,-1
47 0 m 1,5,-1
 41 39 l 1,6,7
 90 49 90 49 100.5 59.5 c 128,-1,8
 111 70 111 70 111 96 c 2,9,-1
 111 383 l 2,10,11
 111 404 111 404 95 413.5 c 128,-1,12
 79 423 79 423 35 432 c 1,13,-1
 41 464 l 1,14,15
 148 478 148 478 190 478 c 1,16,-1
 201 468 l 1,17,-1
 201 72 l 2,18,19
 201 60.3333333333 201 60.3333333333 206.5 56.6666666667 c 128,-1,20
 212 53 212 53 221 51 c 2,21,-1
 270 39 l 1,22,-1
 266 0 l 1,23,-1
 47 0 l 1,5,-1
EndSplineSet
Substitution2: "'smcp' Lowercase to Small Capitals in Latin lookup 5 subtable" Iacute.sc
EndChar

StartChar: grave
Encoding: 96 96 57
Width: 202
Flags: HMW
HStem: 561 21G<152 152> 745 20G<80 80>
LayerCount: 2
Fore
SplineSet
0 712 m 1,0,-1
 0 735 l 1,1,-1
 80 765 l 1,2,-1
 187 586 l 1,3,-1
 152 561 l 1,4,-1
 0 712 l 1,0,-1
EndSplineSet
EndChar

StartChar: igrave
Encoding: 236 236 59
Width: 310
Flags: HMW
HStem: 0 21G<47 47 47 266> 458 20G<178 190> 745 20G<96 96>
VStem: 111 90<96 383 383 397.5>
LayerCount: 2
Fore
SplineSet
16 712 m 1,0,-1
 16 735 l 1,1,-1
 96 765 l 1,2,-1
 203 586 l 1,3,-1
 168 561 l 1,4,-1
 16 712 l 1,0,-1
47 0 m 1,5,-1
 41 39 l 1,6,7
 90 49 90 49 100.5 59.5 c 128,-1,8
 111 70 111 70 111 96 c 2,9,-1
 111 383 l 2,10,11
 111 404 111 404 95 413.5 c 128,-1,12
 79 423 79 423 35 432 c 1,13,-1
 41 464 l 1,14,15
 148 478 148 478 190 478 c 1,16,-1
 201 468 l 1,17,-1
 201 72 l 2,18,19
 201 60.3333333333 201 60.3333333333 206.5 56.6666666667 c 128,-1,20
 212 53 212 53 221 51 c 2,21,-1
 270 39 l 1,22,-1
 266 0 l 1,23,-1
 47 0 l 1,5,-1
EndSplineSet
Substitution2: "'smcp' Lowercase to Small Capitals in Latin lookup 5 subtable" Igrave.sc
EndChar

StartChar: ograve
Encoding: 242 242 60
Width: 520
Flags: HMW
HStem: -9 53<221.5 282.5 221.5 329> 435 53<237.5 298.5> 745 20G<208 208>
VStem: 32 97<190.5 281.5 190.5 308.5> 391 97<197.5 288.5>
LayerCount: 2
Fore
SplineSet
90 55 m 128,-1,1
 32 119 32 119 32 234 c 128,-1,2
 32 349 32 349 93.5 418.5 c 128,-1,3
 155 488 155 488 263.5 488 c 128,-1,4
 372 488 372 488 430 423.5 c 128,-1,5
 488 359 488 359 488 244 c 128,-1,6
 488 129 488 129 426.5 60 c 128,-1,7
 365 -9 365 -9 256.5 -9 c 128,-1,0
 148 -9 148 -9 90 55 c 128,-1,1
165 101 m 128,-1,9
 201 44 201 44 263 44 c 128,-1,10
 325 44 325 44 351 74 c 0,11,12
 369 94 369 94 380 137.5 c 128,-1,13
 391 181 391 181 391 232 c 0,14,15
 391 321 391 321 355 378 c 128,-1,16
 319 435 319 435 257 435 c 128,-1,17
 195 435 195 435 169 405 c 0,18,19
 151 385 151 385 140 341.5 c 128,-1,20
 129 298 129 298 129 247 c 0,21,8
 129 158 129 158 165 101 c 128,-1,9
128 712 m 1,22,-1
 128 735 l 1,23,-1
 208 765 l 1,24,-1
 315 586 l 1,25,-1
 280 561 l 1,26,-1
 128 712 l 1,22,-1
EndSplineSet
Substitution2: "'smcp' Lowercase to Small Capitals in Latin lookup 5 subtable" Ograve.sc
EndChar

StartChar: dieresis
Encoding: 168 168 62
Width: 308
Flags: HMW
HStem: 600 110<42 71.5 41 73 235 264.5>
VStem: 5 105<641 670> 198 105<641 670>
LayerCount: 2
Fore
SplineSet
250 600 m 0,0,1
 198 600 198 600 198 656 c 0,2,3
 198 678 198 678 212.5 694 c 128,-1,4
 227 710 227 710 250 710 c 0,5,6
 303 710 303 710 303 656 c 0,7,8
 303 633 303 633 288 616.5 c 128,-1,9
 273 600 273 600 250 600 c 0,0,1
57 600 m 0,10,11
 5 600 5 600 5 656 c 0,12,13
 5 678 5 678 19.5 694 c 128,-1,14
 34 710 34 710 57 710 c 0,15,16
 110 710 110 710 110 656 c 0,17,18
 110 633 110 633 95 616.5 c 128,-1,19
 80 600 80 600 57 600 c 0,10,11
EndSplineSet
EndChar

StartChar: udieresis
Encoding: 252 252 63
Width: 577
Flags: HMW
HStem: -9 72<227 258.5> 463 20G<159 171 455 467> 600 110<161 190.5 160 192 354 383.5>
VStem: 92 90<141.5 167 167 388 388 402.5> 124 105<641 670> 317 105<641 670> 388 90<148 388 388 402.5>
LayerCount: 2
Fore
SplineSet
92 124 m 2,0,-1
 92 388 l 2,1,2
 92 409 92 409 76 418.5 c 128,-1,3
 60 428 60 428 16 437 c 1,4,-1
 22 469 l 1,5,6
 129 483 129 483 171 483 c 1,7,-1
 182 473 l 1,8,-1
 182 167 l 2,9,10
 182 63 182 63 261 63 c 0,11,12
 312 63 312 63 367 102 c 0,13,14
 380 111 380 111 384 119.5 c 128,-1,15
 388 128 388 128 388 148 c 2,16,-1
 388 388 l 2,17,18
 388 409 388 409 372 418.5 c 128,-1,19
 356 428 356 428 312 437 c 1,20,-1
 318 469 l 1,21,22
 425 483 425 483 467 483 c 1,23,-1
 478 473 l 1,24,-1
 478 99 l 2,25,26
 478 73 478 73 490.5 62.5 c 128,-1,27
 503 52 503 52 554 42 c 1,28,-1
 548 10 l 1,29,-1
 419 -4 l 2,30,31
 412 -5 412 -5 404.5 22.5 c 128,-1,32
 397 50 397 50 397 70 c 2,33,-1
 397 76 l 1,34,-1
 389 79 l 1,35,-1
 377 65 l 2,36,37
 314 -9 314 -9 223 -9 c 0,38,39
 162 -9 162 -9 127 23.5 c 128,-1,40
 92 56 92 56 92 124 c 2,0,-1
369 600 m 0,41,42
 317 600 317 600 317 656 c 0,43,44
 317 678 317 678 331.5 694 c 128,-1,45
 346 710 346 710 369 710 c 0,46,47
 422 710 422 710 422 656 c 0,48,49
 422 633 422 633 407 616.5 c 128,-1,50
 392 600 392 600 369 600 c 0,41,42
176 600 m 0,51,52
 124 600 124 600 124 656 c 0,53,54
 124 678 124 678 138.5 694 c 128,-1,55
 153 710 153 710 176 710 c 0,56,57
 229 710 229 710 229 656 c 0,58,59
 229 633 229 633 214 616.5 c 128,-1,60
 199 600 199 600 176 600 c 0,51,52
EndSplineSet
Substitution2: "'smcp' Lowercase to Small Capitals in Latin lookup 5 subtable" Udieresis.sc
EndChar

StartChar: adieresis
Encoding: 228 228 65
Width: 512
Flags: HMW
HStem: -9 68<188 205.5> -3 21G<347.5 354> 229 44<314 314> 435 53<216 256> 600 110<128 157.5 127 159 321 350.5>
VStem: 42 97<107 167 107 171.5> 91 105<641 670> 284 105<641 670> 314 90<131 229 229 229 273 305 305 329>
LayerCount: 2
Fore
SplineSet
42 123 m 0,0,1
 42 198 42 198 106 235 c 128,-1,2
 170 272 170 272 314 273 c 1,3,-1
 314 305 l 2,4,5
 314 435 314 435 220 435 c 0,6,7
 175 435 175 435 163.5 422 c 0,8,9
 152 409 152 409 139 337 c 1,10,-1
 85 343 l 1,11,12
 77 374 77 374 77 407.5 c 0,13,14
 77 441 77 441 78 451 c 1,15,16
 137 488 137 488 233 488 c 0,17,18
 329 488 329 488 366.5 451 c 128,-1,19
 404 414 404 414 404 329 c 2,20,-1
 404 99 l 2,21,22
 404 73 404 73 416.5 62.5 c 128,-1,23
 429 52 429 52 480 42 c 1,24,-1
 474 10 l 1,25,-1
 354 -3 l 1,26,27
 344 -3 344 -3 333 16 c 128,-1,28
 322 35 322 35 322 51.5 c 0,29,30
 322 68 322 68 323 76 c 1,31,-1
 315 79 l 1,32,-1
 303 61 l 2,33,34
 256 -9 256 -9 174 -9 c 0,35,36
 118 -9 118 -9 80 26 c 128,-1,37
 42 61 42 61 42 123 c 0,0,1
139 132 m 0,38,39
 139 96 139 96 158 77.5 c 128,-1,40
 177 59 177 59 212 59 c 0,41,42
 247 59 247 59 291 93 c 0,43,44
 314 111 314 111 314 131 c 2,45,-1
 314 229 l 1,46,47
 224 227 224 227 181.5 205 c 128,-1,48
 139 183 139 183 139 132 c 0,38,39
336 600 m 0,49,50
 284 600 284 600 284 656 c 0,51,52
 284 678 284 678 298.5 694 c 128,-1,53
 313 710 313 710 336 710 c 0,54,55
 389 710 389 710 389 656 c 0,56,57
 389 633 389 633 374 616.5 c 128,-1,58
 359 600 359 600 336 600 c 0,49,50
143 600 m 0,59,60
 91 600 91 600 91 656 c 0,61,62
 91 678 91 678 105.5 694 c 128,-1,63
 120 710 120 710 143 710 c 0,64,65
 196 710 196 710 196 656 c 0,66,67
 196 633 196 633 181 616.5 c 128,-1,68
 166 600 166 600 143 600 c 0,59,60
EndSplineSet
Substitution2: "'smcp' Lowercase to Small Capitals in Latin lookup 5 subtable" Adieresis.sc
EndChar

StartChar: idieresis
Encoding: 239 239 67
Width: 310
Flags: HMW
HStem: 0 21G<47 47 47 266> 458 20G<178 190> 600 110<34 63.5 33 65 227 256.5>
VStem: -3 105<641 670> 111 90<96 383 383 397.5> 190 105<641 670>
LayerCount: 2
Fore
SplineSet
242 600 m 0,0,1
 190 600 190 600 190 656 c 0,2,3
 190 678 190 678 204.5 694 c 128,-1,4
 219 710 219 710 242 710 c 0,5,6
 295 710 295 710 295 656 c 0,7,8
 295 633 295 633 280 616.5 c 128,-1,9
 265 600 265 600 242 600 c 0,0,1
49 600 m 0,10,11
 -3 600 -3 600 -3 656 c 0,12,13
 -3 678 -3 678 11.5 694 c 128,-1,14
 26 710 26 710 49 710 c 0,15,16
 102 710 102 710 102 656 c 0,17,18
 102 633 102 633 87 616.5 c 128,-1,19
 72 600 72 600 49 600 c 0,10,11
47 0 m 1,20,-1
 41 39 l 1,21,22
 90 49 90 49 100.5 59.5 c 128,-1,23
 111 70 111 70 111 96 c 2,24,-1
 111 383 l 2,25,26
 111 404 111 404 95 413.5 c 128,-1,27
 79 423 79 423 35 432 c 1,28,-1
 41 464 l 1,29,30
 148 478 148 478 190 478 c 1,31,-1
 201 468 l 1,32,-1
 201 72 l 2,33,34
 201 60.3333333333 201 60.3333333333 206.5 56.6666666667 c 128,-1,35
 212 53 212 53 221 51 c 2,36,-1
 270 39 l 1,37,-1
 266 0 l 1,38,-1
 47 0 l 1,20,-1
EndSplineSet
Substitution2: "'smcp' Lowercase to Small Capitals in Latin lookup 5 subtable" Idieresis.sc
EndChar

StartChar: ydieresis
Encoding: 255 255 68
Width: 500
Flags: HMW
HStem: -219 21G -140 20G<81.5 106> 473 127<153 184 153 216 153 216 346 377> 600 110<153 182.5 152 184 346 375.5>
VStem: 116 105<641 670> 309 105<641 670>
LayerCount: 2
Fore
SplineSet
29 -117 m 1,0,1
 53 -120 53 -120 95.5 -120 c 128,-1,2
 138 -120 138 -120 163 -109.5 c 128,-1,3
 188 -99 188 -99 223 0 c 1,4,-1
 57 398 l 2,5,6
 49 417 49 417 42.5 422 c 128,-1,7
 36 427 36 427 4 434 c 1,8,-1
 10 473 l 1,9,-1
 216 473 l 1,10,-1
 220 434 l 1,11,-1
 159 419 l 2,12,13
 152 418 152 418 152 411 c 0,14,15
 152 410 152 410 156 398 c 2,16,-1
 258 131 l 2,17,18
 263 117 263 117 263 100 c 1,19,-1
 271 100 l 1,20,-1
 377 375 l 2,21,22
 383 391 383 391 383 401.5 c 128,-1,23
 383 412 383 412 368.5 419 c 128,-1,24
 354 426 354 426 317 434 c 1,25,-1
 323 473 l 1,26,-1
 501 473 l 1,27,-1
 505 434 l 1,28,29
 461 424 461 424 458 417 c 2,30,-1
 300 25 l 2,31,32
 280 -25 280 -25 268 -51.5 c 128,-1,33
 256 -78 256 -78 235 -111 c 128,-1,34
 214 -144 214 -144 191 -161.5 c 0,35,36
 133.925925926 -204.925925926 133.925925926 -204.925925926 53 -219 c 1,37,38
 27 -193 27 -193 27 -137 c 0,39,40
 27 -131 27 -131 29 -117 c 1,0,1
361 600 m 0,41,42
 309 600 309 600 309 656 c 0,43,44
 309 678 309 678 323.5 694 c 128,-1,45
 338 710 338 710 361 710 c 0,46,47
 414 710 414 710 414 656 c 0,48,49
 414 633 414 633 399 616.5 c 128,-1,50
 384 600 384 600 361 600 c 0,41,42
168 600 m 0,51,52
 116 600 116 600 116 656 c 0,53,54
 116 678 116 678 130.5 694 c 128,-1,55
 145 710 145 710 168 710 c 0,56,57
 221 710 221 710 221 656 c 0,58,59
 221 633 221 633 206 616.5 c 128,-1,60
 191 600 191 600 168 600 c 0,51,52
EndSplineSet
Substitution2: "'smcp' Lowercase to Small Capitals in Latin lookup 5 subtable" Ydieresis.sc
EndChar

StartChar: W
Encoding: 87 87 69
Width: 930
Flags: HMW
HStem: -9 21G<272 343 272 272 591 663 591 591> 673 20G<3 226 226 226 356 567 567 567 728 933 933 933>
LayerCount: 2
Fore
SplineSet
591 -9 m 1,0,-1
 483 355 l 2,1,2
 478 370 478 370 478 381 c 1,3,-1
 470 381 l 1,4,5
 470 370 470 370 464 355 c 2,6,-1
 343 -9 l 1,7,-1
 272 -9 l 1,8,-1
 63 610 l 2,9,10
 56 631 56 631 45 637.5 c 128,-1,11
 34 644 34 644 -4 653 c 1,12,-1
 3 693 l 1,13,-1
 226 693 l 1,14,-1
 230 652 l 1,15,-1
 174 633 l 1,16,17
 167 632 167 632 167 627.5 c 128,-1,18
 167 623 167 623 171 611 c 2,19,-1
 310 162 l 2,20,21
 319 130 319 130 319 128 c 1,22,-1
 329 128 l 1,23,-1
 444 492 l 1,24,-1
 409 610 l 2,25,26
 406 622 406 622 402.5 628 c 128,-1,27
 399 634 399 634 389.5 639 c 0,28,29
 377.849056604 645.132075472 377.849056604 645.132075472 349 653 c 1,30,-1
 356 693 l 1,31,-1
 567 693 l 1,32,-1
 571 652 l 1,33,-1
 500 633 l 2,34,35
 493 632 493 632 493 627.5 c 128,-1,36
 493 623 493 623 497 611 c 2,37,-1
 629 162 l 2,38,39
 638 131 638 131 638 128 c 1,40,-1
 648 128 l 1,41,-1
 788 569 l 2,42,43
 799 606 799 606 799 618 c 0,44,45
 799 640 799 640 722 653 c 1,46,-1
 728 693 l 1,47,-1
 933 693 l 1,48,-1
 937 651 l 1,49,50
 896 642 896 642 884 632 c 128,-1,51
 872 622 872 622 863 595 c 2,52,-1
 663 -9 l 1,53,-1
 591 -9 l 1,0,-1
EndSplineSet
Substitution2: "'c2sc' Capitals to Small Capitals in Latin lookup 4 subtable" W.sc
Position2: "'cpsp' Capital Spacing in Latin lookup 0 subtable" dx=25 dy=0 dh=25 dv=0
EndChar

StartChar: X
Encoding: 88 88 70
Width: 639
Flags: HMW
HStem: 0 21G<21 21 21 215 394 394 394 635> 673 20G<31 269 269 269 421 616 616 616>
LayerCount: 2
Fore
SplineSet
21 0 m 1,0,-1
 14 40 l 1,1,2
 55 51 55 51 68.5 57 c 128,-1,3
 82 63 82 63 94 81 c 2,4,-1
 271 341 l 1,5,-1
 92 610 l 2,6,7
 78 631 78 631 67.5 638 c 128,-1,8
 57 645 57 645 24 653 c 1,9,-1
 31 693 l 1,10,-1
 269 693 l 1,11,-1
 273 652 l 1,12,-1
 206 634 l 2,13,14
 199 633 199 633 199 626.5 c 128,-1,15
 199 620 199 620 206 611 c 2,16,-1
 320 441 l 2,17,18
 330 426 330 426 330 414 c 1,19,-1
 340 414 l 1,20,-1
 451 576 l 2,21,22
 476 611 476 611 476 622 c 128,-1,23
 476 633 476 633 463 639 c 128,-1,24
 450 645 450 645 415 653 c 1,25,-1
 421 693 l 1,26,-1
 616 693 l 1,27,-1
 620 651 l 1,28,29
 608 648 608 648 599 646 c 128,-1,30
 590 644 590 644 582.5 640.5 c 128,-1,31
 575 637 575 637 571 635.5 c 128,-1,32
 567 634 567 634 562 628 c 128,-1,33
 557 622 557 622 555.5 620.5 c 128,-1,34
 554 619 554 619 548.5 610.5 c 128,-1,35
 543 602 543 602 541 599 c 2,36,-1
 376 358 l 1,37,-1
 571 68 l 2,38,39
 582 53 582 53 639 42 c 1,40,-1
 635 0 l 1,41,-1
 394 0 l 1,42,-1
 388 40 l 1,43,44
 434.07518797 48.6390977444 434.07518797 48.6390977444 440.537593985 55.8195488722 c 128,-1,45
 447 63 447 63 447 71 c 128,-1,46
 447 79 447 79 440 90 c 2,47,-1
 328 256 l 2,48,49
 318 271 318 271 318 286 c 1,50,-1
 308 286 l 1,51,-1
 170 84 l 2,52,53
 162 73 162 73 162 65.5 c 128,-1,54
 162 58 162 58 172 55 c 2,55,-1
 219 41 l 1,56,-1
 215 0 l 1,57,-1
 21 0 l 1,0,-1
EndSplineSet
Substitution2: "'c2sc' Capitals to Small Capitals in Latin lookup 4 subtable" X.sc
Position2: "'cpsp' Capital Spacing in Latin lookup 0 subtable" dx=25 dy=0 dh=25 dv=0
EndChar

StartChar: fi
Encoding: 64257 64257 71
Width: 660
Flags: HMW
HStem: 0 21G<51 288 51 51 397 616 397 397> 423 50<377 380.5> 458 20G<528 540> 719 53<290 347.5>
VStem: 115 90<96 405 405 405> 461 90<96 383 383 397.5>
LayerCount: 2
Fore
SplineSet
397 0 m 1,0,-1
 391 39 l 1,1,2
 440 49 440 49 450.5 59.5 c 128,-1,3
 461 70 461 70 461 96 c 2,4,-1
 461 383 l 2,5,6
 461 405 461 405 444.5 414 c 128,-1,7
 428 423 428 423 383.5 423 c 128,-1,8
 339 423 339 423 205 411 c 1,9,-1
 205 72 l 2,10,11
 205 62 205 62 209 57.5 c 128,-1,12
 213 53 213 53 227 51 c 2,13,-1
 292 39 l 1,14,-1
 288 0 l 1,15,-1
 51 0 l 1,16,-1
 45 39 l 1,17,18
 94 49 94 49 104.5 59.5 c 128,-1,19
 115 70 115 70 115 96 c 2,20,-1
 115 405 l 1,21,-1
 50 405 l 1,22,-1
 46 448 l 1,23,-1
 95 460 l 2,24,25
 108 463 108 463 112 471 c 128,-1,26
 116 479 116 479 117 496 c 128,-1,27
 118 513 118 513 120.5 530 c 128,-1,28
 123 547 123 547 130.5 576.5 c 128,-1,29
 138 606 138 606 148.5 630.5 c 128,-1,30
 159 655 159 655 178 682 c 128,-1,31
 197 709 197 709 221.5 728 c 0,32,33
 278.236842105 772 278.236842105 772 363 772 c 0,34,35
 424 772 424 772 498 750 c 1,36,37
 498 682 498 682 481 629 c 1,38,-1
 427 623 l 1,39,40
 411.92 704.432 411.92 704.432 403 708 c 0,41,42
 381 719 381 719 337 719 c 0,43,44
 271 719 271 719 238 647 c 128,-1,45
 205 575 205 575 205 473 c 1,46,-1
 323 473 l 2,47,48
 392 473 392 473 465.5 475.5 c 128,-1,49
 539 478 539 478 540 478 c 2,50,-1
 551 468 l 1,51,-1
 551 72 l 2,52,53
 551 60.3333333333 551 60.3333333333 556.5 56.6666666667 c 128,-1,54
 562 53 562 53 571 51 c 2,55,-1
 620 39 l 1,56,-1
 616 0 l 1,57,-1
 397 0 l 1,0,-1
EndSplineSet
Ligature2: "'liga' Standard Ligatures in Latin lookup 13 subtable" f i
EndChar

StartChar: fl
Encoding: 64258 64258 72
Width: 653
Flags: HMW
HStem: 0 21G<51 288 51 51 390 609 390 390> 722 50<314.5 378>
VStem: 115 90<96 404> 454 90<96 677 677 685>
LayerCount: 2
Fore
SplineSet
454 677 m 2,0,1
 454 722 454 722 371 722 c 128,-1,2
 288 722 288 722 246.5 654.5 c 128,-1,3
 205 587 205 587 205 466 c 1,4,-1
 323 466 l 1,5,-1
 315 419 l 1,6,-1
 205 404 l 1,7,-1
 205 72 l 2,8,9
 205 62 205 62 209 57.5 c 128,-1,10
 213 53 213 53 227 51 c 2,11,-1
 292 39 l 1,12,-1
 288 0 l 1,13,-1
 51 0 l 1,14,-1
 45 39 l 1,15,16
 94 49 94 49 104.5 59.5 c 128,-1,17
 115 70 115 70 115 96 c 2,18,-1
 115 405 l 1,19,-1
 50 405 l 1,20,-1
 46 448 l 1,21,-1
 95 460 l 2,22,23
 108 463 108 463 112 471 c 128,-1,24
 116 479 116 479 119 514.5 c 128,-1,25
 122 550 122 550 137 595.5 c 128,-1,26
 152 641 152 641 183 682.5 c 128,-1,27
 214 724 214 724 270.5 748 c 128,-1,28
 327 772 327 772 398 772 c 128,-1,29
 469 772 469 772 527 763 c 1,30,-1
 544 737 l 1,31,-1
 544 72 l 2,32,33
 544 60.5 544 60.5 549 56.75 c 128,-1,34
 554 53 554 53 564 51 c 2,35,-1
 613 39 l 1,36,-1
 609 0 l 1,37,-1
 390 0 l 1,38,-1
 384 39 l 1,39,40
 433 49 433 49 443.5 59.5 c 128,-1,41
 454 70 454 70 454 96 c 2,42,-1
 454 677 l 2,0,1
EndSplineSet
Ligature2: "'liga' Standard Ligatures in Latin lookup 13 subtable" f l
EndChar

StartChar: circumflex
Encoding: 710 710 73
Width: 299
Flags: HMW
HStem: 561 21G<35 35 264 264> 735 20G<118 181 181 181>
LayerCount: 2
Fore
SplineSet
181 755 m 1,0,-1
 299 586 l 1,1,-1
 264 561 l 1,2,-1
 149 679 l 1,3,-1
 35 561 l 1,4,-1
 0 586 l 1,5,-1
 118 755 l 1,6,-1
 181 755 l 1,0,-1
EndSplineSet
EndChar

StartChar: ecircumflex
Encoding: 234 234 75
Width: 478
Flags: HMW
HStem: -9 68<244 288.5> 252 236 435 53<206 288> 735 20G<214 277 277 277>
VStem: 34 95<172 244 172 301.5> 349 96<279 350.5>
LayerCount: 2
Fore
SplineSet
89.5 60 m 128,-1,1
 34 129 34 129 34 234.5 c 128,-1,2
 34 340 34 340 98 414 c 128,-1,3
 162 488 162 488 267 488 c 0,4,5
 437 488 437 488 445 279 c 1,6,-1
 419 260 l 1,7,-1
 129 244 l 1,8,9
 129 59 129 59 287 59 c 0,10,11
 356 59 356 59 422 93 c 1,12,-1
 443 60 l 1,13,14
 410 33 410 33 357 12 c 128,-1,15
 304 -9 304 -9 246 -9 c 0,16,0
 145 -9 145 -9 89.5 60 c 128,-1,1
132 290 m 1,17,-1
 339 308 l 2,18,19
 349 309 349 309 349 327 c 0,20,21
 349 371 349 371 325.5 403 c 128,-1,22
 302 435 302 435 246 435 c 128,-1,23
 190 435 190 435 164.5 397.5 c 128,-1,24
 139 360 139 360 132 290 c 1,17,-1
277 755 m 1,25,-1
 395 586 l 1,26,-1
 360 561 l 1,27,-1
 245 679 l 1,28,-1
 131 561 l 1,29,-1
 96 586 l 1,30,-1
 214 755 l 1,31,-1
 277 755 l 1,25,-1
EndSplineSet
Substitution2: "'smcp' Lowercase to Small Capitals in Latin lookup 5 subtable" Ecircumflex.sc
EndChar

StartChar: ucircumflex
Encoding: 251 251 77
Width: 577
Flags: HMW
HStem: -9 72<227 258.5> 463 20G<159 171 455 467> 735 20G<243 306 306 306>
VStem: 92 90<141.5 167 167 388 388 402.5> 388 90<148 388 388 402.5>
LayerCount: 2
Fore
SplineSet
92 124 m 2,0,-1
 92 388 l 2,1,2
 92 409 92 409 76 418.5 c 128,-1,3
 60 428 60 428 16 437 c 1,4,-1
 22 469 l 1,5,6
 129 483 129 483 171 483 c 1,7,-1
 182 473 l 1,8,-1
 182 167 l 2,9,10
 182 63 182 63 261 63 c 0,11,12
 312 63 312 63 367 102 c 0,13,14
 380 111 380 111 384 119.5 c 128,-1,15
 388 128 388 128 388 148 c 2,16,-1
 388 388 l 2,17,18
 388 409 388 409 372 418.5 c 128,-1,19
 356 428 356 428 312 437 c 1,20,-1
 318 469 l 1,21,22
 425 483 425 483 467 483 c 1,23,-1
 478 473 l 1,24,-1
 478 99 l 2,25,26
 478 73 478 73 490.5 62.5 c 128,-1,27
 503 52 503 52 554 42 c 1,28,-1
 548 10 l 1,29,-1
 419 -4 l 2,30,31
 412 -5 412 -5 404.5 22.5 c 128,-1,32
 397 50 397 50 397 70 c 2,33,-1
 397 76 l 1,34,-1
 389 79 l 1,35,-1
 377 65 l 2,36,37
 314 -9 314 -9 223 -9 c 0,38,39
 162 -9 162 -9 127 23.5 c 128,-1,40
 92 56 92 56 92 124 c 2,0,-1
306 755 m 1,41,-1
 424 586 l 1,42,-1
 389 561 l 1,43,-1
 274 679 l 1,44,-1
 160 561 l 1,45,-1
 125 586 l 1,46,-1
 243 755 l 1,47,-1
 306 755 l 1,41,-1
EndSplineSet
Substitution2: "'smcp' Lowercase to Small Capitals in Latin lookup 5 subtable" Ucircumflex.sc
EndChar

StartChar: icircumflex
Encoding: 238 238 78
Width: 310
Flags: HMW
HStem: 0 21G<47 47 47 266> 458 20G<178 190> 735 20G<113 176 176 176>
VStem: 111 90<96 383 383 397.5>
LayerCount: 2
Fore
SplineSet
176 755 m 1,0,-1
 294 586 l 1,1,-1
 259 561 l 1,2,-1
 144 679 l 1,3,-1
 30 561 l 1,4,-1
 -5 586 l 1,5,-1
 113 755 l 1,6,-1
 176 755 l 1,0,-1
47 0 m 1,7,-1
 41 39 l 1,8,9
 90 49 90 49 100.5 59.5 c 128,-1,10
 111 70 111 70 111 96 c 2,11,-1
 111 383 l 2,12,13
 111 404 111 404 95 413.5 c 128,-1,14
 79 423 79 423 35 432 c 1,15,-1
 41 464 l 1,16,17
 148 478 148 478 190 478 c 1,18,-1
 201 468 l 1,19,-1
 201 72 l 2,20,21
 201 60.3333333333 201 60.3333333333 206.5 56.6666666667 c 128,-1,22
 212 53 212 53 221 51 c 2,23,-1
 270 39 l 1,24,-1
 266 0 l 1,25,-1
 47 0 l 1,7,-1
EndSplineSet
Substitution2: "'smcp' Lowercase to Small Capitals in Latin lookup 5 subtable" Icircumflex.sc
EndChar

StartChar: period
Encoding: 46 46 79
Width: 252
Flags: HMW
HStem: -9 122<109 141.5 106.5 144>
VStem: 65 122<36.5 68.5>
LayerCount: 2
Fore
SplineSet
170 9 m 128,-1,1
 153 -9 153 -9 126 -9 c 128,-1,2
 99 -9 99 -9 82 6.5 c 128,-1,3
 65 22 65 22 65 49.5 c 128,-1,4
 65 77 65 77 81.5 95 c 128,-1,5
 98 113 98 113 125 113 c 0,6,7
 187 113 187 113 187 53 c 0,8,0
 187 27 187 27 170 9 c 128,-1,1
EndSplineSet
EndChar

StartChar: colon
Encoding: 58 58 80
Width: 252
Flags: HMW
HStem: -9 122<109 141.5 106.5 144> 366 122<109 141.5 106.5 144>
VStem: 65 122<36.5 68.5 411.5 443.5>
LayerCount: 2
Fore
SplineSet
170 384 m 128,-1,1
 153 366 153 366 126 366 c 128,-1,2
 99 366 99 366 82 381.5 c 128,-1,3
 65 397 65 397 65 424.5 c 128,-1,4
 65 452 65 452 81.5 470 c 128,-1,5
 98 488 98 488 125 488 c 0,6,7
 187 488 187 488 187 428 c 0,8,0
 187 402 187 402 170 384 c 128,-1,1
170 9 m 128,-1,10
 153 -9 153 -9 126 -9 c 128,-1,11
 99 -9 99 -9 82 6.5 c 128,-1,12
 65 22 65 22 65 49.5 c 128,-1,13
 65 77 65 77 81.5 95 c 128,-1,14
 98 113 98 113 125 113 c 0,15,16
 187 113 187 113 187 53 c 0,17,9
 187 27 187 27 170 9 c 128,-1,10
EndSplineSet
EndChar

StartChar: hyphen
Encoding: 45 45 81
Width: 295
Flags: HMW
HStem: 203 21G<34 34> 271 20G<264 264>
LayerCount: 2
Fore
SplineSet
46 277 m 1,0,-1
 264 291 l 1,1,-1
 248 229 l 1,2,-1
 34 203 l 1,3,-1
 46 277 l 1,0,-1
EndSplineSet
Position2: "'case' Case-Sensitive Forms in Latin lookup 1 per glyph data 1" dx=0 dy=80 dh=0 dv=0
EndChar

StartChar: endash
Encoding: 8211 8211 83
Width: 500
Flags: HMW
HStem: 218 53<10 490 -2 502>
LayerCount: 2
Fore
SplineSet
10 271 m 1,0,-1
 502 271 l 1,1,-1
 490 218 l 1,2,-1
 -2 218 l 1,3,-1
 10 271 l 1,0,-1
EndSplineSet
Position2: "'case' Case-Sensitive Forms in Latin lookup 1 per glyph data 1" dx=0 dy=80 dh=0 dv=0
EndChar

StartChar: emdash
Encoding: 8212 8212 84
Width: 1000
Flags: HMW
HStem: 218 53<10 990 -2 1002>
LayerCount: 2
Fore
SplineSet
10 271 m 1,0,-1
 1002 271 l 1,1,-1
 990 218 l 1,2,-1
 -2 218 l 1,3,-1
 10 271 l 1,0,-1
EndSplineSet
Position2: "'case' Case-Sensitive Forms in Latin lookup 1 per glyph data 1" dx=0 dy=80 dh=0 dv=0
EndChar

StartChar: underscore
Encoding: 95 95 85
Width: 430
Flags: HMW
HStem: -121 48<-6 436 -6 436>
LayerCount: 2
Fore
SplineSet
-6 -73 m 1,0,-1
 436 -73 l 1,1,-1
 436 -121 l 1,2,-1
 -6 -121 l 1,3,-1
 -6 -73 l 1,0,-1
EndSplineSet
EndChar

StartChar: semicolon
Encoding: 59 59 86
Width: 252
Flags: HMW
HStem: -137 21G<91 91> 366 122<109 141.5 106.5 144>
VStem: 65 122<411.5 443.5> 105 82
LayerCount: 2
Fore
SplineSet
170 384 m 128,-1,1
 153 366 153 366 126 366 c 128,-1,2
 99 366 99 366 82 381.5 c 128,-1,3
 65 397 65 397 65 424.5 c 128,-1,4
 65 452 65 452 81.5 470 c 128,-1,5
 98 488 98 488 125 488 c 0,6,7
 187 488 187 488 187 428 c 0,8,0
 187 402 187 402 170 384 c 128,-1,1
91 -137 m 1,9,-1
 64 -111 l 1,10,11
 105 -62 105 -62 105 -21 c 0,12,13
 105 2 105 2 87.5 23 c 128,-1,14
 70 44 70 44 70 64.5 c 128,-1,15
 70 85 70 85 86.5 99 c 128,-1,16
 103 113 103 113 128 113 c 128,-1,17
 153 113 153 113 171 91.5 c 128,-1,18
 189 70 189 70 189 31 c 0,19,20
 189 -59 189 -59 91 -137 c 1,9,-1
EndSplineSet
EndChar

StartChar: comma
Encoding: 44 44 87
Width: 252
Flags: HMW
HStem: -137 21G<91 91> 93 20G<112 143.5>
VStem: 70 119<42.5 58 5.5 78> 105 84<-32.5 58>
LayerCount: 2
Fore
SplineSet
91 -137 m 1,0,-1
 64 -111 l 1,1,2
 105 -62 105 -62 105 -21 c 0,3,4
 105 2 105 2 87.5 23 c 128,-1,5
 70 44 70 44 70 64.5 c 0,6,7
 70 85 70 85 86.5 99 c 128,-1,8
 103 113 103 113 128 113 c 0,9,10
 153 113 153 113 171 91.5 c 128,-1,11
 189 70 189 70 189 31 c 0,12,13
 189 -59 189 -59 91 -137 c 1,0,-1
EndSplineSet
EndChar

StartChar: quotesingle
Encoding: 39 39 88
Width: 180
Flags: HMW
HStem: 514 21G<97 97> 758 20G<125 125>
LayerCount: 2
Fore
SplineSet
125 778 m 1,0,-1
 138 759 l 1,1,-1
 97 514 l 1,2,-1
 54 517 l 1,3,-1
 49 753 l 1,4,-1
 125 778 l 1,0,-1
EndSplineSet
EndChar

StartChar: quoteright
Encoding: 8217 8217 89
Width: 215
Flags: HMW
HStem: 514 21G<76 76> 746 20G<102.5 131.5>
VStem: 64 109<702.5 715.5 663 733.5> 96 77<663 663.5>
LayerCount: 2
Fore
SplineSet
76 514 m 1,0,-1
 49 540 l 1,1,2
 96 596 96 596 96 646 c 0,3,4
 96 664 96 664 80 683.5 c 128,-1,5
 64 703 64 703 64 721.5 c 0,6,7
 64 740 64 740 79.5 753 c 128,-1,8
 95 766 95 766 118 766 c 0,9,10
 141 766 141 766 157 746.5 c 128,-1,11
 173 727 173 727 173 686.5 c 0,12,13
 173 646 173 646 148.5 598.5 c 128,-1,14
 124 551 124 551 76 514 c 1,0,-1
EndSplineSet
EndChar

StartChar: quoteleft
Encoding: 8216 8216 90
Width: 215
Flags: HMW
HStem: 514 21G<83.5 112.5> 746 20G<139 139>
VStem: 42 77<616.5 617> 42 109<564.5 577.5 546.5 617>
LayerCount: 2
Fore
SplineSet
139 766 m 1,0,-1
 166 740 l 1,1,2
 119 684 119 684 119 634 c 0,3,4
 119 616 119 616 135 596.5 c 128,-1,5
 151 577 151 577 151 558.5 c 0,6,7
 151 540 151 540 135.5 527 c 128,-1,8
 120 514 120 514 97 514 c 0,9,10
 74 514 74 514 58 533.5 c 128,-1,11
 42 553 42 553 42 593.5 c 0,12,13
 42 634 42 634 66.5 681.5 c 128,-1,14
 91 729 91 729 139 766 c 1,0,-1
EndSplineSet
EndChar

StartChar: quotedblright
Encoding: 8221 8221 91
Width: 406
Flags: HMW
HStem: 514 21G<76 76 267 267> 746 20G<102.5 131.5 293.5 322.5>
VStem: 64 109<702.5 715.5 663 733.5> 96 77<663 663.5> 255 109<702.5 715.5 663 733.5> 287 77<663 663.5>
LayerCount: 2
Fore
SplineSet
267 514 m 1,0,-1
 240 540 l 1,1,2
 287 596 287 596 287 646 c 0,3,4
 287 664 287 664 271 683.5 c 128,-1,5
 255 703 255 703 255 721.5 c 0,6,7
 255 740 255 740 270.5 753 c 128,-1,8
 286 766 286 766 309 766 c 0,9,10
 332 766 332 766 348 746.5 c 128,-1,11
 364 727 364 727 364 686.5 c 0,12,13
 364 646 364 646 339.5 598.5 c 128,-1,14
 315 551 315 551 267 514 c 1,0,-1
76 514 m 1,15,-1
 49 540 l 1,16,17
 96 596 96 596 96 646 c 0,18,19
 96 664 96 664 80 683.5 c 128,-1,20
 64 703 64 703 64 721.5 c 0,21,22
 64 740 64 740 79.5 753 c 128,-1,23
 95 766 95 766 118 766 c 0,24,25
 141 766 141 766 157 746.5 c 128,-1,26
 173 727 173 727 173 686.5 c 0,27,28
 173 646 173 646 148.5 598.5 c 128,-1,29
 124 551 124 551 76 514 c 1,15,-1
EndSplineSet
EndChar

StartChar: quotedblleft
Encoding: 8220 8220 92
Width: 406
Flags: HMW
HStem: 514 21G<83.5 112.5 274.5 303.5> 746 20G<139 139 330 330>
VStem: 42 77<616.5 617> 42 109<564.5 577.5 546.5 617> 233 77<616.5 617> 233 109<564.5 577.5 546.5 617>
LayerCount: 2
Fore
SplineSet
330 766 m 1,0,-1
 357 740 l 1,1,2
 310 684 310 684 310 634 c 0,3,4
 310 616 310 616 326 596.5 c 128,-1,5
 342 577 342 577 342 558.5 c 0,6,7
 342 540 342 540 326.5 527 c 128,-1,8
 311 514 311 514 288 514 c 0,9,10
 265 514 265 514 249 533.5 c 128,-1,11
 233 553 233 553 233 593.5 c 0,12,13
 233 634 233 634 257.5 681.5 c 128,-1,14
 282 729 282 729 330 766 c 1,0,-1
139 766 m 1,15,-1
 166 740 l 1,16,17
 119 684 119 684 119 634 c 0,18,19
 119 616 119 616 135 596.5 c 128,-1,20
 151 577 151 577 151 558.5 c 0,21,22
 151 540 151 540 135.5 527 c 128,-1,23
 120 514 120 514 97 514 c 0,24,25
 74 514 74 514 58 533.5 c 128,-1,26
 42 553 42 553 42 593.5 c 0,27,28
 42 634 42 634 66.5 681.5 c 128,-1,29
 91 729 91 729 139 766 c 1,15,-1
EndSplineSet
EndChar

StartChar: bullet
Encoding: 8226 8226 93
Width: 343
Flags: HMW
HStem: 127 21G<135.5 212.5> 363 20G<129.5 206.5>
LayerCount: 2
Fore
SplineSet
267 164.5 m 128,-1,1
 231 127 231 127 172.5 127 c 128,-1,2
 114 127 114 127 77 159.5 c 128,-1,3
 40 192 40 192 40 250.5 c 128,-1,4
 40 309 40 309 75.5 346 c 128,-1,5
 111 383 111 383 170 383 c 128,-1,6
 229 383 229 383 266 352.5 c 128,-1,7
 303 322 303 322 303 262 c 128,-1,0
 303 202 303 202 267 164.5 c 128,-1,1
EndSplineSet
Position2: "'case' Case-Sensitive Forms in Latin lookup 1 per glyph data 1" dx=0 dy=80 dh=0 dv=0
EndChar

StartChar: U
Encoding: 85 85 94
Width: 736
Flags: HMW
HStem: -9 67<325 459 325 465> 673 20G<45 290 290 290 484 719 719 719>
VStem: 115 97<249 264 264 592 592 611.5> 574 67<249 257 257 573 573 601.5>
LayerCount: 2
Fore
SplineSet
574 573 m 2,0,1
 574 617 574 617 557.5 632 c 128,-1,2
 541 647 541 647 478 654 c 1,3,-1
 484 693 l 1,4,-1
 719 693 l 1,5,-1
 723 654 l 1,6,-1
 661 642 l 2,7,8
 643 638 643 638 641.5 627.5 c 0,9,10
 641 624 641 624 641 616 c 2,11,-1
 641 257 l 2,12,13
 641 134 641 134 574 62.5 c 128,-1,14
 507 -9 507 -9 373 -9 c 0,15,16
 115 -9 115 -9 115 249 c 2,17,-1
 115 592 l 2,18,19
 115 623 115 623 103.5 634 c 128,-1,20
 92 645 92 645 39 654 c 1,21,-1
 45 693 l 1,22,-1
 290 693 l 1,23,-1
 294 654 l 1,24,-1
 232 642 l 2,25,26
 212 638 212 638 212 616 c 2,27,-1
 212 264 l 2,28,29
 212 162 212 162 254 110 c 128,-1,30
 296 58 296 58 390.5 58 c 128,-1,31
 485 58 485 58 529.5 114 c 128,-1,32
 574 170 574 170 574 249 c 2,33,-1
 574 573 l 2,0,1
EndSplineSet
Substitution2: "'c2sc' Capitals to Small Capitals in Latin lookup 4 subtable" U.sc
Position2: "'cpsp' Capital Spacing in Latin lookup 0 subtable" dx=25 dy=0 dh=25 dv=0
EndChar

StartChar: G
Encoding: 71 71 95
Width: 681
Flags: HMW
HStem: -9 56<329.5 411> 649 53<291.5 394.5>
VStem: 35 111<244 416> 490 97<63 202 202 221.5>
LayerCount: 2
Fore
SplineSet
587 37 m 1,0,1
 554 20 554 20 491.5 5.5 c 128,-1,2
 429 -9 429 -9 364 -9 c 0,3,4
 201 -9 201 -9 118 87 c 128,-1,5
 35 183 35 183 35 331 c 0,6,7
 35 445.019230769 35 445.019230769 82 534.5 c 0,8,9
 136.814130212 638.85767098 136.814130212 638.85767098 247 679.5 c 0,10,11
 308 702 308 702 374 702 c 128,-1,12
 440 702 440 702 501 692 c 128,-1,13
 562 682 562 682 581 674 c 1,14,15
 587 637 587 637 587 596.5 c 128,-1,16
 587 556 587 556 585 506 c 1,17,-1
 528 498 l 1,18,19
 506 614 506 614 489 626 c 0,20,21
 480 633 480 633 442.5 641 c 128,-1,22
 405 649 405 649 368 649 c 0,23,24
 258 649 258 649 202 568 c 128,-1,25
 146 487 146 487 146 355 c 0,26,27
 146 199 146 199 217 123 c 128,-1,28
 288 47 288 47 393 47 c 0,29,30
 448 47 448 47 490 63 c 1,31,-1
 490 202 l 2,32,33
 490 233 490 233 478.5 244 c 128,-1,34
 467 255 467 255 414 264 c 1,35,-1
 420 303 l 1,36,-1
 654 303 l 1,37,-1
 658 264 l 1,38,-1
 607 252 l 2,39,40
 587 248 587 248 587 226 c 2,41,-1
 587 37 l 1,0,1
EndSplineSet
Substitution2: "'c2sc' Capitals to Small Capitals in Latin lookup 4 subtable" G.sc
Position2: "'cpsp' Capital Spacing in Latin lookup 0 subtable" dx=25 dy=0 dh=25 dv=0
EndChar

StartChar: J
Encoding: 74 74 96
Width: 336
Flags: HMW
HStem: -119 85<53.5 69 53.5 97> 673 20G<42 307 307 307>
VStem: 122 97<158 592 592 611.5>
LayerCount: 2
Fore
SplineSet
219 622 m 2,0,-1
 219 128 l 2,1,2
 219 37 219 37 167.5 -41 c 128,-1,3
 116 -119 116 -119 62 -119 c 0,4,5
 19 -119 19 -119 -21 -111 c 1,6,7
 -24 -99 -24 -99 -24 -76 c 0,8,9
 -24 -53 -24 -53 -5 -23 c 1,10,11
 42 -34 42 -34 61 -34 c 0,12,13
 80 -34 80 -34 93 -26 c 0,14,15
 122 -6 122 -6 122 158 c 2,16,-1
 122 592 l 2,17,18
 122 622 122 622 106.5 633 c 128,-1,19
 91 644 91 644 36 654 c 1,20,-1
 42 693 l 1,21,-1
 307 693 l 1,22,-1
 311 654 l 1,23,-1
 239 642 l 2,24,25
 219 638 219 638 219 622 c 2,0,-1
EndSplineSet
Substitution2: "'c2sc' Capitals to Small Capitals in Latin lookup 4 subtable" J.sc
Position2: "'cpsp' Capital Spacing in Latin lookup 0 subtable" dx=25 dy=0 dh=25 dv=0
EndChar

StartChar: Y
Encoding: 89 89 97
Width: 598
Flags: HMW
HStem: 0 21G<169 444 169 169> 673 20G<12 247 247 247 397 595 595 595>
VStem: 254 97<101 279 279 279>
LayerCount: 2
Fore
SplineSet
319 361 m 1,0,-1
 430 576 l 2,1,2
 451 616 451 616 451 625 c 0,3,4
 451 634 451 634 438.5 639.5 c 128,-1,5
 426 645 426 645 391 653 c 1,6,-1
 397 693 l 1,7,-1
 595 693 l 1,8,-1
 599 651 l 1,9,10
 555 642 555 642 538 631.5 c 128,-1,11
 521 621 521 621 509 597 c 2,12,-1
 351 287 l 1,13,-1
 351 77 l 2,14,15
 351 54 351 54 371 51 c 2,16,-1
 448 39 l 1,17,-1
 444 0 l 1,18,-1
 169 0 l 1,19,-1
 163 39 l 1,20,21
 226 49 226 49 240 59.5 c 128,-1,22
 254 70 254 70 254 101 c 2,23,-1
 254 279 l 1,24,-1
 74 610 l 2,25,26
 61 632 61 632 50.5 638.5 c 128,-1,27
 40 645 40 645 5 653 c 1,28,-1
 12 693 l 1,29,-1
 247 693 l 1,30,-1
 251 652 l 1,31,-1
 184 634 l 2,32,33
 177 633 177 633 177 628 c 0,34,35
 177 623 177 623 184 611 c 2,36,-1
 299 390 l 1,37,38
 309 373 309 373 309 361 c 1,39,-1
 319 361 l 1,0,-1
EndSplineSet
Substitution2: "'c2sc' Capitals to Small Capitals in Latin lookup 4 subtable" Y.sc
Position2: "'cpsp' Capital Spacing in Latin lookup 0 subtable" dx=25 dy=0 dh=25 dv=0
EndChar

StartChar: apostrophe
Encoding: 700 700 98
Width: 109
Flags: HMW
HStem: 557 21G<24 24> 746 20G<37.5 62>
VStem: 6 93<711.5 721 677.5 738> 33 66<653 721>
LayerCount: 2
Fore
SplineSet
24 557 m 1,0,-1
 0 580 l 1,1,2
 33 619 33 619 33 664 c 0,3,4
 33 678 33 678 19.5 695 c 128,-1,5
 6 712 6 712 6 728 c 0,6,7
 6 744 6 744 18.5 755 c 128,-1,8
 31 766 31 766 48 766 c 0,9,10
 99 766 99 766 99 690.5 c 0,11,12
 99 615 99 615 24 557 c 1,0,-1
EndSplineSet
EndChar

StartChar: quotedbl
Encoding: 34 34 99
Width: 331
Flags: HMW
HStem: 514 21G<97 97 248 248> 758 20G<125 125 276 276>
LayerCount: 2
Fore
SplineSet
125 778 m 1,0,-1
 138 759 l 1,1,-1
 97 514 l 1,2,-1
 54 517 l 1,3,-1
 49 753 l 1,4,-1
 125 778 l 1,0,-1
276 778 m 1,5,-1
 289 759 l 1,6,-1
 248 514 l 1,7,-1
 205 517 l 1,8,-1
 200 753 l 1,9,-1
 276 778 l 1,5,-1
EndSplineSet
EndChar

StartChar: Z
Encoding: 90 90 100
Width: 607
Flags: HMW
HStem: 0 52<171 321 321 384.5> 642 51<319.5 340 340 436>
LayerCount: 2
Fore
SplineSet
120 510 m 1,0,-1
 57 517 l 1,1,2
 55 559 55 559 55 601.5 c 0,3,4
 55 644 55 644 64 693 c 1,5,-1
 573 693 l 1,6,-1
 573 667 l 1,7,-1
 191 81 l 2,8,9
 178 62 178 62 169 58 c 1,10,-1
 171 52 l 1,11,-1
 321 52 l 2,12,13
 427 52 427 52 451 59 c 0,14,15
 467 64 467 64 507 213 c 1,16,-1
 562 208 l 1,17,18
 563 191 563 191 563 138.5 c 0,19,20
 563 86 563 86 552 0 c 1,21,-1
 35 0 l 1,22,-1
 35 26 l 1,23,-1
 416 612 l 2,24,25
 429 631 429 631 438 635 c 1,26,-1
 436 642 l 1,27,-1
 340 642 l 2,28,29
 203 642 203 642 161 636 c 1,30,31
 146 635 146 635 120 510 c 1,0,-1
EndSplineSet
Substitution2: "'c2sc' Capitals to Small Capitals in Latin lookup 4 subtable" Z.sc
Position2: "'cpsp' Capital Spacing in Latin lookup 0 subtable" dx=25 dy=0 dh=25 dv=0
EndChar

StartChar: tilde
Encoding: 732 732 101
Width: 361
Flags: HMW
HStem: 595 77<253 285 253 290> 637 35 637 77<86.5 118> 695 20G<336 336>
LayerCount: 2
Fore
SplineSet
336 715 m 1,0,-1
 361 702 l 1,1,2
 340 653 340 653 318.5 624 c 128,-1,3
 297 595 297 595 274.5 595 c 0,4,5
 252 595 252 595 185.5 616 c 128,-1,6
 119 637 119 637 95 637 c 0,7,8
 57 637 57 637 23 595 c 1,9,-1
 0 612 l 1,10,11
 32 668 32 668 55 691 c 128,-1,12
 78 714 78 714 101 714 c 0,13,14
 124 714 124 714 188.5 693 c 128,-1,15
 253 672 253 672 277.5 672 c 0,16,17
 302 672 302 672 336 715 c 1,0,-1
EndSplineSet
EndChar

StartChar: atilde
Encoding: 227 227 103
Width: 512
Flags: HMW
HStem: -9 68<188 205.5> -3 21G<347.5 354> 229 44<314 314> 435 53<216 256> 595 77<321 353 321 358> 637 35 637 77<154.5 186> 695 20G<404 404>
VStem: 42 97<107 167 107 171.5> 314 90<131 229 229 229 273 305 305 329>
LayerCount: 2
Fore
SplineSet
42 123 m 0,0,1
 42 198 42 198 106 235 c 128,-1,2
 170 272 170 272 314 273 c 1,3,-1
 314 305 l 2,4,5
 314 435 314 435 220 435 c 0,6,7
 175 435 175 435 163.5 422 c 0,8,9
 152 409 152 409 139 337 c 1,10,-1
 85 343 l 1,11,12
 77 374 77 374 77 407.5 c 0,13,14
 77 441 77 441 78 451 c 1,15,16
 137 488 137 488 233 488 c 0,17,18
 329 488 329 488 366.5 451 c 128,-1,19
 404 414 404 414 404 329 c 2,20,-1
 404 99 l 2,21,22
 404 73 404 73 416.5 62.5 c 128,-1,23
 429 52 429 52 480 42 c 1,24,-1
 474 10 l 1,25,-1
 354 -3 l 1,26,27
 344 -3 344 -3 333 16 c 128,-1,28
 322 35 322 35 322 51.5 c 0,29,30
 322 68 322 68 323 76 c 1,31,-1
 315 79 l 1,32,-1
 303 61 l 2,33,34
 256 -9 256 -9 174 -9 c 0,35,36
 118 -9 118 -9 80 26 c 128,-1,37
 42 61 42 61 42 123 c 0,0,1
139 132 m 0,38,39
 139 96 139 96 158 77.5 c 128,-1,40
 177 59 177 59 212 59 c 0,41,42
 247 59 247 59 291 93 c 0,43,44
 314 111 314 111 314 131 c 2,45,-1
 314 229 l 1,46,47
 224 227 224 227 181.5 205 c 128,-1,48
 139 183 139 183 139 132 c 0,38,39
404 715 m 1,49,-1
 429 702 l 1,50,51
 408 653 408 653 386.5 624 c 128,-1,52
 365 595 365 595 342.5 595 c 0,53,54
 320 595 320 595 253.5 616 c 128,-1,55
 187 637 187 637 163 637 c 0,56,57
 125 637 125 637 91 595 c 1,58,-1
 68 612 l 1,59,60
 100 668 100 668 123 691 c 128,-1,61
 146 714 146 714 169 714 c 0,62,63
 192 714 192 714 256.5 693 c 128,-1,64
 321 672 321 672 345.5 672 c 0,65,66
 370 672 370 672 404 715 c 1,49,-1
EndSplineSet
Substitution2: "'smcp' Lowercase to Small Capitals in Latin lookup 5 subtable" Atilde.sc
EndChar

StartChar: ellipsis
Encoding: 8230 8230 105
Width: 860
Flags: HMW
HStem: -9 122<139 171.5 136.5 174 413 445.5 687 719.5>
VStem: 95 122<36.5 68.5> 369 122<36.5 68.5> 643 122<36.5 68.5>
CounterMasks: 1 70
LayerCount: 2
Fore
SplineSet
748 9 m 128,-1,1
 731 -9 731 -9 704 -9 c 128,-1,2
 677 -9 677 -9 660 6.5 c 128,-1,3
 643 22 643 22 643 49.5 c 128,-1,4
 643 77 643 77 659.5 95 c 128,-1,5
 676 113 676 113 703 113 c 0,6,7
 765 113 765 113 765 53 c 0,8,0
 765 27 765 27 748 9 c 128,-1,1
474 9 m 128,-1,10
 457 -9 457 -9 430 -9 c 128,-1,11
 403 -9 403 -9 386 6.5 c 128,-1,12
 369 22 369 22 369 49.5 c 128,-1,13
 369 77 369 77 385.5 95 c 128,-1,14
 402 113 402 113 429 113 c 0,15,16
 491 113 491 113 491 53 c 0,17,9
 491 27 491 27 474 9 c 128,-1,10
200 9 m 128,-1,19
 183 -9 183 -9 156 -9 c 128,-1,20
 129 -9 129 -9 112 6.5 c 128,-1,21
 95 22 95 22 95 49.5 c 128,-1,22
 95 77 95 77 111.5 95 c 128,-1,23
 128 113 128 113 155 113 c 0,24,25
 217 113 217 113 217 53 c 0,26,18
 217 27 217 27 200 9 c 128,-1,19
EndSplineSet
EndChar

StartChar: caron.alt
Encoding: 65541 -1 106
Width: 97
Flags: HMW
HStem: 577 21G<32 32> 754 20G<85 85>
LayerCount: 2
Fore
SplineSet
85 774 m 1,0,-1
 97 755 l 1,1,2
 88 659 88 659 32 577 c 1,3,-1
 -10 591 l 1,4,5
 4 644 4 644 4 684.5 c 0,6,7
 4 725 4 725 0 752 c 1,8,-1
 85 774 l 1,0,-1
EndSplineSet
EndChar

StartChar: dieresis.cap
Encoding: 776 776 107
Width: 230
Flags: HMW
HStem: 775 110<3 32.5 2 34 196 225.5>
VStem: -34 105<816 845> 159 105<816 845>
LayerCount: 2
Fore
SplineSet
211 775 m 0,0,1
 159 775 159 775 159 831 c 0,2,3
 159 853 159 853 173.5 869 c 128,-1,4
 188 885 188 885 211 885 c 0,5,6
 264 885 264 885 264 831 c 0,7,8
 264 808 264 808 249 791.5 c 128,-1,9
 234 775 234 775 211 775 c 0,0,1
18 775 m 0,10,11
 -34 775 -34 775 -34 831 c 0,12,13
 -34 853 -34 853 -19.5 869 c 128,-1,14
 -5 885 -5 885 18 885 c 0,15,16
 71 885 71 885 71 831 c 0,17,18
 71 808 71 808 56 791.5 c 128,-1,19
 41 775 41 775 18 775 c 0,10,11
EndSplineSet
EndChar

StartChar: acute.cap
Encoding: 65542 -1 108
Width: 234
Flags: HMW
HStem: 749 21G<25 25> 894 20G<174 174>
LayerCount: 2
Fore
SplineSet
234 863 m 1,0,-1
 226 842 l 1,1,-1
 25 749 l 1,2,-1
 0 785 l 1,3,-1
 174 914 l 1,4,-1
 234 863 l 1,0,-1
EndSplineSet
EndChar

StartChar: S
Encoding: 83 83 109
Width: 523
Flags: HMW
HStem: -9 56<236 284 236 314.5> 646 56<237.5 277>
VStem: 48 83<503.5 567 503.5 567> 386 92<139 201>
LayerCount: 2
Fore
SplineSet
445 675 m 1,0,1
 448 651 448 651 448 611.5 c 128,-1,2
 448 572 448 572 437 506 c 1,3,-1
 379 499 l 1,4,5
 368 612 368 612 352 625 c 0,6,7
 328 646 328 646 264.5 646 c 128,-1,8
 201 646 201 646 166 620.5 c 128,-1,9
 131 595 131 595 131 546 c 0,10,11
 131 518 131 518 142 496 c 128,-1,12
 153 474 153 474 182 455 c 128,-1,13
 211 436 211 436 227.5 427.5 c 0,14,15
 252.684210526 414.526315789 252.684210526 414.526315789 297.842105263 395.763157895 c 128,-1,16
 343 377 343 377 368 363 c 128,-1,17
 393 349 393 349 421.5 325.5 c 0,18,19
 478 278.912280702 478 278.912280702 478 189.956140351 c 128,-1,20
 478 101 478 101 414.5 46 c 128,-1,21
 351 -9 351 -9 241 -9 c 0,22,23
 182 -9 182 -9 123.5 5.5 c 128,-1,24
 65 20 65 20 38 34 c 1,25,26
 35 46 35 46 35 91 c 128,-1,27
 35 136 35 136 47 200 c 1,28,-1
 104 203 l 1,29,30
 112 131 112 131 117.5 110 c 128,-1,31
 123 89 123 89 132 82 c 0,32,33
 149 70 149 70 187.5 58.5 c 128,-1,34
 226 47 226 47 271.5 47 c 128,-1,35
 317 47 317 47 351.5 73.5 c 128,-1,36
 386 100 386 100 386 154 c 0,37,38
 386 230.21725928 386 230.21725928 299.767411727 277.592062817 c 0,39,40
 278.407852763 289.326662576 278.407852763 289.326662576 232.203926382 308.663331288 c 128,-1,41
 186 328 186 328 167 337.5 c 128,-1,42
 148 347 148 347 122.5 364.5 c 128,-1,43
 97 382 97 382 83 399.5 c 0,44,45
 48 443.25 48 443.25 48 505 c 0,46,47
 48 596 48 596 115.5 649 c 128,-1,48
 183 702 183 702 291 702 c 0,49,50
 373 702 373 702 445 675 c 1,0,1
EndSplineSet
Substitution2: "'c2sc' Capitals to Small Capitals in Latin lookup 4 subtable" S.sc
Position2: "'cpsp' Capital Spacing in Latin lookup 0 subtable" dx=25 dy=0 dh=25 dv=0
EndChar

StartChar: slash
Encoding: 47 47 110
Width: 391
Flags: HMW
HStem: -60 21G<15 85 15 15> 752 20G<307 376 376 376>
LayerCount: 2
Fore
SplineSet
307 772 m 1,0,-1
 376 772 l 1,1,-1
 85 -60 l 1,2,-1
 15 -60 l 1,3,-1
 307 772 l 1,0,-1
EndSplineSet
EndChar

StartChar: tilde.cap
Encoding: 65543 -1 111
Width: 230
Flags: HMW
HStem: 771 21G<-42 -42> 778 78<188 220 188 225> 805 51 805 78<21.5 53> 871 20G<271 271>
LayerCount: 2
Fore
SplineSet
271 891 m 1,0,-1
 296 879 l 1,1,2
 275 833 275 833 253.5 805.5 c 128,-1,3
 232 778 232 778 209.5 778 c 0,4,5
 187 778 187 778 120.5 791.5 c 128,-1,6
 54 805 54 805 30 805 c 0,7,8
 -8 805 -8 805 -42 771 c 1,9,-1
 -65 787 l 1,10,11
 -33 840 -33 840 -10 861.5 c 128,-1,12
 13 883 13 883 36 883 c 0,13,14
 59 883 59 883 123.5 869.5 c 128,-1,15
 188 856 188 856 213 856 c 0,16,17
 238 856 238 856 271 891 c 1,0,-1
EndSplineSet
EndChar

StartChar: Ntilde
Encoding: 209 209 112
Width: 775
Flags: HMW
HStem: 0 21G<50 50 50 297 595 595 598 598 598 657> 673 20G<50 186 127 241 186 186 241 241 500 735 735 735> 778 78<467 499 467 504> 805 51 805 78<300.5 332> 871 20G<550 550>
VStem: 120 67<101 592> 590 67<189 572 572 601>
LayerCount: 2
Fore
SplineSet
598 0 m 1,0,-1
 582 189 l 1,1,-1
 590 189 l 1,2,-1
 590 572 l 2,3,4
 590 617 590 617 573.5 632 c 128,-1,5
 557 647 557 647 494 654 c 1,6,-1
 500 693 l 1,7,-1
 735 693 l 1,8,-1
 739 654 l 1,9,-1
 677 642 l 2,10,11
 657 638 657 638 657 616 c 2,12,-1
 657 0 l 1,13,-1
 598 0 l 1,0,-1
595 0 m 1,14,-1
 127 693 l 1,15,-1
 241 693 l 1,16,-1
 647 95 l 1,17,-1
 645 1 l 1,18,-1
 595 0 l 1,14,-1
50 0 m 1,19,-1
 44 39 l 1,20,21
 97 48 97 48 108.5 59 c 128,-1,22
 120 70 120 70 120 101 c 2,23,-1
 120 592 l 2,24,25
 120 623 120 623 108.5 634 c 128,-1,26
 97 645 97 645 44 654 c 1,27,-1
 50 693 l 1,28,-1
 186 693 l 1,29,-1
 196 592 l 1,30,-1
 187 592 l 1,31,-1
 187 100 l 2,32,33
 187 75 187 75 196.5 63 c 128,-1,34
 206 51 206 51 231 48 c 2,35,-1
 301 39 l 1,36,-1
 297 0 l 1,37,-1
 50 0 l 1,19,-1
550 891 m 1,38,-1
 575 879 l 1,39,40
 554 833 554 833 532.5 805.5 c 128,-1,41
 511 778 511 778 488.5 778 c 0,42,43
 466 778 466 778 399.5 791.5 c 128,-1,44
 333 805 333 805 309 805 c 0,45,46
 271 805 271 805 237 771 c 1,47,-1
 214 787 l 1,48,49
 246 840 246 840 269 861.5 c 128,-1,50
 292 883 292 883 315 883 c 0,51,52
 338 883 338 883 402.5 869.5 c 128,-1,53
 467 856 467 856 492 856 c 0,54,55
 517 856 517 856 550 891 c 1,38,-1
EndSplineSet
Substitution2: "'c2sc' Capitals to Small Capitals in Latin lookup 4 subtable" Ntilde.sc
Position2: "'cpsp' Capital Spacing in Latin lookup 0 subtable" dx=25 dy=0 dh=25 dv=0
EndChar

StartChar: Udieresis
Encoding: 220 220 113
Width: 736
Flags: HMW
HStem: -9 67<325 459 325 465> 673 20G<45 290 290 290 484 719 719 719> 775 110<269 298.5 268 300 462 491.5>
VStem: 115 97<249 264 264 592 592 611.5> 232 105<816 845> 425 105<816 845> 574 67<249 257 257 573 573 601.5>
LayerCount: 2
Fore
SplineSet
574 573 m 2,0,1
 574 617 574 617 557.5 632 c 128,-1,2
 541 647 541 647 478 654 c 1,3,-1
 484 693 l 1,4,-1
 719 693 l 1,5,-1
 723 654 l 1,6,-1
 661 642 l 2,7,8
 643 638 643 638 641.5 627.5 c 0,9,10
 641 624 641 624 641 616 c 2,11,-1
 641 257 l 2,12,13
 641 134 641 134 574 62.5 c 128,-1,14
 507 -9 507 -9 373 -9 c 0,15,16
 115 -9 115 -9 115 249 c 2,17,-1
 115 592 l 2,18,19
 115 623 115 623 103.5 634 c 128,-1,20
 92 645 92 645 39 654 c 1,21,-1
 45 693 l 1,22,-1
 290 693 l 1,23,-1
 294 654 l 1,24,-1
 232 642 l 2,25,26
 212 638 212 638 212 616 c 2,27,-1
 212 264 l 2,28,29
 212 162 212 162 254 110 c 128,-1,30
 296 58 296 58 390.5 58 c 128,-1,31
 485 58 485 58 529.5 114 c 128,-1,32
 574 170 574 170 574 249 c 2,33,-1
 574 573 l 2,0,1
477 775 m 0,34,35
 425 775 425 775 425 831 c 0,36,37
 425 853 425 853 439.5 869 c 128,-1,38
 454 885 454 885 477 885 c 0,39,40
 530 885 530 885 530 831 c 0,41,42
 530 808 530 808 515 791.5 c 128,-1,43
 500 775 500 775 477 775 c 0,34,35
284 775 m 0,44,45
 232 775 232 775 232 831 c 0,46,47
 232 853 232 853 246.5 869 c 128,-1,48
 261 885 261 885 284 885 c 0,49,50
 337 885 337 885 337 831 c 0,51,52
 337 808 337 808 322 791.5 c 128,-1,53
 307 775 307 775 284 775 c 0,44,45
EndSplineSet
Substitution2: "'c2sc' Capitals to Small Capitals in Latin lookup 4 subtable" Udieresis.sc
Position2: "'cpsp' Capital Spacing in Latin lookup 0 subtable" dx=25 dy=0 dh=25 dv=0
EndChar

StartChar: grave.cap
Encoding: 65544 -1 114
Width: 234
Flags: HMW
HStem: 749 21G<209 209> 894 20G<60 60>
LayerCount: 2
Fore
SplineSet
8 842 m 1,0,-1
 0 863 l 1,1,-1
 60 914 l 1,2,-1
 234 785 l 1,3,-1
 209 749 l 1,4,-1
 8 842 l 1,0,-1
EndSplineSet
EndChar

StartChar: circumflex.cap
Encoding: 65545 -1 115
Width: 328
Flags: HMW
HStem: 749 21G<25 25 303 303> 894 20G<136 192 192 192>
LayerCount: 2
Fore
SplineSet
303 749 m 1,0,-1
 164 840 l 1,1,-1
 25 749 l 1,2,-1
 0 775 l 1,3,-1
 136 914 l 1,4,-1
 192 914 l 1,5,-1
 328 775 l 1,6,-1
 303 749 l 1,0,-1
EndSplineSet
EndChar

StartChar: Oacute
Encoding: 211 211 116
Width: 711
Flags: HMW
HStem: -9 53<291 439 291 452> 649 53<272 420> 894 20G<437 437>
VStem: 35 111<267 429 267 446.5> 565 111<269.5 432>
LayerCount: 2
Fore
SplineSet
117 84.5 m 128,-1,1
 35 178 35 178 35 340.5 c 128,-1,2
 35 503 35 503 122 602.5 c 128,-1,3
 209 702 209 702 360.5 702 c 128,-1,4
 512 702 512 702 594 610.5 c 128,-1,5
 676 519 676 519 676 356.5 c 128,-1,6
 676 194 676 194 589 92.5 c 128,-1,7
 502 -9 502 -9 350.5 -9 c 128,-1,0
 199 -9 199 -9 117 84.5 c 128,-1,1
364 44 m 0,8,9
 418 44 418 44 458.5 69 c 128,-1,10
 499 94 499 94 521.5 138 c 0,11,12
 565 223.066666667 565 223.066666667 565 352.033333333 c 128,-1,13
 565 481 565 481 508.5 565 c 128,-1,14
 452 649 452 649 347 649 c 0,15,16
 293 649 293 649 252.5 624.5 c 128,-1,17
 212 600 212 600 189.5 557 c 0,18,19
 146 473.866666667 146 473.866666667 146 345.433333333 c 128,-1,20
 146 217 146 217 202 130.5 c 128,-1,21
 258 44 258 44 364 44 c 0,8,9
497 863 m 1,22,-1
 489 842 l 1,23,-1
 288 749 l 1,24,-1
 263 785 l 1,25,-1
 437 914 l 1,26,-1
 497 863 l 1,22,-1
EndSplineSet
Substitution2: "'c2sc' Capitals to Small Capitals in Latin lookup 4 subtable" Oacute.sc
Position2: "'cpsp' Capital Spacing in Latin lookup 0 subtable" dx=25 dy=0 dh=25 dv=0
EndChar

StartChar: Odieresis
Encoding: 214 214 117
Width: 711
Flags: HMW
HStem: -9 53<291 439 291 452> 649 53<272 420> 775 110<239 268.5 238 270 432 461.5>
VStem: 35 111<267 429 267 446.5> 202 105<816 845> 395 105<816 845> 565 111<269.5 432>
LayerCount: 2
Fore
SplineSet
117 84.5 m 128,-1,1
 35 178 35 178 35 340.5 c 128,-1,2
 35 503 35 503 122 602.5 c 128,-1,3
 209 702 209 702 360.5 702 c 128,-1,4
 512 702 512 702 594 610.5 c 128,-1,5
 676 519 676 519 676 356.5 c 128,-1,6
 676 194 676 194 589 92.5 c 128,-1,7
 502 -9 502 -9 350.5 -9 c 128,-1,0
 199 -9 199 -9 117 84.5 c 128,-1,1
364 44 m 0,8,9
 418 44 418 44 458.5 69 c 128,-1,10
 499 94 499 94 521.5 138 c 0,11,12
 565 223.066666667 565 223.066666667 565 352.033333333 c 128,-1,13
 565 481 565 481 508.5 565 c 128,-1,14
 452 649 452 649 347 649 c 0,15,16
 293 649 293 649 252.5 624.5 c 128,-1,17
 212 600 212 600 189.5 557 c 0,18,19
 146 473.866666667 146 473.866666667 146 345.433333333 c 128,-1,20
 146 217 146 217 202 130.5 c 128,-1,21
 258 44 258 44 364 44 c 0,8,9
447 775 m 0,22,23
 395 775 395 775 395 831 c 0,24,25
 395 853 395 853 409.5 869 c 128,-1,26
 424 885 424 885 447 885 c 0,27,28
 500 885 500 885 500 831 c 0,29,30
 500 808 500 808 485 791.5 c 128,-1,31
 470 775 470 775 447 775 c 0,22,23
254 775 m 0,32,33
 202 775 202 775 202 831 c 0,34,35
 202 853 202 853 216.5 869 c 128,-1,36
 231 885 231 885 254 885 c 0,37,38
 307 885 307 885 307 831 c 0,39,40
 307 808 307 808 292 791.5 c 128,-1,41
 277 775 277 775 254 775 c 0,32,33
EndSplineSet
Substitution2: "'c2sc' Capitals to Small Capitals in Latin lookup 4 subtable" Odieresis.sc
Position2: "'cpsp' Capital Spacing in Latin lookup 0 subtable" dx=25 dy=0 dh=25 dv=0
EndChar

StartChar: Otilde
Encoding: 213 213 118
Width: 711
Flags: HMW
HStem: -9 53<291 439 291 452> 649 53<272 420> 778 78<432 464 432 469> 805 51 805 78<265.5 297> 871 20G<515 515>
VStem: 35 111<267 429 267 446.5> 565 111<269.5 432>
LayerCount: 2
Fore
SplineSet
117 84.5 m 128,-1,1
 35 178 35 178 35 340.5 c 128,-1,2
 35 503 35 503 122 602.5 c 128,-1,3
 209 702 209 702 360.5 702 c 128,-1,4
 512 702 512 702 594 610.5 c 128,-1,5
 676 519 676 519 676 356.5 c 128,-1,6
 676 194 676 194 589 92.5 c 128,-1,7
 502 -9 502 -9 350.5 -9 c 128,-1,0
 199 -9 199 -9 117 84.5 c 128,-1,1
364 44 m 0,8,9
 418 44 418 44 458.5 69 c 128,-1,10
 499 94 499 94 521.5 138 c 0,11,12
 565 223.066666667 565 223.066666667 565 352.033333333 c 128,-1,13
 565 481 565 481 508.5 565 c 128,-1,14
 452 649 452 649 347 649 c 0,15,16
 293 649 293 649 252.5 624.5 c 128,-1,17
 212 600 212 600 189.5 557 c 0,18,19
 146 473.866666667 146 473.866666667 146 345.433333333 c 128,-1,20
 146 217 146 217 202 130.5 c 128,-1,21
 258 44 258 44 364 44 c 0,8,9
515 891 m 1,22,-1
 540 879 l 1,23,24
 519 833 519 833 497.5 805.5 c 128,-1,25
 476 778 476 778 453.5 778 c 128,-1,26
 431 778 431 778 364.5 791.5 c 128,-1,27
 298 805 298 805 274 805 c 0,28,29
 236 805 236 805 202 771 c 1,30,-1
 179 787 l 1,31,32
 211 840 211 840 234 861.5 c 128,-1,33
 257 883 257 883 280 883 c 128,-1,34
 303 883 303 883 367.5 869.5 c 128,-1,35
 432 856 432 856 457 856 c 128,-1,36
 482 856 482 856 515 891 c 1,22,-1
EndSplineSet
Substitution2: "'c2sc' Capitals to Small Capitals in Latin lookup 4 subtable" Otilde.sc
Position2: "'cpsp' Capital Spacing in Latin lookup 0 subtable" dx=25 dy=0 dh=25 dv=0
EndChar

StartChar: Ocircumflex
Encoding: 212 212 119
Width: 711
Flags: HMW
HStem: -9 53<291 439 291 452> 649 53<272 420> 894 20G<327 383 383 383>
VStem: 35 111<267 429 267 446.5> 565 111<269.5 432>
LayerCount: 2
Fore
SplineSet
117 84.5 m 128,-1,1
 35 178 35 178 35 340.5 c 128,-1,2
 35 503 35 503 122 602.5 c 128,-1,3
 209 702 209 702 360.5 702 c 128,-1,4
 512 702 512 702 594 610.5 c 128,-1,5
 676 519 676 519 676 356.5 c 128,-1,6
 676 194 676 194 589 92.5 c 128,-1,7
 502 -9 502 -9 350.5 -9 c 128,-1,0
 199 -9 199 -9 117 84.5 c 128,-1,1
364 44 m 0,8,9
 418 44 418 44 458.5 69 c 128,-1,10
 499 94 499 94 521.5 138 c 0,11,12
 565 223.066666667 565 223.066666667 565 352.033333333 c 128,-1,13
 565 481 565 481 508.5 565 c 128,-1,14
 452 649 452 649 347 649 c 0,15,16
 293 649 293 649 252.5 624.5 c 128,-1,17
 212 600 212 600 189.5 557 c 0,18,19
 146 473.866666667 146 473.866666667 146 345.433333333 c 128,-1,20
 146 217 146 217 202 130.5 c 128,-1,21
 258 44 258 44 364 44 c 0,8,9
494 749 m 1,22,-1
 355 840 l 1,23,-1
 216 749 l 1,24,-1
 191 775 l 1,25,-1
 327 914 l 1,26,-1
 383 914 l 1,27,-1
 519 775 l 1,28,-1
 494 749 l 1,22,-1
EndSplineSet
Substitution2: "'c2sc' Capitals to Small Capitals in Latin lookup 4 subtable" Ocircumflex.sc
Position2: "'cpsp' Capital Spacing in Latin lookup 0 subtable" dx=25 dy=0 dh=25 dv=0
EndChar

StartChar: Ograve
Encoding: 210 210 120
Width: 711
Flags: HMW
HStem: -9 53<291 439 291 452> 649 53<272 420> 894 20G<278 278>
VStem: 35 111<267 429 267 446.5> 565 111<269.5 432>
LayerCount: 2
Fore
SplineSet
117 84.5 m 128,-1,1
 35 178 35 178 35 340.5 c 128,-1,2
 35 503 35 503 122 602.5 c 128,-1,3
 209 702 209 702 360.5 702 c 128,-1,4
 512 702 512 702 594 610.5 c 128,-1,5
 676 519 676 519 676 356.5 c 128,-1,6
 676 194 676 194 589 92.5 c 128,-1,7
 502 -9 502 -9 350.5 -9 c 128,-1,0
 199 -9 199 -9 117 84.5 c 128,-1,1
364 44 m 0,8,9
 418 44 418 44 458.5 69 c 128,-1,10
 499 94 499 94 521.5 138 c 0,11,12
 565 223.066666667 565 223.066666667 565 352.033333333 c 128,-1,13
 565 481 565 481 508.5 565 c 128,-1,14
 452 649 452 649 347 649 c 0,15,16
 293 649 293 649 252.5 624.5 c 128,-1,17
 212 600 212 600 189.5 557 c 0,18,19
 146 473.866666667 146 473.866666667 146 345.433333333 c 128,-1,20
 146 217 146 217 202 130.5 c 128,-1,21
 258 44 258 44 364 44 c 0,8,9
226 842 m 1,22,-1
 218 863 l 1,23,-1
 278 914 l 1,24,-1
 452 785 l 1,25,-1
 427 749 l 1,26,-1
 226 842 l 1,22,-1
EndSplineSet
Substitution2: "'c2sc' Capitals to Small Capitals in Latin lookup 4 subtable" Ograve.sc
Position2: "'cpsp' Capital Spacing in Latin lookup 0 subtable" dx=25 dy=0 dh=25 dv=0
EndChar

StartChar: Idieresis
Encoding: 207 207 121
Width: 337
Flags: HMW
HStem: 0 21G<50 50 50 295> 673 20G<50 295 295 295> 775 110<56 85.5 55 87 249 278.5>
VStem: 19 105<816 845> 120 97<101 592 592 611.5> 212 105<816 845>
LayerCount: 2
Fore
SplineSet
50 0 m 1,0,-1
 44 39 l 1,1,2
 97 48 97 48 108.5 59 c 128,-1,3
 120 70 120 70 120 101 c 2,4,-1
 120 592 l 2,5,6
 120 623 120 623 108.5 634 c 128,-1,7
 97 645 97 645 44 654 c 1,8,-1
 50 693 l 1,9,-1
 295 693 l 1,10,-1
 299 654 l 1,11,-1
 237 642 l 2,12,13
 217 638 217 638 217 616 c 2,14,-1
 217 77 l 2,15,16
 217 55 217 55 237 51 c 2,17,-1
 299 39 l 1,18,-1
 295 0 l 1,19,-1
 50 0 l 1,0,-1
264 775 m 0,20,21
 212 775 212 775 212 831 c 0,22,23
 212 853 212 853 226.5 869 c 128,-1,24
 241 885 241 885 264 885 c 0,25,26
 317 885 317 885 317 831 c 0,27,28
 317 808 317 808 302 791.5 c 128,-1,29
 287 775 287 775 264 775 c 0,20,21
71 775 m 0,30,31
 19 775 19 775 19 831 c 0,32,33
 19 853 19 853 33.5 869 c 128,-1,34
 48 885 48 885 71 885 c 0,35,36
 124 885 124 885 124 831 c 0,37,38
 124 808 124 808 109 791.5 c 128,-1,39
 94 775 94 775 71 775 c 0,30,31
EndSplineSet
Substitution2: "'c2sc' Capitals to Small Capitals in Latin lookup 4 subtable" Idieresis.sc
Position2: "'cpsp' Capital Spacing in Latin lookup 0 subtable" dx=25 dy=0 dh=25 dv=0
EndChar

StartChar: Icircumflex
Encoding: 206 206 122
Width: 337
Flags: HMW
HStem: 0 21G<50 50 50 295> 673 20G<50 295 295 295> 894 20G<140 196 196 196>
VStem: 120 97<101 592 592 611.5>
LayerCount: 2
Fore
SplineSet
50 0 m 1,0,-1
 44 39 l 1,1,2
 97 48 97 48 108.5 59 c 128,-1,3
 120 70 120 70 120 101 c 2,4,-1
 120 592 l 2,5,6
 120 623 120 623 108.5 634 c 128,-1,7
 97 645 97 645 44 654 c 1,8,-1
 50 693 l 1,9,-1
 295 693 l 1,10,-1
 299 654 l 1,11,-1
 237 642 l 2,12,13
 217 638 217 638 217 616 c 2,14,-1
 217 77 l 2,15,16
 217 55 217 55 237 51 c 2,17,-1
 299 39 l 1,18,-1
 295 0 l 1,19,-1
 50 0 l 1,0,-1
307 749 m 1,20,-1
 168 840 l 1,21,-1
 29 749 l 1,22,-1
 4 775 l 1,23,-1
 140 914 l 1,24,-1
 196 914 l 1,25,-1
 332 775 l 1,26,-1
 307 749 l 1,20,-1
EndSplineSet
Substitution2: "'c2sc' Capitals to Small Capitals in Latin lookup 4 subtable" Icircumflex.sc
Position2: "'cpsp' Capital Spacing in Latin lookup 0 subtable" dx=25 dy=0 dh=25 dv=0
EndChar

StartChar: Iacute
Encoding: 205 205 123
Width: 337
Flags: HMW
HStem: 0 21G<50 50 50 295> 673 20G<50 295 295 295> 894 20G<252 252>
VStem: 120 97<101 592 592 611.5>
LayerCount: 2
Fore
SplineSet
50 0 m 1,0,-1
 44 39 l 1,1,2
 97 48 97 48 108.5 59 c 128,-1,3
 120 70 120 70 120 101 c 2,4,-1
 120 592 l 2,5,6
 120 623 120 623 108.5 634 c 128,-1,7
 97 645 97 645 44 654 c 1,8,-1
 50 693 l 1,9,-1
 295 693 l 1,10,-1
 299 654 l 1,11,-1
 237 642 l 2,12,13
 217 638 217 638 217 616 c 2,14,-1
 217 77 l 2,15,16
 217 55 217 55 237 51 c 2,17,-1
 299 39 l 1,18,-1
 295 0 l 1,19,-1
 50 0 l 1,0,-1
312 863 m 1,20,-1
 304 842 l 1,21,-1
 103 749 l 1,22,-1
 78 785 l 1,23,-1
 252 914 l 1,24,-1
 312 863 l 1,20,-1
EndSplineSet
Substitution2: "'c2sc' Capitals to Small Capitals in Latin lookup 4 subtable" Iacute.sc
Position2: "'cpsp' Capital Spacing in Latin lookup 0 subtable" dx=25 dy=0 dh=25 dv=0
EndChar

StartChar: Igrave
Encoding: 204 204 124
Width: 337
Flags: HMW
HStem: 0 21G<50 50 50 295> 673 20G<50 295 295 295> 894 20G<67 67>
VStem: 120 97<101 592 592 611.5>
LayerCount: 2
Fore
SplineSet
50 0 m 1,0,-1
 44 39 l 1,1,2
 97 48 97 48 108.5 59 c 128,-1,3
 120 70 120 70 120 101 c 2,4,-1
 120 592 l 2,5,6
 120 623 120 623 108.5 634 c 128,-1,7
 97 645 97 645 44 654 c 1,8,-1
 50 693 l 1,9,-1
 295 693 l 1,10,-1
 299 654 l 1,11,-1
 237 642 l 2,12,13
 217 638 217 638 217 616 c 2,14,-1
 217 77 l 2,15,16
 217 55 217 55 237 51 c 2,17,-1
 299 39 l 1,18,-1
 295 0 l 1,19,-1
 50 0 l 1,0,-1
15 842 m 1,20,-1
 7 863 l 1,21,-1
 67 914 l 1,22,-1
 241 785 l 1,23,-1
 216 749 l 1,24,-1
 15 842 l 1,20,-1
EndSplineSet
Substitution2: "'c2sc' Capitals to Small Capitals in Latin lookup 4 subtable" Igrave.sc
Position2: "'cpsp' Capital Spacing in Latin lookup 0 subtable" dx=25 dy=0 dh=25 dv=0
EndChar

StartChar: Edieresis
Encoding: 203 203 125
Width: 592
Flags: HMW
HStem: 0 52<306 306 306 537> 320 53<217 367 367 371 217 374 217 367> 640 53 775 110<180 209.5 179 211 373 402.5>
VStem: 120 97<101 320 373 592 592 611.5> 143 105<816 845> 336 94
LayerCount: 2
Fore
SplineSet
50 0 m 1,0,-1
 44 39 l 1,1,2
 97 48 97 48 108.5 59 c 128,-1,3
 120 70 120 70 120 101 c 2,4,-1
 120 592 l 2,5,6
 120 623 120 623 108.5 634 c 128,-1,7
 97 645 97 645 44 654 c 1,8,-1
 50 693 l 1,9,-1
 516 693 l 1,10,11
 522 656 522 656 522 619.5 c 128,-1,12
 522 583 522 583 520 537 c 1,13,-1
 463 530 l 1,14,15
 449 599 449 599 443 616.5 c 128,-1,16
 437 634 437 634 429 635 c 0,17,18
 405 638 405 638 368 639 c 2,19,-1
 217 642 l 1,20,-1
 217 373 l 1,21,-1
 367 373 l 2,22,23
 380 373 380 373 399 444 c 1,24,-1
 430 441 l 1,25,26
 430 368.333333333 430 368.333333333 432.5 339.166666667 c 128,-1,27
 435 310 435 310 435.5 304 c 128,-1,28
 436 298 436 298 439.5 275 c 128,-1,29
 443 252 443 252 444 243 c 1,30,-1
 408 237 l 1,31,32
 392 294 392 294 386.5 307 c 128,-1,33
 381 320 381 320 374 320 c 2,34,-1
 217 320 l 1,35,-1
 217 51 l 1,36,-1
 306 52 l 1,37,38
 419 52 419 52 444 64.5 c 0,39,40
 447 66 447 66 448 66 c 0,41,42
 465 71 465 71 492 184 c 1,43,-1
 547 179 l 1,44,45
 548 162 548 162 548 118.5 c 128,-1,46
 548 75 548 75 537 0 c 1,47,-1
 50 0 l 1,0,-1
388 775 m 0,48,49
 336 775 336 775 336 831 c 0,50,51
 336 853 336 853 350.5 869 c 128,-1,52
 365 885 365 885 388 885 c 0,53,54
 441 885 441 885 441 831 c 0,55,56
 441 808 441 808 426 791.5 c 128,-1,57
 411 775 411 775 388 775 c 0,48,49
195 775 m 0,58,59
 143 775 143 775 143 831 c 0,60,61
 143 853 143 853 157.5 869 c 128,-1,62
 172 885 172 885 195 885 c 0,63,64
 248 885 248 885 248 831 c 0,65,66
 248 808 248 808 233 791.5 c 128,-1,67
 218 775 218 775 195 775 c 0,58,59
EndSplineSet
Substitution2: "'c2sc' Capitals to Small Capitals in Latin lookup 4 subtable" Edieresis.sc
Position2: "'cpsp' Capital Spacing in Latin lookup 0 subtable" dx=25 dy=0 dh=25 dv=0
EndChar

StartChar: Ecircumflex
Encoding: 202 202 126
Width: 592
Flags: HMW
HStem: 0 52<306 306 306 537> 320 53<217 367 367 371 217 374 217 367> 640 53 894 20G<263 319 319 319>
VStem: 120 97<101 320 373 592 592 611.5>
LayerCount: 2
Fore
SplineSet
50 0 m 1,0,-1
 44 39 l 1,1,2
 97 48 97 48 108.5 59 c 128,-1,3
 120 70 120 70 120 101 c 2,4,-1
 120 592 l 2,5,6
 120 623 120 623 108.5 634 c 128,-1,7
 97 645 97 645 44 654 c 1,8,-1
 50 693 l 1,9,-1
 516 693 l 1,10,11
 522 656 522 656 522 619.5 c 128,-1,12
 522 583 522 583 520 537 c 1,13,-1
 463 530 l 1,14,15
 449 599 449 599 443 616.5 c 128,-1,16
 437 634 437 634 429 635 c 0,17,18
 405 638 405 638 368 639 c 2,19,-1
 217 642 l 1,20,-1
 217 373 l 1,21,-1
 367 373 l 2,22,23
 380 373 380 373 399 444 c 1,24,-1
 430 441 l 1,25,26
 430 368.333333333 430 368.333333333 432.5 339.166666667 c 128,-1,27
 435 310 435 310 435.5 304 c 128,-1,28
 436 298 436 298 439.5 275 c 128,-1,29
 443 252 443 252 444 243 c 1,30,-1
 408 237 l 1,31,32
 392 294 392 294 386.5 307 c 128,-1,33
 381 320 381 320 374 320 c 2,34,-1
 217 320 l 1,35,-1
 217 51 l 1,36,-1
 306 52 l 1,37,38
 419 52 419 52 444 64.5 c 0,39,40
 447 66 447 66 448 66 c 0,41,42
 465 71 465 71 492 184 c 1,43,-1
 547 179 l 1,44,45
 548 162 548 162 548 118.5 c 128,-1,46
 548 75 548 75 537 0 c 1,47,-1
 50 0 l 1,0,-1
430 749 m 1,48,-1
 291 840 l 1,49,-1
 152 749 l 1,50,-1
 127 775 l 1,51,-1
 263 914 l 1,52,-1
 319 914 l 1,53,-1
 455 775 l 1,54,-1
 430 749 l 1,48,-1
EndSplineSet
Substitution2: "'c2sc' Capitals to Small Capitals in Latin lookup 4 subtable" Ecircumflex.sc
Position2: "'cpsp' Capital Spacing in Latin lookup 0 subtable" dx=25 dy=0 dh=25 dv=0
EndChar

StartChar: Eacute
Encoding: 201 201 127
Width: 592
Flags: HMW
HStem: 0 52<306 306 306 537> 320 53<217 367 367 371 217 374 217 367> 640 53 894 20G<378 378>
VStem: 120 97<101 320 373 592 592 611.5>
LayerCount: 2
Fore
SplineSet
50 0 m 1,0,-1
 44 39 l 1,1,2
 97 48 97 48 108.5 59 c 128,-1,3
 120 70 120 70 120 101 c 2,4,-1
 120 592 l 2,5,6
 120 623 120 623 108.5 634 c 128,-1,7
 97 645 97 645 44 654 c 1,8,-1
 50 693 l 1,9,-1
 516 693 l 1,10,11
 522 656 522 656 522 619.5 c 128,-1,12
 522 583 522 583 520 537 c 1,13,-1
 463 530 l 1,14,15
 449 599 449 599 443 616.5 c 128,-1,16
 437 634 437 634 429 635 c 0,17,18
 405 638 405 638 368 639 c 2,19,-1
 217 642 l 1,20,-1
 217 373 l 1,21,-1
 367 373 l 2,22,23
 380 373 380 373 399 444 c 1,24,-1
 430 441 l 1,25,26
 430 368.333333333 430 368.333333333 432.5 339.166666667 c 128,-1,27
 435 310 435 310 435.5 304 c 128,-1,28
 436 298 436 298 439.5 275 c 128,-1,29
 443 252 443 252 444 243 c 1,30,-1
 408 237 l 1,31,32
 392 294 392 294 386.5 307 c 128,-1,33
 381 320 381 320 374 320 c 2,34,-1
 217 320 l 1,35,-1
 217 51 l 1,36,-1
 306 52 l 1,37,38
 419 52 419 52 444 64.5 c 0,39,40
 447 66 447 66 448 66 c 0,41,42
 465 71 465 71 492 184 c 1,43,-1
 547 179 l 1,44,45
 548 162 548 162 548 118.5 c 128,-1,46
 548 75 548 75 537 0 c 1,47,-1
 50 0 l 1,0,-1
438 863 m 1,48,-1
 430 842 l 1,49,-1
 229 749 l 1,50,-1
 204 785 l 1,51,-1
 378 914 l 1,52,-1
 438 863 l 1,48,-1
EndSplineSet
Substitution2: "'c2sc' Capitals to Small Capitals in Latin lookup 4 subtable" Eacute.sc
Position2: "'cpsp' Capital Spacing in Latin lookup 0 subtable" dx=25 dy=0 dh=25 dv=0
EndChar

StartChar: Egrave
Encoding: 200 200 128
Width: 592
Flags: HMW
HStem: 0 52<306 306 306 537> 320 53<217 367 367 371 217 374 217 367> 640 53 894 20G<184 184>
VStem: 120 97<101 320 373 592 592 611.5>
LayerCount: 2
Fore
SplineSet
50 0 m 1,0,-1
 44 39 l 1,1,2
 97 48 97 48 108.5 59 c 128,-1,3
 120 70 120 70 120 101 c 2,4,-1
 120 592 l 2,5,6
 120 623 120 623 108.5 634 c 128,-1,7
 97 645 97 645 44 654 c 1,8,-1
 50 693 l 1,9,-1
 516 693 l 1,10,11
 522 656 522 656 522 619.5 c 128,-1,12
 522 583 522 583 520 537 c 1,13,-1
 463 530 l 1,14,15
 449 599 449 599 443 616.5 c 128,-1,16
 437 634 437 634 429 635 c 0,17,18
 405 638 405 638 368 639 c 2,19,-1
 217 642 l 1,20,-1
 217 373 l 1,21,-1
 367 373 l 2,22,23
 380 373 380 373 399 444 c 1,24,-1
 430 441 l 1,25,26
 430 368.333333333 430 368.333333333 432.5 339.166666667 c 128,-1,27
 435 310 435 310 435.5 304 c 128,-1,28
 436 298 436 298 439.5 275 c 128,-1,29
 443 252 443 252 444 243 c 1,30,-1
 408 237 l 1,31,32
 392 294 392 294 386.5 307 c 128,-1,33
 381 320 381 320 374 320 c 2,34,-1
 217 320 l 1,35,-1
 217 51 l 1,36,-1
 306 52 l 1,37,38
 419 52 419 52 444 64.5 c 0,39,40
 447 66 447 66 448 66 c 0,41,42
 465 71 465 71 492 184 c 1,43,-1
 547 179 l 1,44,45
 548 162 548 162 548 118.5 c 128,-1,46
 548 75 548 75 537 0 c 1,47,-1
 50 0 l 1,0,-1
132 842 m 1,48,-1
 124 863 l 1,49,-1
 184 914 l 1,50,-1
 358 785 l 1,51,-1
 333 749 l 1,52,-1
 132 842 l 1,48,-1
EndSplineSet
Substitution2: "'c2sc' Capitals to Small Capitals in Latin lookup 4 subtable" Egrave.sc
Position2: "'cpsp' Capital Spacing in Latin lookup 0 subtable" dx=25 dy=0 dh=25 dv=0
EndChar

StartChar: Adieresis
Encoding: 196 196 129
Width: 670
Flags: HMW
HStem: 0 21G<14 14 14 203 428 428 428 661> 224 53<204 427 204 444 185 427> 682 20G<294 377 377 377> 775 110<225 254.5 224 256 418 447.5>
VStem: 188 105<816 845> 381 105<816 845>
LayerCount: 2
Fore
SplineSet
14 0 m 1,0,-1
 7 40 l 1,1,2
 45 50 45 50 53.5 56 c 128,-1,3
 62 62 62 62 70 83 c 2,4,-1
 294 702 l 1,5,-1
 377 702 l 1,6,-1
 606 67 l 2,7,8
 611 52 611 52 665 42 c 1,9,-1
 661 0 l 1,10,-1
 428 0 l 1,11,-1
 422 40 l 1,12,13
 492 54 492 54 492 73 c 0,14,15
 492 81 492 81 488 94 c 2,16,-1
 444 224 l 1,17,-1
 185 224 l 1,18,-1
 134 82 l 2,19,20
 130 70 130 70 130 65.5 c 0,21,22
 130 61 130 61 136 60 c 2,23,-1
 207 41 l 1,24,-1
 203 0 l 1,25,-1
 14 0 l 1,0,-1
204 277 m 1,26,-1
 427 277 l 1,27,-1
 329 558 l 2,28,29
 322 579 322 579 322 587 c 1,30,-1
 312 587 l 1,31,-1
 204 277 l 1,26,-1
433 775 m 0,32,33
 381 775 381 775 381 831 c 0,34,35
 381 853 381 853 395.5 869 c 128,-1,36
 410 885 410 885 433 885 c 0,37,38
 486 885 486 885 486 831 c 0,39,40
 486 808 486 808 471 791.5 c 128,-1,41
 456 775 456 775 433 775 c 0,32,33
240 775 m 0,42,43
 188 775 188 775 188 831 c 0,44,45
 188 853 188 853 202.5 869 c 128,-1,46
 217 885 217 885 240 885 c 0,47,48
 293 885 293 885 293 831 c 0,49,50
 293 808 293 808 278 791.5 c 128,-1,51
 263 775 263 775 240 775 c 0,42,43
EndSplineSet
Substitution2: "'c2sc' Capitals to Small Capitals in Latin lookup 4 subtable" Adieresis.sc
Position2: "'cpsp' Capital Spacing in Latin lookup 0 subtable" dx=25 dy=0 dh=25 dv=0
EndChar

StartChar: Atilde
Encoding: 195 195 130
Width: 670
Flags: HMW
HStem: 0 21G<14 14 14 203 428 428 428 661> 224 53<204 427 204 444 185 427> 682 20G<294 377 377 377> 778 78<410 442 410 447> 805 51 805 78<243.5 275> 871 20G<493 493>
LayerCount: 2
Fore
SplineSet
14 0 m 1,0,-1
 7 40 l 1,1,2
 45 50 45 50 53.5 56 c 128,-1,3
 62 62 62 62 70 83 c 2,4,-1
 294 702 l 1,5,-1
 377 702 l 1,6,-1
 606 67 l 2,7,8
 611 52 611 52 665 42 c 1,9,-1
 661 0 l 1,10,-1
 428 0 l 1,11,-1
 422 40 l 1,12,13
 492 54 492 54 492 73 c 0,14,15
 492 81 492 81 488 94 c 2,16,-1
 444 224 l 1,17,-1
 185 224 l 1,18,-1
 134 82 l 2,19,20
 130 70 130 70 130 65.5 c 0,21,22
 130 61 130 61 136 60 c 2,23,-1
 207 41 l 1,24,-1
 203 0 l 1,25,-1
 14 0 l 1,0,-1
204 277 m 1,26,-1
 427 277 l 1,27,-1
 329 558 l 2,28,29
 322 579 322 579 322 587 c 1,30,-1
 312 587 l 1,31,-1
 204 277 l 1,26,-1
493 891 m 1,32,-1
 518 879 l 1,33,34
 497 833 497 833 475.5 805.5 c 128,-1,35
 454 778 454 778 431.5 778 c 0,36,37
 409 778 409 778 342.5 791.5 c 128,-1,38
 276 805 276 805 252 805 c 0,39,40
 214 805 214 805 180 771 c 1,41,-1
 157 787 l 1,42,43
 189 840 189 840 212 861.5 c 128,-1,44
 235 883 235 883 258 883 c 0,45,46
 281 883 281 883 345.5 869.5 c 128,-1,47
 410 856 410 856 435 856 c 0,48,49
 460 856 460 856 493 891 c 1,32,-1
EndSplineSet
Substitution2: "'c2sc' Capitals to Small Capitals in Latin lookup 4 subtable" Atilde.sc
Position2: "'cpsp' Capital Spacing in Latin lookup 0 subtable" dx=25 dy=0 dh=25 dv=0
EndChar

StartChar: Acircumflex
Encoding: 194 194 131
Width: 670
Flags: HMW
HStem: 0 21G<14 14 14 203 428 428 428 661> 224 53<204 427 204 444 185 427> 682 20G<294 377 377 377> 894 20G<309 365 365 365>
LayerCount: 2
Fore
SplineSet
14 0 m 1,0,-1
 7 40 l 1,1,2
 45 50 45 50 53.5 56 c 128,-1,3
 62 62 62 62 70 83 c 2,4,-1
 294 702 l 1,5,-1
 377 702 l 1,6,-1
 606 67 l 2,7,8
 611 52 611 52 665 42 c 1,9,-1
 661 0 l 1,10,-1
 428 0 l 1,11,-1
 422 40 l 1,12,13
 492 54 492 54 492 73 c 0,14,15
 492 81 492 81 488 94 c 2,16,-1
 444 224 l 1,17,-1
 185 224 l 1,18,-1
 134 82 l 2,19,20
 130 70 130 70 130 65.5 c 0,21,22
 130 61 130 61 136 60 c 2,23,-1
 207 41 l 1,24,-1
 203 0 l 1,25,-1
 14 0 l 1,0,-1
204 277 m 1,26,-1
 427 277 l 1,27,-1
 329 558 l 2,28,29
 322 579 322 579 322 587 c 1,30,-1
 312 587 l 1,31,-1
 204 277 l 1,26,-1
476 749 m 1,32,-1
 337 840 l 1,33,-1
 198 749 l 1,34,-1
 173 775 l 1,35,-1
 309 914 l 1,36,-1
 365 914 l 1,37,-1
 501 775 l 1,38,-1
 476 749 l 1,32,-1
EndSplineSet
Substitution2: "'c2sc' Capitals to Small Capitals in Latin lookup 4 subtable" Acircumflex.sc
Position2: "'cpsp' Capital Spacing in Latin lookup 0 subtable" dx=25 dy=0 dh=25 dv=0
EndChar

StartChar: Aacute
Encoding: 193 193 132
Width: 670
Flags: HMW
HStem: 0 21G<14 14 14 203 428 428 428 661> 224 53<204 427 204 444 185 427> 682 20G<294 377 377 377> 894 20G<444 444>
LayerCount: 2
Fore
SplineSet
14 0 m 1,0,-1
 7 40 l 1,1,2
 45 50 45 50 53.5 56 c 128,-1,3
 62 62 62 62 70 83 c 2,4,-1
 294 702 l 1,5,-1
 377 702 l 1,6,-1
 606 67 l 2,7,8
 611 52 611 52 665 42 c 1,9,-1
 661 0 l 1,10,-1
 428 0 l 1,11,-1
 422 40 l 1,12,13
 492 54 492 54 492 73 c 0,14,15
 492 81 492 81 488 94 c 2,16,-1
 444 224 l 1,17,-1
 185 224 l 1,18,-1
 134 82 l 2,19,20
 130 70 130 70 130 65.5 c 0,21,22
 130 61 130 61 136 60 c 2,23,-1
 207 41 l 1,24,-1
 203 0 l 1,25,-1
 14 0 l 1,0,-1
204 277 m 1,26,-1
 427 277 l 1,27,-1
 329 558 l 2,28,29
 322 579 322 579 322 587 c 1,30,-1
 312 587 l 1,31,-1
 204 277 l 1,26,-1
504 863 m 1,32,-1
 496 842 l 1,33,-1
 295 749 l 1,34,-1
 270 785 l 1,35,-1
 444 914 l 1,36,-1
 504 863 l 1,32,-1
EndSplineSet
Substitution2: "'c2sc' Capitals to Small Capitals in Latin lookup 4 subtable" Aacute.sc
Position2: "'cpsp' Capital Spacing in Latin lookup 0 subtable" dx=25 dy=0 dh=25 dv=0
EndChar

StartChar: Agrave
Encoding: 192 192 133
Width: 670
Flags: HMW
HStem: 0 21G<14 14 14 203 428 428 428 661> 224 53<204 427 204 444 185 427> 682 20G<294 377 377 377> 894 20G<230 230>
LayerCount: 2
Fore
SplineSet
14 0 m 1,0,-1
 7 40 l 1,1,2
 45 50 45 50 53.5 56 c 128,-1,3
 62 62 62 62 70 83 c 2,4,-1
 294 702 l 1,5,-1
 377 702 l 1,6,-1
 606 67 l 2,7,8
 611 52 611 52 665 42 c 1,9,-1
 661 0 l 1,10,-1
 428 0 l 1,11,-1
 422 40 l 1,12,13
 492 54 492 54 492 73 c 0,14,15
 492 81 492 81 488 94 c 2,16,-1
 444 224 l 1,17,-1
 185 224 l 1,18,-1
 134 82 l 2,19,20
 130 70 130 70 130 65.5 c 0,21,22
 130 61 130 61 136 60 c 2,23,-1
 207 41 l 1,24,-1
 203 0 l 1,25,-1
 14 0 l 1,0,-1
204 277 m 1,26,-1
 427 277 l 1,27,-1
 329 558 l 2,28,29
 322 579 322 579 322 587 c 1,30,-1
 312 587 l 1,31,-1
 204 277 l 1,26,-1
178 842 m 1,32,-1
 170 863 l 1,33,-1
 230 914 l 1,34,-1
 404 785 l 1,35,-1
 379 749 l 1,36,-1
 178 842 l 1,32,-1
EndSplineSet
Substitution2: "'c2sc' Capitals to Small Capitals in Latin lookup 4 subtable" Agrave.sc
Position2: "'cpsp' Capital Spacing in Latin lookup 0 subtable" dx=25 dy=0 dh=25 dv=0
EndChar

StartChar: Ugrave
Encoding: 217 217 134
Width: 736
Flags: HMW
HStem: -9 67<325 459 325 465> 673 20G<45 290 290 290 484 719 719 719> 894 20G<270 270>
VStem: 115 97<249 264 264 592 592 611.5> 574 67<249 257 257 573 573 601.5>
LayerCount: 2
Fore
SplineSet
574 573 m 2,0,1
 574 617 574 617 557.5 632 c 128,-1,2
 541 647 541 647 478 654 c 1,3,-1
 484 693 l 1,4,-1
 719 693 l 1,5,-1
 723 654 l 1,6,-1
 661 642 l 2,7,8
 643 638 643 638 641.5 627.5 c 0,9,10
 641 624 641 624 641 616 c 2,11,-1
 641 257 l 2,12,13
 641 134 641 134 574 62.5 c 128,-1,14
 507 -9 507 -9 373 -9 c 0,15,16
 115 -9 115 -9 115 249 c 2,17,-1
 115 592 l 2,18,19
 115 623 115 623 103.5 634 c 128,-1,20
 92 645 92 645 39 654 c 1,21,-1
 45 693 l 1,22,-1
 290 693 l 1,23,-1
 294 654 l 1,24,-1
 232 642 l 2,25,26
 212 638 212 638 212 616 c 2,27,-1
 212 264 l 2,28,29
 212 162 212 162 254 110 c 128,-1,30
 296 58 296 58 390.5 58 c 128,-1,31
 485 58 485 58 529.5 114 c 128,-1,32
 574 170 574 170 574 249 c 2,33,-1
 574 573 l 2,0,1
218 842 m 1,34,-1
 210 863 l 1,35,-1
 270 914 l 1,36,-1
 444 785 l 1,37,-1
 419 749 l 1,38,-1
 218 842 l 1,34,-1
EndSplineSet
Substitution2: "'c2sc' Capitals to Small Capitals in Latin lookup 4 subtable" Ugrave.sc
Position2: "'cpsp' Capital Spacing in Latin lookup 0 subtable" dx=25 dy=0 dh=25 dv=0
EndChar

StartChar: Uacute
Encoding: 218 218 135
Width: 736
Flags: HMW
HStem: -9 67<325 459 325 465> 673 20G<45 290 290 290 484 719 719 719> 894 20G<495 495>
VStem: 115 97<249 264 264 592 592 611.5> 574 67<249 257 257 573 573 601.5>
LayerCount: 2
Fore
SplineSet
574 573 m 2,0,1
 574 617 574 617 557.5 632 c 128,-1,2
 541 647 541 647 478 654 c 1,3,-1
 484 693 l 1,4,-1
 719 693 l 1,5,-1
 723 654 l 1,6,-1
 661 642 l 2,7,8
 643 638 643 638 641.5 627.5 c 0,9,10
 641 624 641 624 641 616 c 2,11,-1
 641 257 l 2,12,13
 641 134 641 134 574 62.5 c 128,-1,14
 507 -9 507 -9 373 -9 c 0,15,16
 115 -9 115 -9 115 249 c 2,17,-1
 115 592 l 2,18,19
 115 623 115 623 103.5 634 c 128,-1,20
 92 645 92 645 39 654 c 1,21,-1
 45 693 l 1,22,-1
 290 693 l 1,23,-1
 294 654 l 1,24,-1
 232 642 l 2,25,26
 212 638 212 638 212 616 c 2,27,-1
 212 264 l 2,28,29
 212 162 212 162 254 110 c 128,-1,30
 296 58 296 58 390.5 58 c 128,-1,31
 485 58 485 58 529.5 114 c 128,-1,32
 574 170 574 170 574 249 c 2,33,-1
 574 573 l 2,0,1
555 863 m 1,34,-1
 547 842 l 1,35,-1
 346 749 l 1,36,-1
 321 785 l 1,37,-1
 495 914 l 1,38,-1
 555 863 l 1,34,-1
EndSplineSet
Substitution2: "'c2sc' Capitals to Small Capitals in Latin lookup 4 subtable" Uacute.sc
Position2: "'cpsp' Capital Spacing in Latin lookup 0 subtable" dx=25 dy=0 dh=25 dv=0
EndChar

StartChar: Ucircumflex
Encoding: 219 219 136
Width: 736
Flags: HMW
HStem: -9 67<325 459 325 465> 673 20G<45 290 290 290 484 719 719 719> 894 20G<349 405 405 405>
VStem: 115 97<249 264 264 592 592 611.5> 574 67<249 257 257 573 573 601.5>
LayerCount: 2
Fore
SplineSet
574 573 m 2,0,1
 574 617 574 617 557.5 632 c 128,-1,2
 541 647 541 647 478 654 c 1,3,-1
 484 693 l 1,4,-1
 719 693 l 1,5,-1
 723 654 l 1,6,-1
 661 642 l 2,7,8
 643 638 643 638 641.5 627.5 c 0,9,10
 641 624 641 624 641 616 c 2,11,-1
 641 257 l 2,12,13
 641 134 641 134 574 62.5 c 128,-1,14
 507 -9 507 -9 373 -9 c 0,15,16
 115 -9 115 -9 115 249 c 2,17,-1
 115 592 l 2,18,19
 115 623 115 623 103.5 634 c 128,-1,20
 92 645 92 645 39 654 c 1,21,-1
 45 693 l 1,22,-1
 290 693 l 1,23,-1
 294 654 l 1,24,-1
 232 642 l 2,25,26
 212 638 212 638 212 616 c 2,27,-1
 212 264 l 2,28,29
 212 162 212 162 254 110 c 128,-1,30
 296 58 296 58 390.5 58 c 128,-1,31
 485 58 485 58 529.5 114 c 128,-1,32
 574 170 574 170 574 249 c 2,33,-1
 574 573 l 2,0,1
516 749 m 1,34,-1
 377 840 l 1,35,-1
 238 749 l 1,36,-1
 213 775 l 1,37,-1
 349 914 l 1,38,-1
 405 914 l 1,39,-1
 541 775 l 1,40,-1
 516 749 l 1,34,-1
EndSplineSet
Substitution2: "'c2sc' Capitals to Small Capitals in Latin lookup 4 subtable" Ucircumflex.sc
Position2: "'cpsp' Capital Spacing in Latin lookup 0 subtable" dx=25 dy=0 dh=25 dv=0
EndChar

StartChar: Yacute
Encoding: 221 221 137
Width: 598
Flags: HMW
HStem: 0 21G<169 444 169 169> 673 20G<12 247 247 247 397 595 595 595> 894 20G<426 426>
VStem: 254 97<101 279 279 279>
LayerCount: 2
Fore
SplineSet
319 361 m 1,0,-1
 430 576 l 2,1,2
 451 616 451 616 451 625 c 0,3,4
 451 634 451 634 438.5 639.5 c 128,-1,5
 426 645 426 645 391 653 c 1,6,-1
 397 693 l 1,7,-1
 595 693 l 1,8,-1
 599 651 l 1,9,10
 555 642 555 642 538 631.5 c 128,-1,11
 521 621 521 621 509 597 c 2,12,-1
 351 287 l 1,13,-1
 351 77 l 2,14,15
 351 54 351 54 371 51 c 2,16,-1
 448 39 l 1,17,-1
 444 0 l 1,18,-1
 169 0 l 1,19,-1
 163 39 l 1,20,21
 226 49 226 49 240 59.5 c 128,-1,22
 254 70 254 70 254 101 c 2,23,-1
 254 279 l 1,24,-1
 74 610 l 2,25,26
 61 632 61 632 50.5 638.5 c 128,-1,27
 40 645 40 645 5 653 c 1,28,-1
 12 693 l 1,29,-1
 247 693 l 1,30,-1
 251 652 l 1,31,-1
 184 634 l 2,32,33
 177 633 177 633 177 628 c 0,34,35
 177 623 177 623 184 611 c 2,36,-1
 299 390 l 1,37,38
 309 373 309 373 309 361 c 1,39,-1
 319 361 l 1,0,-1
486 863 m 1,40,-1
 478 842 l 1,41,-1
 277 749 l 1,42,-1
 252 785 l 1,43,-1
 426 914 l 1,44,-1
 486 863 l 1,40,-1
EndSplineSet
Substitution2: "'c2sc' Capitals to Small Capitals in Latin lookup 4 subtable" Yacute.sc
Position2: "'cpsp' Capital Spacing in Latin lookup 0 subtable" dx=25 dy=0 dh=25 dv=0
EndChar

StartChar: dcaron
Encoding: 271 271 138
Width: 569
Flags: HMW
HStem: -9 72<214 249> -4 21G<404.5 411> 431 57<236 279> 752 20G 754 20G<609 609>
VStem: 36 97<183 282.5 183 303> 133 238<183 282.5> 371 90<143 382 382 382 509 677 677 691.5> 461 67<676.5 703.5 676.5 762>
LayerCount: 2
Fore
SplineSet
360 66 m 2,0,1
 302 -9 302 -9 221 -9 c 128,-1,2
 140 -9 140 -9 88 55.5 c 128,-1,3
 36 120 36 120 36 232 c 128,-1,4
 36 344 36 344 95 416 c 128,-1,5
 154 488 154 488 260 488 c 0,6,7
 333 488 333 488 368 462 c 1,8,-1
 375 465 l 1,9,10
 371 481 371 481 371 509 c 2,11,-1
 371 677 l 2,12,13
 371 698 371 698 350.5 708.5 c 128,-1,14
 330 719 330 719 277 726 c 1,15,-1
 283 758 l 1,16,17
 390 772 390 772 450 772 c 1,18,-1
 461 762 l 1,19,-1
 461 98 l 2,20,21
 461 72 461 72 473.5 61.5 c 128,-1,22
 486 51 486 51 537 41 c 1,23,-1
 531 9 l 1,24,-1
 411 -4 l 1,25,26
 401 -4 401 -4 389 16 c 128,-1,27
 377 36 377 36 377 52 c 128,-1,28
 377 68 377 68 378 76 c 1,29,-1
 370 79 l 1,30,-1
 360 66 l 2,0,1
164.5 110 m 128,-1,32
 196 63 196 63 244 63 c 128,-1,33
 292 63 292 63 344 97 c 0,34,35
 371 115 371 115 371 143 c 2,36,-1
 371 382 l 1,37,38
 330 431 330 431 243 431 c 0,39,40
 200 431 200 431 175 403 c 0,41,42
 133 356 133 356 133 256.5 c 128,-1,31
 133 157 133 157 164.5 110 c 128,-1,32
609 774 m 1,43,-1
 621 755 l 1,44,45
 612 659 612 659 556 577 c 1,46,-1
 514 591 l 1,47,48
 528 644 528 644 528 684.5 c 128,-1,49
 528 725 528 725 524 752 c 1,50,-1
 609 774 l 1,43,-1
EndSplineSet
Substitution2: "'smcp' Lowercase to Small Capitals in Latin lookup 5 subtable" Dcaron.sc
EndChar

StartChar: lcaron
Encoding: 318 318 139
Width: 303
Flags: HMW
HStem: 0 21G<40 40 40 259> 752 20G 754 20G<348 348>
VStem: 104 90<96 677 677 691.5> 194 73<676.5 703.5 676.5 762>
LayerCount: 2
Fore
SplineSet
40 0 m 1,0,-1
 34 39 l 1,1,2
 83 49 83 49 93.5 59.5 c 128,-1,3
 104 70 104 70 104 96 c 2,4,-1
 104 677 l 2,5,6
 104 698 104 698 88 707.5 c 128,-1,7
 72 717 72 717 28 726 c 1,8,-1
 34 758 l 1,9,10
 141 772 141 772 183 772 c 1,11,-1
 194 762 l 1,12,-1
 194 72 l 2,13,14
 194 60.3333333333 194 60.3333333333 199.5 56.6666666667 c 128,-1,15
 205 53 205 53 214 51 c 2,16,-1
 263 39 l 1,17,-1
 259 0 l 1,18,-1
 40 0 l 1,0,-1
348 774 m 1,19,-1
 360 755 l 1,20,21
 351 659 351 659 295 577 c 1,22,-1
 253 591 l 1,23,24
 267 644 267 644 267 684.5 c 128,-1,25
 267 725 267 725 263 752 c 1,26,-1
 348 774 l 1,19,-1
EndSplineSet
Substitution2: "'smcp' Lowercase to Small Capitals in Latin lookup 5 subtable" Lcaron.sc
EndChar

StartChar: Cacute
Encoding: 262 262 141
Width: 620
Flags: HMW
HStem: -9 56<329.5 411> 649 53<291.5 394.5> 894 20G<461 461>
VStem: 35 111<244 416>
LayerCount: 2
Fore
SplineSet
35 331 m 0,0,1
 35 445.019230769 35 445.019230769 82 534.5 c 0,2,3
 136.814130212 638.85767098 136.814130212 638.85767098 247 679.5 c 0,4,5
 308 702 308 702 374 702 c 128,-1,6
 440 702 440 702 501 692 c 128,-1,7
 562 682 562 682 581 674 c 1,8,9
 587 637 587 637 587 596.5 c 128,-1,10
 587 556 587 556 585 506 c 1,11,-1
 528 498 l 1,12,13
 506 614 506 614 489 626 c 0,14,15
 480 633 480 633 442.5 641 c 128,-1,16
 405 649 405 649 368 649 c 0,17,18
 258 649 258 649 202 568 c 128,-1,19
 146 487 146 487 146 355 c 0,20,21
 146 199 146 199 217 123 c 128,-1,22
 288 47 288 47 393 47 c 0,23,24
 431 47 431 47 464.5 56 c 128,-1,25
 498 65 498 65 508.5 73 c 128,-1,26
 519 81 519 81 541 200 c 1,27,-1
 596 198 l 1,28,29
 596 122 596 122 585 36 c 1,30,31
 554 19 554 19 491.5 5 c 128,-1,32
 429 -9 429 -9 364 -9 c 0,33,34
 201 -9 201 -9 118 87 c 128,-1,35
 35 183 35 183 35 331 c 0,0,1
521 863 m 1,36,-1
 513 842 l 1,37,-1
 312 749 l 1,38,-1
 287 785 l 1,39,-1
 461 914 l 1,40,-1
 521 863 l 1,36,-1
EndSplineSet
Substitution2: "'c2sc' Capitals to Small Capitals in Latin lookup 4 subtable" Cacute.sc
Position2: "'cpsp' Capital Spacing in Latin lookup 0 subtable" dx=25 dy=0 dh=25 dv=0
EndChar

StartChar: jcircumflex
Encoding: 309 309 142
Width: 280
Flags: HMW
HStem: -219 79<18.5 32.5 18.5 58.5> 458 20G<167 179> 735 20G<102 165 165 165>
VStem: -53 243<-192 38> 100 90<68 383 383 397.5>
LayerCount: 2
Fore
SplineSet
165 755 m 1,0,-1
 283 586 l 1,1,-1
 248 561 l 1,2,-1
 133 679 l 1,3,-1
 19 561 l 1,4,-1
 -16 586 l 1,5,-1
 102 755 l 1,6,-1
 165 755 l 1,0,-1
100 68 m 2,7,-1
 100 383 l 2,8,9
 100 404 100 404 84 413.5 c 128,-1,10
 68 423 68 423 24 432 c 1,11,-1
 30 464 l 1,12,13
 137 478 137 478 179 478 c 1,14,-1
 190 468 l 1,15,-1
 190 38 l 2,16,17
 190 -56 190 -56 134 -137.5 c 128,-1,18
 78 -219 78 -219 26 -219 c 0,19,20
 -10 -219 -10 -219 -50 -212 c 1,21,22
 -53 -200 -53 -200 -53 -179 c 0,23,24
 -53 -158 -53 -158 -36 -130 c 1,25,26
 4 -140 4 -140 24.5 -140 c 0,27,28
 45 -140 45 -140 55 -133 c 0,29,30
 76 -119 76 -119 88 -61.5 c 128,-1,31
 100 -4 100 -4 100 68 c 2,7,-1
EndSplineSet
EndChar

StartChar: itilde
Encoding: 297 297 143
Width: 310
Flags: HMW
HStem: 0 21G<47 47 47 266> 458 20G<178 190> 595 77<213 245 213 250> 637 35 637 77<46.5 78> 695 20G<296 296>
VStem: 111 90<96 383 383 397.5>
LayerCount: 2
Fore
SplineSet
296 715 m 1,0,-1
 321 702 l 1,1,2
 300 653 300 653 278.5 624 c 128,-1,3
 257 595 257 595 234.5 595 c 128,-1,4
 212 595 212 595 145.5 616 c 128,-1,5
 79 637 79 637 55 637 c 0,6,7
 17 637 17 637 -17 595 c 1,8,-1
 -40 612 l 1,9,10
 -8 668 -8 668 15 691 c 128,-1,11
 38 714 38 714 61 714 c 128,-1,12
 84 714 84 714 148.5 693 c 128,-1,13
 213 672 213 672 237.5 672 c 128,-1,14
 262 672 262 672 296 715 c 1,0,-1
47 0 m 1,15,-1
 41 39 l 1,16,17
 90 49 90 49 100.5 59.5 c 128,-1,18
 111 70 111 70 111 96 c 2,19,-1
 111 383 l 2,20,21
 111 404 111 404 95 413.5 c 128,-1,22
 79 423 79 423 35 432 c 1,23,-1
 41 464 l 1,24,25
 148 478 148 478 190 478 c 1,26,-1
 201 468 l 1,27,-1
 201 72 l 2,28,29
 201 60.3333333333 201 60.3333333333 206.5 56.6666666667 c 128,-1,30
 212 53 212 53 221 51 c 2,31,-1
 270 39 l 1,32,-1
 266 0 l 1,33,-1
 47 0 l 1,15,-1
EndSplineSet
Substitution2: "'smcp' Lowercase to Small Capitals in Latin lookup 5 subtable" Itilde.sc
EndChar

StartChar: Itilde
Encoding: 296 296 144
Width: 337
Flags: HMW
HStem: 0 21G<50 50 50 295> 673 20G<50 295 295 295> 778 78<248 280 248 285> 805 51 805 78<81.5 113> 871 20G<331 331>
VStem: 120 97<101 592 592 611.5>
LayerCount: 2
Fore
SplineSet
50 0 m 1,0,-1
 44 39 l 1,1,2
 97 48 97 48 108.5 59 c 128,-1,3
 120 70 120 70 120 101 c 2,4,-1
 120 592 l 2,5,6
 120 623 120 623 108.5 634 c 128,-1,7
 97 645 97 645 44 654 c 1,8,-1
 50 693 l 1,9,-1
 295 693 l 1,10,-1
 299 654 l 1,11,-1
 237 642 l 2,12,13
 217 638 217 638 217 616 c 2,14,-1
 217 77 l 2,15,16
 217 55 217 55 237 51 c 2,17,-1
 299 39 l 1,18,-1
 295 0 l 1,19,-1
 50 0 l 1,0,-1
331 891 m 1,20,-1
 356 879 l 1,21,22
 335 833 335 833 313.5 805.5 c 128,-1,23
 292 778 292 778 269.5 778 c 0,24,25
 247 778 247 778 180.5 791.5 c 128,-1,26
 114 805 114 805 90 805 c 0,27,28
 52 805 52 805 18 771 c 1,29,-1
 -5 787 l 1,30,31
 27 840 27 840 50 861.5 c 128,-1,32
 73 883 73 883 96 883 c 0,33,34
 119 883 119 883 183.5 869.5 c 128,-1,35
 248 856 248 856 273 856 c 0,36,37
 298 856 298 856 331 891 c 1,20,-1
EndSplineSet
Substitution2: "'c2sc' Capitals to Small Capitals in Latin lookup 4 subtable" Itilde.sc
Position2: "'cpsp' Capital Spacing in Latin lookup 0 subtable" dx=25 dy=0 dh=25 dv=0
EndChar

StartChar: Ccircumflex
Encoding: 264 264 146
Width: 620
Flags: HMW
HStem: -9 56<329.5 411> 649 53<291.5 394.5> 894 20G<323 379 379 379>
VStem: 35 111<244 416>
LayerCount: 2
Fore
SplineSet
35 331 m 0,0,1
 35 445.019230769 35 445.019230769 82 534.5 c 0,2,3
 136.814130212 638.85767098 136.814130212 638.85767098 247 679.5 c 0,4,5
 308 702 308 702 374 702 c 128,-1,6
 440 702 440 702 501 692 c 128,-1,7
 562 682 562 682 581 674 c 1,8,9
 587 637 587 637 587 596.5 c 128,-1,10
 587 556 587 556 585 506 c 1,11,-1
 528 498 l 1,12,13
 506 614 506 614 489 626 c 0,14,15
 480 633 480 633 442.5 641 c 128,-1,16
 405 649 405 649 368 649 c 0,17,18
 258 649 258 649 202 568 c 128,-1,19
 146 487 146 487 146 355 c 0,20,21
 146 199 146 199 217 123 c 128,-1,22
 288 47 288 47 393 47 c 0,23,24
 431 47 431 47 464.5 56 c 128,-1,25
 498 65 498 65 508.5 73 c 128,-1,26
 519 81 519 81 541 200 c 1,27,-1
 596 198 l 1,28,29
 596 122 596 122 585 36 c 1,30,31
 554 19 554 19 491.5 5 c 128,-1,32
 429 -9 429 -9 364 -9 c 0,33,34
 201 -9 201 -9 118 87 c 128,-1,35
 35 183 35 183 35 331 c 0,0,1
490 749 m 1,36,-1
 351 840 l 1,37,-1
 212 749 l 1,38,-1
 187 775 l 1,39,-1
 323 914 l 1,40,-1
 379 914 l 1,41,-1
 515 775 l 1,42,-1
 490 749 l 1,36,-1
EndSplineSet
Substitution2: "'c2sc' Capitals to Small Capitals in Latin lookup 4 subtable" Ccircumflex.sc
Position2: "'cpsp' Capital Spacing in Latin lookup 0 subtable" dx=25 dy=0 dh=25 dv=0
EndChar

StartChar: Gcircumflex
Encoding: 284 284 147
Width: 681
Flags: HMW
HStem: -9 56<329.5 411> 649 53<291.5 394.5> 894 20G<321 377 377 377>
VStem: 35 111<244 416> 490 97<63 202 202 221.5>
LayerCount: 2
Fore
SplineSet
587 37 m 1,0,1
 554 20 554 20 491.5 5.5 c 128,-1,2
 429 -9 429 -9 364 -9 c 0,3,4
 201 -9 201 -9 118 87 c 128,-1,5
 35 183 35 183 35 331 c 0,6,7
 35 445.019230769 35 445.019230769 82 534.5 c 0,8,9
 136.814130212 638.85767098 136.814130212 638.85767098 247 679.5 c 0,10,11
 308 702 308 702 374 702 c 128,-1,12
 440 702 440 702 501 692 c 128,-1,13
 562 682 562 682 581 674 c 1,14,15
 587 637 587 637 587 596.5 c 128,-1,16
 587 556 587 556 585 506 c 1,17,-1
 528 498 l 1,18,19
 506 614 506 614 489 626 c 0,20,21
 480 633 480 633 442.5 641 c 128,-1,22
 405 649 405 649 368 649 c 0,23,24
 258 649 258 649 202 568 c 128,-1,25
 146 487 146 487 146 355 c 0,26,27
 146 199 146 199 217 123 c 128,-1,28
 288 47 288 47 393 47 c 0,29,30
 448 47 448 47 490 63 c 1,31,-1
 490 202 l 2,32,33
 490 233 490 233 478.5 244 c 128,-1,34
 467 255 467 255 414 264 c 1,35,-1
 420 303 l 1,36,-1
 654 303 l 1,37,-1
 658 264 l 1,38,-1
 607 252 l 2,39,40
 587 248 587 248 587 226 c 2,41,-1
 587 37 l 1,0,1
488 749 m 1,42,-1
 349 840 l 1,43,-1
 210 749 l 1,44,-1
 185 775 l 1,45,-1
 321 914 l 1,46,-1
 377 914 l 1,47,-1
 513 775 l 1,48,-1
 488 749 l 1,42,-1
EndSplineSet
Substitution2: "'c2sc' Capitals to Small Capitals in Latin lookup 4 subtable" Gcircumflex.sc
Position2: "'cpsp' Capital Spacing in Latin lookup 0 subtable" dx=25 dy=0 dh=25 dv=0
EndChar

StartChar: Hcircumflex
Encoding: 292 292 149
Width: 767
Flags: HMW
HStem: 0 21G<50 50 50 295 480 480 480 725> 327 60<217 550 217 550> 673 20G<50 295 295 295 480 725 725 725> 894 20G<361 417 417 417>
VStem: 120 97<101 327 387 592 592 611.5> 550 97<101 327 327 327 387 592 592 611.5>
LayerCount: 2
Fore
SplineSet
50 0 m 1,0,-1
 44 39 l 1,1,2
 97 48 97 48 108.5 59 c 128,-1,3
 120 70 120 70 120 101 c 2,4,-1
 120 592 l 2,5,6
 120 623 120 623 108.5 634 c 128,-1,7
 97 645 97 645 44 654 c 1,8,-1
 50 693 l 1,9,-1
 295 693 l 1,10,-1
 299 654 l 1,11,-1
 237 642 l 2,12,13
 217 638 217 638 217 616 c 2,14,-1
 217 387 l 1,15,-1
 550 387 l 1,16,-1
 550 592 l 2,17,18
 550 623 550 623 538.5 634 c 128,-1,19
 527 645 527 645 474 654 c 1,20,-1
 480 693 l 1,21,-1
 725 693 l 1,22,-1
 729 654 l 1,23,-1
 667 642 l 2,24,25
 647 638 647 638 647 616 c 2,26,-1
 647 77 l 2,27,28
 647 55 647 55 667 51 c 2,29,-1
 729 39 l 1,30,-1
 725 0 l 1,31,-1
 480 0 l 1,32,-1
 474 39 l 1,33,34
 527 48 527 48 538.5 59 c 128,-1,35
 550 70 550 70 550 101 c 2,36,-1
 550 327 l 1,37,-1
 217 327 l 1,38,-1
 217 77 l 2,39,40
 217 55 217 55 237 51 c 2,41,-1
 299 39 l 1,42,-1
 295 0 l 1,43,-1
 50 0 l 1,0,-1
528 749 m 1,44,-1
 389 840 l 1,45,-1
 250 749 l 1,46,-1
 225 775 l 1,47,-1
 361 914 l 1,48,-1
 417 914 l 1,49,-1
 553 775 l 1,50,-1
 528 749 l 1,44,-1
EndSplineSet
Substitution2: "'c2sc' Capitals to Small Capitals in Latin lookup 4 subtable" Hcircumflex.sc
Position2: "'cpsp' Capital Spacing in Latin lookup 0 subtable" dx=25 dy=0 dh=25 dv=0
EndChar

StartChar: hcircumflex
Encoding: 293 293 150
Width: 596
Flags: HMW
HStem: 0 21G<40 40 40 254 355 355 355 569> 416 72<327.5 365.5> 894 20G<96 152 152 152>
VStem: 104 90<96 329 468.5 481 481 656 656 670.5> 414 90<96 312 312 338>
LayerCount: 2
Fore
SplineSet
40 0 m 1,0,-1
 34 39 l 1,1,2
 83 49 83 49 93.5 59.5 c 128,-1,3
 104 70 104 70 104 96 c 2,4,-1
 104 656 l 2,5,6
 104 677 104 677 88 686.5 c 128,-1,7
 72 696 72 696 28 705 c 1,8,-1
 34 737 l 1,9,10
 141 751 141 751 183 751 c 1,11,-1
 194 741 l 1,12,-1
 194 481 l 2,13,14
 194 426 194 426 187 403 c 1,15,-1
 195 400 l 1,16,-1
 207 414 l 1,17,18
 269 488 269 488 362 488 c 0,19,20
 429 488 429 488 466.5 449 c 128,-1,21
 504 410 504 410 504 342 c 2,22,-1
 504 72 l 2,23,24
 504 60.3333333333 504 60.3333333333 509.5 56.6666666667 c 128,-1,25
 515 53 515 53 524 51 c 2,26,-1
 573 39 l 1,27,-1
 569 0 l 1,28,-1
 355 0 l 1,29,-1
 349 39 l 1,30,31
 394 48 394 48 404 59 c 128,-1,32
 414 70 414 70 414 96 c 2,33,-1
 414 312 l 2,34,35
 414 360 414 360 396.5 388 c 128,-1,36
 379 416 379 416 326.5 416 c 128,-1,37
 274 416 274 416 217 377 c 0,38,39
 204 368 204 368 199 359.5 c 128,-1,40
 194 351 194 351 194 329 c 2,41,-1
 194 72 l 2,42,43
 194 60.3333333333 194 60.3333333333 199.5 56.6666666667 c 128,-1,44
 205 53 205 53 214 51 c 2,45,-1
 258 39 l 1,46,-1
 254 0 l 1,47,-1
 40 0 l 1,0,-1
263 749 m 1,48,-1
 124 840 l 1,49,-1
 -15 749 l 1,50,-1
 -40 775 l 1,51,-1
 96 914 l 1,52,-1
 152 914 l 1,53,-1
 288 775 l 1,54,-1
 263 749 l 1,48,-1
EndSplineSet
Substitution2: "'smcp' Lowercase to Small Capitals in Latin lookup 5 subtable" Hcircumflex.sc
EndChar

StartChar: Jcircumflex
Encoding: 308 308 151
Width: 336
Flags: HMW
HStem: -119 85<53.5 69 53.5 97> 673 20G<42 307 307 307> 894 20G<144 200 200 200>
VStem: 122 97<158 592 592 611.5>
LayerCount: 2
Fore
SplineSet
219 622 m 2,0,-1
 219 128 l 2,1,2
 219 37 219 37 167.5 -41 c 128,-1,3
 116 -119 116 -119 62 -119 c 0,4,5
 19 -119 19 -119 -21 -111 c 1,6,7
 -24 -99 -24 -99 -24 -76 c 0,8,9
 -24 -53 -24 -53 -5 -23 c 1,10,11
 42 -34 42 -34 61 -34 c 0,12,13
 80 -34 80 -34 93 -26 c 0,14,15
 122 -6 122 -6 122 158 c 2,16,-1
 122 592 l 2,17,18
 122 622 122 622 106.5 633 c 128,-1,19
 91 644 91 644 36 654 c 1,20,-1
 42 693 l 1,21,-1
 307 693 l 1,22,-1
 311 654 l 1,23,-1
 239 642 l 2,24,25
 219 638 219 638 219 622 c 2,0,-1
311 749 m 1,26,-1
 172 840 l 1,27,-1
 33 749 l 1,28,-1
 8 775 l 1,29,-1
 144 914 l 1,30,-1
 200 914 l 1,31,-1
 336 775 l 1,32,-1
 311 749 l 1,26,-1
EndSplineSet
Position2: "'cpsp' Capital Spacing in Latin lookup 0 subtable" dx=25 dy=0 dh=25 dv=0
EndChar

StartChar: lacute
Encoding: 314 314 152
Width: 302
Flags: HMW
HStem: 0 21G<40 40 40 259> 894 20G<201 201>
VStem: 104 90<96 624 624 638.5>
LayerCount: 2
Fore
SplineSet
40 0 m 1,0,-1
 34 39 l 1,1,2
 83 49 83 49 93.5 59.5 c 128,-1,3
 104 70 104 70 104 96 c 2,4,-1
 104 624 l 2,5,6
 104 645 104 645 88 654.5 c 128,-1,7
 72 664 72 664 28 673 c 1,8,-1
 34 705 l 1,9,10
 141 719 141 719 183 719 c 1,11,-1
 194 709 l 1,12,-1
 194 72 l 2,13,14
 194 60.3333333333 194 60.3333333333 199.5 56.6666666667 c 128,-1,15
 205 53 205 53 214 51 c 2,16,-1
 263 39 l 1,17,-1
 259 0 l 1,18,-1
 40 0 l 1,0,-1
261 863 m 1,19,-1
 253 842 l 1,20,-1
 52 749 l 1,21,-1
 27 785 l 1,22,-1
 201 914 l 1,23,-1
 261 863 l 1,19,-1
EndSplineSet
Substitution2: "'smcp' Lowercase to Small Capitals in Latin lookup 5 subtable" Lacute.sc
EndChar

StartChar: Lacute
Encoding: 313 313 153
Width: 558
Flags: HMW
HStem: 0 52<306 306 306 537> 673 20G<50 295 295 295> 894 20G<280 280>
VStem: 120 97<101 592 592 611.5>
LayerCount: 2
Fore
SplineSet
50 0 m 1,0,-1
 44 39 l 1,1,2
 97 48 97 48 108.5 59 c 128,-1,3
 120 70 120 70 120 101 c 2,4,-1
 120 592 l 2,5,6
 120 623 120 623 108.5 634 c 128,-1,7
 97 645 97 645 44 654 c 1,8,-1
 50 693 l 1,9,-1
 295 693 l 1,10,-1
 299 654 l 1,11,-1
 237 642 l 2,12,13
 217 638 217 638 217 616 c 2,14,-1
 217 51 l 1,15,-1
 306 52 l 2,16,17
 417 54 417 54 436 59 c 0,18,19
 452 64 452 64 492 213 c 1,20,-1
 547 208 l 1,21,22
 548 191 548 191 548 138.5 c 0,23,24
 548 86 548 86 537 0 c 1,25,-1
 50 0 l 1,0,-1
340 863 m 1,26,-1
 332 842 l 1,27,-1
 131 749 l 1,28,-1
 106 785 l 1,29,-1
 280 914 l 1,30,-1
 340 863 l 1,26,-1
EndSplineSet
Substitution2: "'c2sc' Capitals to Small Capitals in Latin lookup 4 subtable" Lacute.sc
Position2: "'cpsp' Capital Spacing in Latin lookup 0 subtable" dx=25 dy=0 dh=25 dv=0
EndChar

StartChar: dotlessi
Encoding: 305 305 154
Width: 310
Flags: HMW
HStem: 0 21G<47 47 47 266> 458 20G<178 190>
VStem: 111 90<96 383 383 397.5>
LayerCount: 2
Fore
SplineSet
47 0 m 1,0,-1
 41 39 l 1,1,2
 90 49 90 49 100.5 59.5 c 128,-1,3
 111 70 111 70 111 96 c 2,4,-1
 111 383 l 2,5,6
 111 404 111 404 95 413.5 c 128,-1,7
 79 423 79 423 35 432 c 1,8,-1
 41 464 l 1,9,10
 148 478 148 478 190 478 c 1,11,-1
 201 468 l 1,12,-1
 201 72 l 2,13,14
 201 60.3333333333 201 60.3333333333 206.5 56.6666666667 c 128,-1,15
 212 53 212 53 221 51 c 2,16,-1
 270 39 l 1,17,-1
 266 0 l 1,18,-1
 47 0 l 1,0,-1
EndSplineSet
EndChar

StartChar: tcaron
Encoding: 357 357 155
Width: 350
Flags: HMW
HStem: -9 72<211.5 233.5> 453 20G<175 314 314 314> 754 20G<317 317>
VStem: 85 90<142.5 167 167 411>
LayerCount: 2
Fore
SplineSet
85 137 m 2,0,-1
 85 412 l 1,1,-1
 20 412 l 1,2,-1
 16 455 l 1,3,-1
 65 467 l 2,4,5
 84 472 84 472 90.5 489.5 c 128,-1,6
 97 507 97 507 114 601 c 1,7,-1
 175 607 l 1,8,-1
 175 473 l 1,9,-1
 314 473 l 1,10,-1
 306 426 l 1,11,-1
 175 411 l 1,12,-1
 175 167 l 2,13,14
 175 63 175 63 239 63 c 0,15,16
 275 63 275 63 315 93 c 1,17,-1
 336 64 l 1,18,19
 282 -9 282 -9 204 -9 c 0,20,21
 148 -9 148 -9 116.5 30 c 128,-1,22
 85 69 85 69 85 137 c 2,0,-1
317 774 m 1,23,-1
 329 755 l 1,24,25
 320 659 320 659 264 577 c 1,26,-1
 222 591 l 1,27,28
 236 644 236 644 236 684.5 c 0,29,30
 236 725 236 725 232 752 c 1,31,-1
 317 774 l 1,23,-1
EndSplineSet
Substitution2: "'smcp' Lowercase to Small Capitals in Latin lookup 5 subtable" Tcaron.sc
EndChar

StartChar: Racute
Encoding: 340 340 156
Width: 632
Flags: HMW
HStem: 0 39<44 50 44 288> 304 51<217 272 272 282 217 272> 640 53<227.5 237 237 297> 894 20G<380 380>
VStem: 120 97<101 304 355 592 592 611.5> 432 107<479.5 569.5>
LayerCount: 2
Fore
SplineSet
50 0 m 1,0,-1
 44 39 l 1,1,2
 97 48 97 48 108.5 59 c 128,-1,3
 120 70 120 70 120 101 c 2,4,-1
 120 592 l 2,5,6
 120 623 120 623 108.5 634 c 128,-1,7
 97 645 97 645 44 654 c 1,8,-1
 50 693 l 1,9,-1
 328 693 l 2,10,11
 435 693 435 693 487 649 c 128,-1,12
 539 605 539 605 539 530 c 0,13,14
 539 455 539 455 498 399.5 c 128,-1,15
 457 344 457 344 383 319 c 1,16,-1
 383 314 l 1,17,18
 393 311 393 311 405 292 c 2,19,-1
 546 80 l 2,20,21
 561 58 561 58 575.5 50 c 128,-1,22
 590 42 590 42 628 39 c 1,23,-1
 622 0 l 1,24,-1
 480 0 l 1,25,-1
 282 304 l 1,26,-1
 217 304 l 1,27,-1
 217 77 l 2,28,29
 217 55 217 55 237 51 c 2,30,-1
 292 39 l 1,31,-1
 288 0 l 1,32,-1
 50 0 l 1,0,-1
217 355 m 1,33,-1
 272 355 l 2,34,35
 351 355 351 355 391.5 389.5 c 128,-1,36
 432 424 432 424 432 516 c 0,37,38
 432 640 432 640 297 640 c 2,39,-1
 237 640 l 2,40,41
 217 640 217 640 217 616 c 2,42,-1
 217 355 l 1,33,-1
440 863 m 1,43,-1
 432 842 l 1,44,-1
 231 749 l 1,45,-1
 206 785 l 1,46,-1
 380 914 l 1,47,-1
 440 863 l 1,43,-1
EndSplineSet
Substitution2: "'c2sc' Capitals to Small Capitals in Latin lookup 4 subtable" Racute.sc
Position2: "'cpsp' Capital Spacing in Latin lookup 0 subtable" dx=25 dy=0 dh=25 dv=0
EndChar

StartChar: Scircumflex
Encoding: 348 348 158
Width: 523
Flags: HMW
HStem: -9 56<236 284 236 314.5> 646 56<237.5 277> 894 20G<245 301 301 301>
VStem: 48 83<503.5 567 503.5 567> 386 92<139 201>
LayerCount: 2
Fore
SplineSet
445 675 m 1,0,1
 448 651 448 651 448 611.5 c 128,-1,2
 448 572 448 572 437 506 c 1,3,-1
 379 499 l 1,4,5
 368 612 368 612 352 625 c 0,6,7
 328 646 328 646 264.5 646 c 128,-1,8
 201 646 201 646 166 620.5 c 128,-1,9
 131 595 131 595 131 546 c 0,10,11
 131 518 131 518 142 496 c 128,-1,12
 153 474 153 474 182 455 c 128,-1,13
 211 436 211 436 227.5 427.5 c 0,14,15
 252.684210526 414.526315789 252.684210526 414.526315789 297.842105263 395.763157895 c 128,-1,16
 343 377 343 377 368 363 c 128,-1,17
 393 349 393 349 421.5 325.5 c 0,18,19
 478 278.912280702 478 278.912280702 478 189.956140351 c 128,-1,20
 478 101 478 101 414.5 46 c 128,-1,21
 351 -9 351 -9 241 -9 c 0,22,23
 182 -9 182 -9 123.5 5.5 c 128,-1,24
 65 20 65 20 38 34 c 1,25,26
 35 46 35 46 35 91 c 128,-1,27
 35 136 35 136 47 200 c 1,28,-1
 104 203 l 1,29,30
 112 131 112 131 117.5 110 c 128,-1,31
 123 89 123 89 132 82 c 0,32,33
 149 70 149 70 187.5 58.5 c 128,-1,34
 226 47 226 47 271.5 47 c 128,-1,35
 317 47 317 47 351.5 73.5 c 128,-1,36
 386 100 386 100 386 154 c 0,37,38
 386 230.21725928 386 230.21725928 299.767411727 277.592062817 c 0,39,40
 278.407852763 289.326662576 278.407852763 289.326662576 232.203926382 308.663331288 c 128,-1,41
 186 328 186 328 167 337.5 c 128,-1,42
 148 347 148 347 122.5 364.5 c 128,-1,43
 97 382 97 382 83 399.5 c 0,44,45
 48 443.25 48 443.25 48 505 c 0,46,47
 48 596 48 596 115.5 649 c 128,-1,48
 183 702 183 702 291 702 c 0,49,50
 373 702 373 702 445 675 c 1,0,1
412 749 m 1,51,-1
 273 840 l 1,52,-1
 134 749 l 1,53,-1
 109 775 l 1,54,-1
 245 914 l 1,55,-1
 301 914 l 1,56,-1
 437 775 l 1,57,-1
 412 749 l 1,51,-1
EndSplineSet
Substitution2: "'c2sc' Capitals to Small Capitals in Latin lookup 4 subtable" Scircumflex.sc
Position2: "'cpsp' Capital Spacing in Latin lookup 0 subtable" dx=25 dy=0 dh=25 dv=0
EndChar

StartChar: ycircumflex
Encoding: 375 375 160
Width: 500
Flags: HMW
HStem: -219 21G -140 20G<81.5 106> 453 20G<10 216 216 216 323 501 501 501> 735 20G<236 299 299 299>
LayerCount: 2
Fore
SplineSet
29 -117 m 1,0,1
 53 -120 53 -120 95.5 -120 c 128,-1,2
 138 -120 138 -120 163 -109.5 c 128,-1,3
 188 -99 188 -99 223 0 c 1,4,-1
 57 398 l 2,5,6
 49 417 49 417 42.5 422 c 128,-1,7
 36 427 36 427 4 434 c 1,8,-1
 10 473 l 1,9,-1
 216 473 l 1,10,-1
 220 434 l 1,11,-1
 159 419 l 2,12,13
 152 418 152 418 152 411 c 0,14,15
 152 410 152 410 156 398 c 2,16,-1
 258 131 l 2,17,18
 263 117 263 117 263 100 c 1,19,-1
 271 100 l 1,20,-1
 377 375 l 2,21,22
 383 391 383 391 383 401.5 c 128,-1,23
 383 412 383 412 368.5 419 c 128,-1,24
 354 426 354 426 317 434 c 1,25,-1
 323 473 l 1,26,-1
 501 473 l 1,27,-1
 505 434 l 1,28,29
 461 424 461 424 458 417 c 2,30,-1
 300 25 l 2,31,32
 280 -25 280 -25 268 -51.5 c 128,-1,33
 256 -78 256 -78 235 -111 c 128,-1,34
 214 -144 214 -144 191 -161.5 c 0,35,36
 133.925925926 -204.925925926 133.925925926 -204.925925926 53 -219 c 1,37,38
 27 -193 27 -193 27 -137 c 0,39,40
 27 -131 27 -131 29 -117 c 1,0,1
299 755 m 1,41,-1
 417 586 l 1,42,-1
 382 561 l 1,43,-1
 267 679 l 1,44,-1
 153 561 l 1,45,-1
 118 586 l 1,46,-1
 236 755 l 1,47,-1
 299 755 l 1,41,-1
EndSplineSet
Substitution2: "'smcp' Lowercase to Small Capitals in Latin lookup 5 subtable" Ycircumflex.sc
EndChar

StartChar: Ycircumflex
Encoding: 374 374 161
Width: 598
Flags: HMW
HStem: 0 21G<169 444 169 169> 673 20G<12 247 247 247 397 595 595 595> 894 20G<285 341 341 341>
VStem: 254 97<101 279 279 279>
LayerCount: 2
Fore
SplineSet
319 361 m 1,0,-1
 430 576 l 2,1,2
 451 616 451 616 451 625 c 0,3,4
 451 634 451 634 438.5 639.5 c 128,-1,5
 426 645 426 645 391 653 c 1,6,-1
 397 693 l 1,7,-1
 595 693 l 1,8,-1
 599 651 l 1,9,10
 555 642 555 642 538 631.5 c 128,-1,11
 521 621 521 621 509 597 c 2,12,-1
 351 287 l 1,13,-1
 351 77 l 2,14,15
 351 54 351 54 371 51 c 2,16,-1
 448 39 l 1,17,-1
 444 0 l 1,18,-1
 169 0 l 1,19,-1
 163 39 l 1,20,21
 226 49 226 49 240 59.5 c 128,-1,22
 254 70 254 70 254 101 c 2,23,-1
 254 279 l 1,24,-1
 74 610 l 2,25,26
 61 632 61 632 50.5 638.5 c 128,-1,27
 40 645 40 645 5 653 c 1,28,-1
 12 693 l 1,29,-1
 247 693 l 1,30,-1
 251 652 l 1,31,-1
 184 634 l 2,32,33
 177 633 177 633 177 628 c 0,34,35
 177 623 177 623 184 611 c 2,36,-1
 299 390 l 1,37,38
 309 373 309 373 309 361 c 1,39,-1
 319 361 l 1,0,-1
452 749 m 1,40,-1
 313 840 l 1,41,-1
 174 749 l 1,42,-1
 149 775 l 1,43,-1
 285 914 l 1,44,-1
 341 914 l 1,45,-1
 477 775 l 1,46,-1
 452 749 l 1,40,-1
EndSplineSet
Substitution2: "'c2sc' Capitals to Small Capitals in Latin lookup 4 subtable" Ycircumflex.sc
Position2: "'cpsp' Capital Spacing in Latin lookup 0 subtable" dx=25 dy=0 dh=25 dv=0
EndChar

StartChar: Ydieresis
Encoding: 376 376 162
Width: 598
Flags: HMW
HStem: 0 21G<169 444 169 169> 673 20G<12 247 247 247 397 595 595 595> 775 110<206 235.5 205 237 399 428.5>
VStem: 169 105<816 845> 254 97<101 279 279 279> 362 105<816 845>
LayerCount: 2
Fore
SplineSet
319 361 m 1,0,-1
 430 576 l 2,1,2
 451 616 451 616 451 625 c 0,3,4
 451 634 451 634 438.5 639.5 c 128,-1,5
 426 645 426 645 391 653 c 1,6,-1
 397 693 l 1,7,-1
 595 693 l 1,8,-1
 599 651 l 1,9,10
 555 642 555 642 538 631.5 c 128,-1,11
 521 621 521 621 509 597 c 2,12,-1
 351 287 l 1,13,-1
 351 77 l 2,14,15
 351 54 351 54 371 51 c 2,16,-1
 448 39 l 1,17,-1
 444 0 l 1,18,-1
 169 0 l 1,19,-1
 163 39 l 1,20,21
 226 49 226 49 240 59.5 c 128,-1,22
 254 70 254 70 254 101 c 2,23,-1
 254 279 l 1,24,-1
 74 610 l 2,25,26
 61 632 61 632 50.5 638.5 c 128,-1,27
 40 645 40 645 5 653 c 1,28,-1
 12 693 l 1,29,-1
 247 693 l 1,30,-1
 251 652 l 1,31,-1
 184 634 l 2,32,33
 177 633 177 633 177 628 c 0,34,35
 177 623 177 623 184 611 c 2,36,-1
 299 390 l 1,37,38
 309 373 309 373 309 361 c 1,39,-1
 319 361 l 1,0,-1
414 775 m 0,40,41
 362 775 362 775 362 831 c 0,42,43
 362 853 362 853 376.5 869 c 128,-1,44
 391 885 391 885 414 885 c 0,45,46
 467 885 467 885 467 831 c 0,47,48
 467 808 467 808 452 791.5 c 128,-1,49
 437 775 437 775 414 775 c 0,40,41
221 775 m 0,50,51
 169 775 169 775 169 831 c 0,52,53
 169 853 169 853 183.5 869 c 128,-1,54
 198 885 198 885 221 885 c 0,55,56
 274 885 274 885 274 831 c 0,57,58
 274 808 274 808 259 791.5 c 128,-1,59
 244 775 244 775 221 775 c 0,50,51
EndSplineSet
Substitution2: "'c2sc' Capitals to Small Capitals in Latin lookup 4 subtable" Ydieresis.sc
Position2: "'cpsp' Capital Spacing in Latin lookup 0 subtable" dx=25 dy=0 dh=25 dv=0
EndChar

StartChar: Zacute
Encoding: 377 377 164
Width: 607
Flags: HMW
HStem: 0 52<171 321 321 384.5> 642 51<319.5 340 340 436> 894 20G<395 395>
LayerCount: 2
Fore
SplineSet
120 510 m 1,0,-1
 57 517 l 1,1,2
 55 559 55 559 55 601.5 c 0,3,4
 55 644 55 644 64 693 c 1,5,-1
 573 693 l 1,6,-1
 573 667 l 1,7,-1
 191 81 l 2,8,9
 178 62 178 62 169 58 c 1,10,-1
 171 52 l 1,11,-1
 321 52 l 2,12,13
 427 52 427 52 451 59 c 0,14,15
 467 64 467 64 507 213 c 1,16,-1
 562 208 l 1,17,18
 563 191 563 191 563 138.5 c 0,19,20
 563 86 563 86 552 0 c 1,21,-1
 35 0 l 1,22,-1
 35 26 l 1,23,-1
 416 612 l 2,24,25
 429 631 429 631 438 635 c 1,26,-1
 436 642 l 1,27,-1
 340 642 l 2,28,29
 203 642 203 642 161 636 c 1,30,31
 146 635 146 635 120 510 c 1,0,-1
455 863 m 1,32,-1
 447 842 l 1,33,-1
 246 749 l 1,34,-1
 221 785 l 1,35,-1
 395 914 l 1,36,-1
 455 863 l 1,32,-1
EndSplineSet
Substitution2: "'c2sc' Capitals to Small Capitals in Latin lookup 4 subtable" Zacute.sc
Position2: "'cpsp' Capital Spacing in Latin lookup 0 subtable" dx=25 dy=0 dh=25 dv=0
EndChar

StartChar: Sacute
Encoding: 346 346 166
Width: 523
Flags: HMW
HStem: -9 56<236 284 236 314.5> 646 56<237.5 277> 894 20G<368 368>
VStem: 48 83<503.5 567 503.5 567> 386 92<139 201>
LayerCount: 2
Fore
SplineSet
445 675 m 1,0,1
 448 651 448 651 448 611.5 c 128,-1,2
 448 572 448 572 437 506 c 1,3,-1
 379 499 l 1,4,5
 368 612 368 612 352 625 c 0,6,7
 328 646 328 646 264.5 646 c 128,-1,8
 201 646 201 646 166 620.5 c 128,-1,9
 131 595 131 595 131 546 c 0,10,11
 131 518 131 518 142 496 c 128,-1,12
 153 474 153 474 182 455 c 128,-1,13
 211 436 211 436 227.5 427.5 c 0,14,15
 252.684210526 414.526315789 252.684210526 414.526315789 297.842105263 395.763157895 c 128,-1,16
 343 377 343 377 368 363 c 128,-1,17
 393 349 393 349 421.5 325.5 c 0,18,19
 478 278.912280702 478 278.912280702 478 189.956140351 c 128,-1,20
 478 101 478 101 414.5 46 c 128,-1,21
 351 -9 351 -9 241 -9 c 0,22,23
 182 -9 182 -9 123.5 5.5 c 128,-1,24
 65 20 65 20 38 34 c 1,25,26
 35 46 35 46 35 91 c 128,-1,27
 35 136 35 136 47 200 c 1,28,-1
 104 203 l 1,29,30
 112 131 112 131 117.5 110 c 128,-1,31
 123 89 123 89 132 82 c 0,32,33
 149 70 149 70 187.5 58.5 c 128,-1,34
 226 47 226 47 271.5 47 c 128,-1,35
 317 47 317 47 351.5 73.5 c 128,-1,36
 386 100 386 100 386 154 c 0,37,38
 386 230.21725928 386 230.21725928 299.767411727 277.592062817 c 0,39,40
 278.407852763 289.326662576 278.407852763 289.326662576 232.203926382 308.663331288 c 128,-1,41
 186 328 186 328 167 337.5 c 128,-1,42
 148 347 148 347 122.5 364.5 c 128,-1,43
 97 382 97 382 83 399.5 c 0,44,45
 48 443.25 48 443.25 48 505 c 0,46,47
 48 596 48 596 115.5 649 c 128,-1,48
 183 702 183 702 291 702 c 0,49,50
 373 702 373 702 445 675 c 1,0,1
428 863 m 1,51,-1
 420 842 l 1,52,-1
 219 749 l 1,53,-1
 194 785 l 1,54,-1
 368 914 l 1,55,-1
 428 863 l 1,51,-1
EndSplineSet
Substitution2: "'c2sc' Capitals to Small Capitals in Latin lookup 4 subtable" Sacute.sc
Position2: "'cpsp' Capital Spacing in Latin lookup 0 subtable" dx=25 dy=0 dh=25 dv=0
EndChar

StartChar: Nacute
Encoding: 323 323 168
Width: 775
Flags: HMW
HStem: 0 21G<50 50 50 297 595 595 598 598 598 657> 673 20G<50 186 127 241 186 186 241 241 500 735 735 735> 894 20G<480 480>
VStem: 120 67<101 592> 590 67<189 572 572 601>
LayerCount: 2
Fore
SplineSet
598 0 m 1,0,-1
 582 189 l 1,1,-1
 590 189 l 1,2,-1
 590 572 l 2,3,4
 590 617 590 617 573.5 632 c 128,-1,5
 557 647 557 647 494 654 c 1,6,-1
 500 693 l 1,7,-1
 735 693 l 1,8,-1
 739 654 l 1,9,-1
 677 642 l 2,10,11
 657 638 657 638 657 616 c 2,12,-1
 657 0 l 1,13,-1
 598 0 l 1,0,-1
595 0 m 1,14,-1
 127 693 l 1,15,-1
 241 693 l 1,16,-1
 647 95 l 1,17,-1
 645 1 l 1,18,-1
 595 0 l 1,14,-1
50 0 m 1,19,-1
 44 39 l 1,20,21
 97 48 97 48 108.5 59 c 128,-1,22
 120 70 120 70 120 101 c 2,23,-1
 120 592 l 2,24,25
 120 623 120 623 108.5 634 c 128,-1,26
 97 645 97 645 44 654 c 1,27,-1
 50 693 l 1,28,-1
 186 693 l 1,29,-1
 196 592 l 1,30,-1
 187 592 l 1,31,-1
 187 100 l 2,32,33
 187 75 187 75 196.5 63 c 128,-1,34
 206 51 206 51 231 48 c 2,35,-1
 301 39 l 1,36,-1
 297 0 l 1,37,-1
 50 0 l 1,19,-1
540 863 m 1,38,-1
 532 842 l 1,39,-1
 331 749 l 1,40,-1
 306 785 l 1,41,-1
 480 914 l 1,42,-1
 540 863 l 1,38,-1
EndSplineSet
Substitution2: "'c2sc' Capitals to Small Capitals in Latin lookup 4 subtable" Nacute.sc
Position2: "'cpsp' Capital Spacing in Latin lookup 0 subtable" dx=25 dy=0 dh=25 dv=0
EndChar

StartChar: Wcircumflex
Encoding: 372 372 169
Width: 930
Flags: HMW
HStem: -9 21G<272 343 272 272 591 663 591 591> 673 20G<3 226 226 226 356 567 567 567 728 933 933 933> 894 20G<437 493 493 493>
LayerCount: 2
Fore
SplineSet
591 -9 m 1,0,-1
 483 355 l 2,1,2
 478 370 478 370 478 381 c 1,3,-1
 470 381 l 1,4,5
 470 370 470 370 464 355 c 2,6,-1
 343 -9 l 1,7,-1
 272 -9 l 1,8,-1
 63 610 l 2,9,10
 56 631 56 631 45 637.5 c 128,-1,11
 34 644 34 644 -4 653 c 1,12,-1
 3 693 l 1,13,-1
 226 693 l 1,14,-1
 230 652 l 1,15,-1
 174 633 l 1,16,17
 167 632 167 632 167 627.5 c 128,-1,18
 167 623 167 623 171 611 c 2,19,-1
 310 162 l 2,20,21
 319 130 319 130 319 128 c 1,22,-1
 329 128 l 1,23,-1
 444 492 l 1,24,-1
 409 610 l 2,25,26
 406 622 406 622 402.5 628 c 128,-1,27
 399 634 399 634 389.5 639 c 0,28,29
 377.849056604 645.132075472 377.849056604 645.132075472 349 653 c 1,30,-1
 356 693 l 1,31,-1
 567 693 l 1,32,-1
 571 652 l 1,33,-1
 500 633 l 2,34,35
 493 632 493 632 493 627.5 c 128,-1,36
 493 623 493 623 497 611 c 2,37,-1
 629 162 l 2,38,39
 638 131 638 131 638 128 c 1,40,-1
 648 128 l 1,41,-1
 788 569 l 2,42,43
 799 606 799 606 799 618 c 0,44,45
 799 640 799 640 722 653 c 1,46,-1
 728 693 l 1,47,-1
 933 693 l 1,48,-1
 937 651 l 1,49,50
 896 642 896 642 884 632 c 128,-1,51
 872 622 872 622 863 595 c 2,52,-1
 663 -9 l 1,53,-1
 591 -9 l 1,0,-1
604 749 m 1,54,-1
 465 840 l 1,55,-1
 326 749 l 1,56,-1
 301 775 l 1,57,-1
 437 914 l 1,58,-1
 493 914 l 1,59,-1
 629 775 l 1,60,-1
 604 749 l 1,54,-1
EndSplineSet
Substitution2: "'c2sc' Capitals to Small Capitals in Latin lookup 4 subtable" Wcircumflex.sc
Position2: "'cpsp' Capital Spacing in Latin lookup 0 subtable" dx=25 dy=0 dh=25 dv=0
EndChar

StartChar: Utilde
Encoding: 360 360 172
Width: 736
Flags: HMW
HStem: -9 67<325 459 325 465> 673 20G<45 290 290 290 484 719 719 719> 778 78<457 489 457 494> 805 51 805 78<290.5 322> 871 20G<540 540>
VStem: 115 97<249 264 264 592 592 611.5> 574 67<249 257 257 573 573 601.5>
LayerCount: 2
Fore
SplineSet
574 573 m 2,0,1
 574 617 574 617 557.5 632 c 128,-1,2
 541 647 541 647 478 654 c 1,3,-1
 484 693 l 1,4,-1
 719 693 l 1,5,-1
 723 654 l 1,6,-1
 661 642 l 2,7,8
 643 638 643 638 641.5 627.5 c 0,9,10
 641 624 641 624 641 616 c 2,11,-1
 641 257 l 2,12,13
 641 134 641 134 574 62.5 c 128,-1,14
 507 -9 507 -9 373 -9 c 0,15,16
 115 -9 115 -9 115 249 c 2,17,-1
 115 592 l 2,18,19
 115 623 115 623 103.5 634 c 128,-1,20
 92 645 92 645 39 654 c 1,21,-1
 45 693 l 1,22,-1
 290 693 l 1,23,-1
 294 654 l 1,24,-1
 232 642 l 2,25,26
 212 638 212 638 212 616 c 2,27,-1
 212 264 l 2,28,29
 212 162 212 162 254 110 c 128,-1,30
 296 58 296 58 390.5 58 c 128,-1,31
 485 58 485 58 529.5 114 c 128,-1,32
 574 170 574 170 574 249 c 2,33,-1
 574 573 l 2,0,1
540 891 m 1,34,-1
 565 879 l 1,35,36
 544 833 544 833 522.5 805.5 c 128,-1,37
 501 778 501 778 478.5 778 c 128,-1,38
 456 778 456 778 389.5 791.5 c 128,-1,39
 323 805 323 805 299 805 c 0,40,41
 261 805 261 805 227 771 c 1,42,-1
 204 787 l 1,43,44
 236 840 236 840 259 861.5 c 128,-1,45
 282 883 282 883 305 883 c 128,-1,46
 328 883 328 883 392.5 869.5 c 128,-1,47
 457 856 457 856 482 856 c 128,-1,48
 507 856 507 856 540 891 c 1,34,-1
EndSplineSet
Substitution2: "'c2sc' Capitals to Small Capitals in Latin lookup 4 subtable" Utilde.sc
Position2: "'cpsp' Capital Spacing in Latin lookup 0 subtable" dx=25 dy=0 dh=25 dv=0
EndChar

StartChar: Eng
Encoding: 330 330 173
Width: 775
Flags: HMW
HStem: -219 79<508.5 522.5 508.5 540.5> 0 21G<50 297 50 50 595 595> 673 20G<50 186 127 241 186 186 241 241 500 735 735 735>
VStem: 120 67<101 592> 437 220<-192 103> 590 67<68 103 103 623 189 572 572 601 623 623>
LayerCount: 2
Fore
SplineSet
639 91 m 1,0,-1
 582 189 l 1,1,-1
 590 189 l 1,2,-1
 590 572 l 2,3,4
 590 617 590 617 573.5 632 c 128,-1,5
 557 647 557 647 494 654 c 1,6,-1
 500 693 l 1,7,-1
 735 693 l 1,8,-1
 739 654 l 1,9,-1
 677 642 l 2,10,11
 657 638 657 638 657 616 c 2,12,-1
 657 169 l 1,13,-1
 639 91 l 1,0,-1
595 0 m 1,14,-1
 127 693 l 1,15,-1
 241 693 l 1,16,-1
 647 95 l 1,17,-1
 645 1 l 1,18,-1
 595 0 l 1,14,-1
186 693 m 1,19,-1
 196 592 l 1,20,-1
 187 592 l 1,21,-1
 187 100 l 2,22,23
 187 75 187 75 196.5 63 c 128,-1,24
 206 51 206 51 231 48 c 2,25,-1
 301 39 l 1,26,-1
 297 0 l 1,27,-1
 50 0 l 1,28,-1
 44 39 l 1,29,30
 97 48 97 48 108.5 59 c 128,-1,31
 120 70 120 70 120 101 c 2,32,-1
 120 592 l 2,33,34
 120 623 120 623 108.5 634 c 128,-1,35
 97 645 97 645 44 654 c 1,36,-1
 50 693 l 1,37,-1
 186 693 l 1,19,-1
590 68 m 2,38,-1
 590 623 l 1,39,-1
 657 668 l 1,40,-1
 657 103 l 2,41,42
 657 -219 657 -219 492 -219 c 0,43,44
 466 -219 466 -219 440 -212 c 1,45,46
 437 -200 437 -200 437 -179 c 0,47,48
 437 -158 437 -158 454 -130 c 1,49,50
 494 -140 494 -140 514.5 -140 c 0,51,52
 535 -140 535 -140 545 -133 c 0,53,54
 566 -119 566 -119 578 -61.5 c 128,-1,55
 590 -4 590 -4 590 68 c 2,38,-1
EndSplineSet
Position2: "'cpsp' Capital Spacing in Latin lookup 0 subtable" dx=25 dy=0 dh=25 dv=0
EndChar

StartChar: eng
Encoding: 331 331 174
Width: 594
Flags: HMW
HStem: -219 79<332.5 346.5 332.5 372.5> 0 21G<47 261 47 47> 416 72<333.5 367.5> 466 20G<170 175>
VStem: 111 90<96 331> 261 243<-192 38 0 0> 414 90<68 312 312 337.5>
LayerCount: 2
Fore
SplineSet
414 68 m 2,0,-1
 414 312 l 2,1,2
 414 359 414 359 397 387.5 c 128,-1,3
 380 416 380 416 330.5 416 c 128,-1,4
 281 416 281 416 223 377 c 0,5,6
 214 371 214 371 210.5 367.5 c 0,7,8
 201 358 201 358 201 331 c 2,9,-1
 201 73 l 2,10,11
 201 62 201 62 204.5 58 c 128,-1,12
 208 54 208 54 221 51 c 2,13,-1
 265 39 l 1,14,-1
 261 0 l 1,15,-1
 47 0 l 1,16,-1
 41 39 l 1,17,18
 90 49 90 49 100.5 59.5 c 128,-1,19
 111 70 111 70 111 96 c 2,20,-1
 111 384 l 2,21,22
 111 410 111 410 98.5 420.5 c 128,-1,23
 86 431 86 431 35 441 c 1,24,-1
 41 473 l 1,25,-1
 170 486 l 2,26,27
 177 486 177 486 184.5 458 c 128,-1,28
 192 430 192 430 192 409 c 2,29,-1
 192 403 l 1,30,-1
 200 400 l 1,31,-1
 212 414 l 2,32,33
 275 488 275 488 366 488 c 0,34,35
 430 488 430 488 467 449.5 c 128,-1,36
 504 411 504 411 504 342 c 2,37,-1
 504 38 l 2,38,39
 504 -56 504 -56 448 -137.5 c 128,-1,40
 392 -219 392 -219 340 -219 c 0,41,42
 304 -219 304 -219 264 -212 c 1,43,44
 261 -200 261 -200 261 -179 c 128,-1,45
 261 -158 261 -158 278 -130 c 1,46,47
 318 -140 318 -140 338.5 -140 c 128,-1,48
 359 -140 359 -140 369 -133 c 0,49,50
 390 -119 390 -119 402 -61.5 c 128,-1,51
 414 -4 414 -4 414 68 c 2,0,-1
EndSplineSet
EndChar

StartChar: _fj
Encoding: 65546 -1 175
Width: 630
Flags: HMW
HStem: -219 79<368.5 382.5 368.5 408.5> 0 21G<51 288 51 51> 423 50<367 377.5> 458 20G<517.5 529> 719 53<290 347.5>
VStem: 115 90<96 405 405 405> 297 243<-192 38> 450 90<68 383 383 397.5>
LayerCount: 2
Fore
SplineSet
450 68 m 2,0,-1
 450 383 l 2,1,2
 450 405 450 405 433.5 414 c 128,-1,3
 417 423 417 423 374 423 c 128,-1,4
 331 423 331 423 205 411 c 1,5,-1
 205 72 l 2,6,7
 205 62 205 62 209 57.5 c 128,-1,8
 213 53 213 53 227 51 c 2,9,-1
 292 39 l 1,10,-1
 288 0 l 1,11,-1
 51 0 l 1,12,-1
 45 39 l 1,13,14
 94 49 94 49 104.5 59.5 c 128,-1,15
 115 70 115 70 115 96 c 2,16,-1
 115 405 l 1,17,-1
 50 405 l 1,18,-1
 46 448 l 1,19,-1
 95 460 l 2,20,21
 108 463 108 463 112 471 c 128,-1,22
 116 479 116 479 117 496 c 128,-1,23
 118 513 118 513 120.5 530 c 128,-1,24
 123 547 123 547 130.5 576.5 c 128,-1,25
 138 606 138 606 148.5 630.5 c 128,-1,26
 159 655 159 655 178 682 c 128,-1,27
 197 709 197 709 221.5 728 c 0,28,29
 278.236842105 772 278.236842105 772 363 772 c 0,30,31
 424 772 424 772 498 750 c 1,32,33
 498 682 498 682 481 629 c 1,34,-1
 427 623 l 1,35,36
 411.92 704.432 411.92 704.432 403 708 c 0,37,38
 381 719 381 719 337 719 c 0,39,40
 271 719 271 719 238 647 c 128,-1,41
 205 575 205 575 205 473 c 1,42,-1
 323 473 l 2,43,44
 388 473 388 473 458 475.5 c 128,-1,45
 528 478 528 478 529 478 c 2,46,-1
 540 468 l 1,47,-1
 540 38 l 2,48,49
 540 -56 540 -56 484 -137.5 c 128,-1,50
 428 -219 428 -219 376 -219 c 0,51,52
 340 -219 340 -219 300 -212 c 1,53,54
 297 -200 297 -200 297 -179 c 128,-1,55
 297 -158 297 -158 314 -130 c 1,56,57
 354 -140 354 -140 375.5 -140 c 128,-1,58
 397 -140 397 -140 405 -133 c 1,59,60
 426 -119 426 -119 438 -61.5 c 128,-1,61
 450 -4 450 -4 450 68 c 2,0,-1
EndSplineSet
Ligature2: "'liga' Standard Ligatures in Latin lookup 13 subtable" f j
EndChar

StartChar: question
Encoding: 63 63 176
Width: 424
Flags: HMW
HStem: -9 108<164 196.5 162 198> 649 53<179.5 221.5>
VStem: 106 83<278 311 255.5 347.5> 122 115<31.5 61> 313 87<487.5 587.5>
LayerCount: 2
Fore
SplineSet
199 204 m 1,0,-1
 152 190 l 1,1,2
 106 254 106 254 106 296 c 0,3,4
 106 345.803278689 106 345.803278689 179.5 394 c 0,5,6
 210 414 210 414 240 435 c 128,-1,7
 270 456 270 456 291.5 486 c 128,-1,8
 313 516 313 516 313 558.5 c 128,-1,9
 313 601 313 601 277.5 625 c 128,-1,10
 242 649 242 649 195 649 c 128,-1,11
 148 649 148 649 118 633 c 0,12,13
 110 629 110 629 106 614 c 128,-1,14
 102 599 102 599 97 544 c 1,15,-1
 43 550 l 1,16,17
 35 581 35 581 35 615.5 c 128,-1,18
 35 650 35 650 36 660 c 1,19,20
 65 677 65 677 115 689.5 c 128,-1,21
 165 702 165 702 212 702 c 0,22,23
 294 702 294 702 347 661.5 c 128,-1,24
 400 621 400 621 400 546 c 0,25,26
 400 507 400 507 384.5 474 c 128,-1,27
 369 441 369 441 345.5 420 c 128,-1,28
 322 399 322 399 294.5 378 c 128,-1,29
 267 357 267 357 243.5 341.5 c 0,30,31
 189 305.553191489 189 305.553191489 189 264 c 0,32,33
 189 244 189 244 199 204 c 1,0,-1
221.5 7 m 128,-1,35
 206 -9 206 -9 180.5 -9 c 128,-1,36
 155 -9 155 -9 138.5 5.5 c 128,-1,37
 122 20 122 20 122 45 c 128,-1,38
 122 70 122 70 137.5 84.5 c 128,-1,39
 153 99 153 99 181 99 c 0,40,41
 237 99 237 99 237 48 c 0,42,34
 237 23 237 23 221.5 7 c 128,-1,35
EndSplineSet
EndChar

StartChar: questiondown
Encoding: 191 191 177
Width: 424
Flags: HMW
HStem: -219 53<202.5 244.5> 384 108<227.5 260 226 262>
VStem: 24 87<-104.5 -4.5 -104.5 20> 187 115<422 451.5> 235 83<172 205 135.5 227.5>
LayerCount: 2
Fore
SplineSet
202.5 476 m 128,-1,1
 218 492 218 492 243.5 492 c 128,-1,2
 269 492 269 492 285.5 477.5 c 128,-1,3
 302 463 302 463 302 438 c 128,-1,4
 302 413 302 413 286.5 398.5 c 128,-1,5
 271 384 271 384 243 384 c 0,6,7
 187 384 187 384 187 435 c 0,8,0
 187 460 187 460 202.5 476 c 128,-1,1
225 279 m 1,9,-1
 272 293 l 1,10,11
 318 229 318 229 318 187 c 0,12,13
 318 137.196721311 318 137.196721311 244.5 89 c 0,14,15
 214 69 214 69 184 48 c 128,-1,16
 154 27 154 27 132.5 -3 c 128,-1,17
 111 -33 111 -33 111 -75.5 c 128,-1,18
 111 -118 111 -118 146.5 -142 c 128,-1,19
 182 -166 182 -166 229 -166 c 128,-1,20
 276 -166 276 -166 306 -150 c 0,21,22
 314 -146 314 -146 318 -131 c 128,-1,23
 322 -116 322 -116 327 -61 c 1,24,-1
 381 -67 l 1,25,26
 389 -98 389 -98 389 -132.5 c 128,-1,27
 389 -167 389 -167 388 -177 c 1,28,29
 359 -194 359 -194 309 -206.5 c 128,-1,30
 259 -219 259 -219 212 -219 c 0,31,32
 130 -219 130 -219 77 -178.5 c 128,-1,33
 24 -138 24 -138 24 -63 c 0,34,35
 24 -24 24 -24 39.5 9 c 128,-1,36
 55 42 55 42 78.5 63 c 128,-1,37
 102 84 102 84 129.5 105 c 128,-1,38
 157 126 157 126 180.5 141.5 c 0,39,40
 235 177.446808511 235 177.446808511 235 219 c 0,41,42
 235 239 235 239 225 279 c 1,9,-1
EndSplineSet
Position2: "'case' Case-Sensitive Forms in Latin lookup 1 per glyph data 3" dx=0 dy=190 dh=0 dv=0
EndChar

StartChar: exclam
Encoding: 33 33 178
Width: 226
Flags: HMW
HStem: -9 108<82 114 79.5 116> 683 20G<167 167>
VStem: 40 115<31 61>
LayerCount: 2
Fore
SplineSet
167 703 m 1,0,-1
 179 684 l 1,1,-1
 127 177 l 1,2,-1
 77 179 l 1,3,-1
 64 673 l 1,4,-1
 167 703 l 1,0,-1
139.5 7 m 128,-1,6
 124 -9 124 -9 98.5 -9 c 128,-1,7
 73 -9 73 -9 56.5 5 c 128,-1,8
 40 19 40 19 40 44 c 128,-1,9
 40 69 40 69 55.5 84 c 128,-1,10
 71 99 71 99 98 99 c 0,11,12
 155 99 155 99 155 46 c 0,13,5
 155 23 155 23 139.5 7 c 128,-1,6
EndSplineSet
EndChar

StartChar: exclamdown
Encoding: 161 161 179
Width: 226
Flags: HMW
HStem: -220 21G<59 59> 384 108<112 144 110 146.5>
VStem: 71 115<422 452>
LayerCount: 2
Fore
SplineSet
86.5 476 m 128,-1,1
 102 492 102 492 127.5 492 c 128,-1,2
 153 492 153 492 169.5 478 c 128,-1,3
 186 464 186 464 186 439 c 128,-1,4
 186 414 186 414 170.5 399 c 128,-1,5
 155 384 155 384 128 384 c 0,6,7
 71 384 71 384 71 437 c 0,8,0
 71 460 71 460 86.5 476 c 128,-1,1
59 -220 m 1,9,-1
 47 -201 l 1,10,-1
 99 306 l 1,11,-1
 149 304 l 1,12,-1
 162 -190 l 1,13,-1
 59 -220 l 1,9,-1
EndSplineSet
Position2: "'case' Case-Sensitive Forms in Latin lookup 1 per glyph data 3" dx=0 dy=190 dh=0 dv=0
EndChar

StartChar: asterisk
Encoding: 42 42 180
Width: 391
Flags: HMW
HStem: 380 21G 724 20G<222 222>
LayerCount: 2
Fore
SplineSet
222 744 m 1,0,-1
 231 732 l 1,1,-1
 215 618 l 2,2,3
 211 594 211 594 207 588 c 1,4,-1
 214 584 l 1,5,6
 220 596 220 596 234 607 c 2,7,-1
 319 670 l 1,8,-1
 366 630 l 1,9,-1
 361 617 l 1,10,-1
 255 573 l 2,11,12
 236 565 236 565 225 565 c 1,13,-1
 225 557 l 1,14,15
 243 557 243 557 254 552 c 2,16,-1
 351 510 l 1,17,-1
 340 449 l 1,18,-1
 326 447 l 1,19,-1
 235 517 l 1,20,21
 216 533 216 533 213 539 c 1,22,-1
 206 535 l 1,23,24
 215 517 215 517 216 506 c 2,25,-1
 229 401 l 1,26,-1
 170 380 l 1,27,-1
 161 391 l 1,28,-1
 177 505 l 2,29,30
 181 529 181 529 185 535 c 1,31,-1
 178 539 l 1,32,33
 172 526 172 526 157 516 c 1,34,-1
 73 453 l 1,35,-1
 25 493 l 1,36,-1
 30 506 l 1,37,-1
 137 549 l 2,38,39
 156 557 156 557 167 557 c 1,40,-1
 167 565 l 1,41,42
 154 565 154 565 137 571 c 1,43,-1
 40 612 l 1,44,-1
 51 674 l 1,45,-1
 65 676 l 1,46,-1
 156 605 l 2,47,48
 175 589 175 589 178 583 c 1,49,-1
 185 587 l 1,50,51
 177 603 177 603 176 617 c 2,52,-1
 163 722 l 1,53,-1
 222 744 l 1,0,-1
EndSplineSet
EndChar

StartChar: parenleft
Encoding: 40 40 181
Width: 291
Flags: HMW
HStem: -189 21G<245 245> 741 20G<245 245>
VStem: 42 82<212 377 212 400>
LayerCount: 2
Fore
SplineSet
245 -189 m 1,0,1
 167 -111 167 -111 104.5 19 c 128,-1,2
 42 149 42 149 42 292.5 c 0,3,4
 42 436 42 436 105 560.5 c 128,-1,5
 168 685 168 685 245 761 c 1,6,-1
 279 733 l 1,7,8
 211 654 211 654 167.5 534.5 c 128,-1,9
 124 415 124 415 124 293 c 0,10,11
 124 171 124 171 167 45.5 c 128,-1,12
 210 -80 210 -80 279 -161 c 1,13,-1
 245 -189 l 1,0,1
EndSplineSet
Position2: "'case' Case-Sensitive Forms in Latin lookup 1 per glyph data 0" dx=0 dy=50 dh=0 dv=0
EndChar

StartChar: parenright
Encoding: 41 41 182
Width: 291
Flags: HMW
HStem: -189 21G<46 46> 741 20G<46 46>
VStem: 167 82<212 377>
LayerCount: 2
Fore
SplineSet
46 -189 m 1,0,-1
 12 -161 l 1,1,2
 81 -80 81 -80 124 45.5 c 128,-1,3
 167 171 167 171 167 293 c 0,4,5
 167 415 167 415 123.5 534.5 c 128,-1,6
 80 654 80 654 12 733 c 1,7,-1
 46 761 l 1,8,9
 123 685 123 685 186 560.5 c 128,-1,10
 249 436 249 436 249 292.5 c 0,11,12
 249 149 249 149 186.5 19 c 128,-1,13
 124 -111 124 -111 46 -189 c 1,0,-1
EndSplineSet
Position2: "'case' Case-Sensitive Forms in Latin lookup 1 per glyph data 0" dx=0 dy=50 dh=0 dv=0
EndChar

StartChar: bracketleft
Encoding: 91 91 183
Width: 284
Flags: HMW
HStem: -164 53<140 231 140 231> 713 53<140 231 140 140>
VStem: 70 70<-111 713 -111 766 -111 766> 70 161<-164 -111 713 766>
LayerCount: 2
Fore
SplineSet
70 -164 m 1,0,-1
 70 766 l 1,1,-1
 231 766 l 1,2,-1
 231 713 l 1,3,-1
 140 713 l 1,4,-1
 140 -111 l 1,5,-1
 231 -111 l 1,6,-1
 231 -164 l 1,7,-1
 70 -164 l 1,0,-1
EndSplineSet
Position2: "'case' Case-Sensitive Forms in Latin lookup 1 per glyph data 0" dx=0 dy=50 dh=0 dv=0
EndChar

StartChar: bracketright
Encoding: 93 93 184
Width: 284
Flags: HMW
HStem: -164 53<53 144 53 214 53 144> 713 53<53 144 53 214>
VStem: 53 161<-164 -111 -111 -111 713 766 -164 766> 144 70<-111 713 713 713>
LayerCount: 2
Fore
SplineSet
214 766 m 1,0,-1
 214 -164 l 1,1,-1
 53 -164 l 1,2,-1
 53 -111 l 1,3,-1
 144 -111 l 1,4,-1
 144 713 l 1,5,-1
 53 713 l 1,6,-1
 53 766 l 1,7,-1
 214 766 l 1,0,-1
EndSplineSet
Position2: "'case' Case-Sensitive Forms in Latin lookup 1 per glyph data 0" dx=0 dy=50 dh=0 dv=0
EndChar

StartChar: guillemotleft
Encoding: 171 171 185
Width: 460
Flags: HMW
HStem: 62 21G<223 223 399 399> 410 20G<223 223 399 399>
LayerCount: 2
Fore
SplineSet
244 414 m 1,0,-1
 139 252 l 1,1,-1
 244 78 l 1,2,-1
 223 62 l 1,3,-1
 60 244 l 1,4,-1
 60 260 l 1,5,-1
 223 430 l 1,6,-1
 244 414 l 1,0,-1
420 414 m 1,7,-1
 315 252 l 1,8,-1
 420 78 l 1,9,-1
 399 62 l 1,10,-1
 236 244 l 1,11,-1
 236 260 l 1,12,-1
 399 430 l 1,13,-1
 420 414 l 1,7,-1
EndSplineSet
Position2: "'case' Case-Sensitive Forms in Latin lookup 1 per glyph data 1" dx=0 dy=80 dh=0 dv=0
EndChar

StartChar: guillemotright
Encoding: 187 187 186
Width: 460
Flags: HMW
HStem: 62 21G<61 61 237 237> 410 20G<61 61 237 237>
LayerCount: 2
Fore
SplineSet
145 252 m 1,0,-1
 40 414 l 1,1,-1
 61 430 l 1,2,-1
 224 260 l 1,3,-1
 224 244 l 1,4,-1
 61 62 l 1,5,-1
 40 78 l 1,6,-1
 145 252 l 1,0,-1
321 252 m 1,7,-1
 216 414 l 1,8,-1
 237 430 l 1,9,-1
 400 260 l 1,10,-1
 400 244 l 1,11,-1
 237 62 l 1,12,-1
 216 78 l 1,13,-1
 321 252 l 1,7,-1
EndSplineSet
Position2: "'case' Case-Sensitive Forms in Latin lookup 1 per glyph data 1" dx=0 dy=80 dh=0 dv=0
EndChar

StartChar: ff
Encoding: 64256 64256 187
Width: 686
Flags: HMW
HStem: 0 21G<51 288 51 51 387 606 387 387> 405 61 689 53<261.5 301> 719 53<596 634>
VStem: 115 90<96 404> 451 90<96 404>
LayerCount: 2
Fore
SplineSet
541 404 m 1,0,-1
 541 72 l 2,1,2
 541 60.5 541 60.5 546 56.75 c 128,-1,3
 551 53 551 53 561 51 c 2,4,-1
 610 39 l 1,5,-1
 606 0 l 1,6,-1
 387 0 l 1,7,-1
 381 39 l 1,8,9
 430 49 430 49 440.5 59.5 c 128,-1,10
 451 70 451 70 451 96 c 2,11,-1
 451 410 l 1,12,13
 269 410 269 410 205 404 c 1,14,-1
 205 72 l 2,15,16
 205 62 205 62 209 57.5 c 128,-1,17
 213 53 213 53 227 51 c 2,18,-1
 292 39 l 1,19,-1
 288 0 l 1,20,-1
 51 0 l 1,21,-1
 45 39 l 1,22,23
 94 49 94 49 104.5 59.5 c 128,-1,24
 115 70 115 70 115 96 c 2,25,-1
 115 405 l 1,26,-1
 50 405 l 1,27,-1
 46 448 l 1,28,-1
 95 460 l 2,29,30
 108 463 108 463 112 471 c 128,-1,31
 116 479 116 479 117.5 499 c 128,-1,32
 119 519 119 519 123 543 c 128,-1,33
 127 567 127 567 140.5 605.5 c 128,-1,34
 154 644 154 644 174 672 c 128,-1,35
 194 700 194 700 230 721 c 128,-1,36
 266 742 266 742 315.5 742 c 128,-1,37
 365 742 365 742 423 720 c 1,38,39
 423 658 423 658 409 609 c 1,40,-1
 360 603 l 1,41,42
 345 673 345 673 336 678 c 1,43,44
 325 689 325 689 295 689 c 0,45,46
 248 689 248 689 226.5 626.5 c 128,-1,47
 205 564 205 564 205 466 c 1,48,-1
 421 466 l 2,49,50
 440 466 440 466 446 475 c 128,-1,51
 452 484 452 484 453 501 c 128,-1,52
 454 518 454 518 455.5 531.5 c 128,-1,53
 457 545 457 545 462 575 c 128,-1,54
 467 605 467 605 474.5 628 c 128,-1,55
 482 651 482 651 497 679.5 c 128,-1,56
 512 708 512 708 531 727 c 0,57,58
 576 772 576 772 637.5 772 c 128,-1,59
 699 772 699 772 759 749 c 1,60,61
 759 673 759 673 746 628 c 1,62,-1
 693 623 l 1,63,64
 677 704 677 704 669 709 c 0,65,66
 653 719 653 719 627 719 c 0,67,68
 541 719 541 719 541 466 c 1,69,-1
 659 466 l 1,70,-1
 651 419 l 1,71,-1
 541 404 l 1,0,-1
EndSplineSet
Ligature2: "'liga' Standard Ligatures in Latin lookup 13 subtable" f f
EndChar

StartChar: guilsinglleft
Encoding: 8249 8249 188
Width: 284
Flags: HMW
HStem: 62 21G<223 223> 410 20G<223 223>
LayerCount: 2
Fore
SplineSet
244 414 m 1,0,-1
 139 252 l 1,1,-1
 244 78 l 1,2,-1
 223 62 l 1,3,-1
 60 244 l 1,4,-1
 60 260 l 1,5,-1
 223 430 l 1,6,-1
 244 414 l 1,0,-1
EndSplineSet
Position2: "'case' Case-Sensitive Forms in Latin lookup 1 per glyph data 1" dx=0 dy=80 dh=0 dv=0
EndChar

StartChar: guilsinglright
Encoding: 8250 8250 189
Width: 284
Flags: HMW
HStem: 62 21G<61 61> 410 20G<61 61>
LayerCount: 2
Fore
SplineSet
145 252 m 1,0,-1
 40 414 l 1,1,-1
 61 430 l 1,2,-1
 224 260 l 1,3,-1
 224 244 l 1,4,-1
 61 62 l 1,5,-1
 40 78 l 1,6,-1
 145 252 l 1,0,-1
EndSplineSet
Position2: "'case' Case-Sensitive Forms in Latin lookup 1 per glyph data 1" dx=0 dy=80 dh=0 dv=0
EndChar

StartChar: quotedblbase
Encoding: 8222 8222 190
Width: 425
Flags: HMW
HStem: -139 21G<82 82 273 273> 93 20G<108.5 137.5 299.5 328.5>
VStem: 70 109<49.5 62.5 10 80.5> 102 77<10 10.5> 261 109<49.5 62.5 10 80.5> 293 77<10 10.5>
LayerCount: 2
Fore
SplineSet
273 -139 m 1,0,-1
 246 -113 l 1,1,2
 293 -57 293 -57 293 -7 c 0,3,4
 293 11 293 11 277 30.5 c 128,-1,5
 261 50 261 50 261 68.5 c 0,6,7
 261 87 261 87 276.5 100 c 128,-1,8
 292 113 292 113 315 113 c 0,9,10
 338 113 338 113 354 93.5 c 128,-1,11
 370 74 370 74 370 33.5 c 0,12,13
 370 -7 370 -7 345.5 -54.5 c 128,-1,14
 321 -102 321 -102 273 -139 c 1,0,-1
82 -139 m 1,15,-1
 55 -113 l 1,16,17
 102 -57 102 -57 102 -7 c 0,18,19
 102 11 102 11 86 30.5 c 128,-1,20
 70 50 70 50 70 68.5 c 0,21,22
 70 87 70 87 85.5 100 c 128,-1,23
 101 113 101 113 124 113 c 0,24,25
 147 113 147 113 163 93.5 c 128,-1,26
 179 74 179 74 179 33.5 c 0,27,28
 179 -7 179 -7 154.5 -54.5 c 128,-1,29
 130 -102 130 -102 82 -139 c 1,15,-1
EndSplineSet
EndChar

StartChar: quotesinglbase
Encoding: 8218 8218 191
Width: 234
Flags: HMW
HStem: -139 21G<82 82> 93 20G<108.5 137.5>
VStem: 70 109<49.5 62.5 10 80.5> 102 77<10 10.5>
LayerCount: 2
Fore
SplineSet
82 -139 m 1,0,-1
 55 -113 l 1,1,2
 102 -57 102 -57 102 -7 c 0,3,4
 102 11 102 11 86 30.5 c 128,-1,5
 70 50 70 50 70 68.5 c 0,6,7
 70 87 70 87 85.5 100 c 128,-1,8
 101 113 101 113 124 113 c 0,9,10
 147 113 147 113 163 93.5 c 128,-1,11
 179 74 179 74 179 33.5 c 0,12,13
 179 -7 179 -7 154.5 -54.5 c 128,-1,14
 130 -102 130 -102 82 -139 c 1,0,-1
EndSplineSet
EndChar

StartChar: backslash
Encoding: 92 92 192
Width: 391
Flags: HMW
HStem: -60 21G<306 376 306 306> 752 20G<15 84 84 84>
LayerCount: 2
Fore
SplineSet
15 772 m 1,0,-1
 84 772 l 1,1,-1
 376 -60 l 1,2,-1
 306 -60 l 1,3,-1
 15 772 l 1,0,-1
EndSplineSet
EndChar

StartChar: oslash
Encoding: 248 248 193
Width: 520
Flags: HMW
HStem: -66 21G<126 126> -9 53<254 282.5 254 329> 435 53<237.5 262.5> 552 20G
VStem: 32 97<222 281.5 222 308.5> 391 97<197.5 261>
LayerCount: 2
Fore
SplineSet
254 -9 m 0,0,1
 202 -9 202 -9 163 6 c 1,2,-1
 126 -66 l 1,3,-1
 72 -46 l 1,4,-1
 113 34 l 1,5,6
 32 97 32 97 32 232 c 0,7,8
 32 349 32 349 93.5 418.5 c 128,-1,9
 155 488 155 488 266 488 c 0,10,11
 303 488 303 488 340 478 c 1,12,-1
 389 572 l 1,13,-1
 444 552 l 1,14,-1
 393 454 l 1,15,16
 488 393 488 393 488 246 c 0,17,18
 488 129 488 129 426.5 60 c 128,-1,19
 365 -9 365 -9 254 -9 c 0,0,1
251 435 m 0,20,21
 195 435 195 435 169 405 c 0,22,23
 151 385 151 385 140 341.5 c 128,-1,24
 129 298 129 298 129 233 c 0,25,26
 129 168 129 168 155 117 c 1,27,-1
 311 420 l 1,28,29
 283 435 283 435 251 435 c 0,20,21
391 232 m 0,30,31
 391 322 391 322 355 378 c 1,32,-1
 195 68 l 1,33,34
 225 44 225 44 275 44 c 0,35,36
 325 44 325 44 351 74 c 0,37,38
 369 94 369 94 380 137.5 c 128,-1,39
 391 181 391 181 391 232 c 0,30,31
EndSplineSet
Substitution2: "'smcp' Lowercase to Small Capitals in Latin lookup 5 subtable" Oslash.sc
EndChar

StartChar: Oslash
Encoding: 216 216 194
Width: 709
Flags: HMW
HStem: -80 21G<174 174> -9 53<342.5 439 342.5 452> 649 53<272 370.5> 752 20G
VStem: 35 111<306.5 429.5 306.5 446.5> 565 111<262.5 382.5>
LayerCount: 2
Fore
SplineSet
348 -9 m 0,0,1
 282 -9 282 -9 222 12 c 1,2,-1
 174 -80 l 1,3,-1
 120 -60 l 1,4,-1
 170 38 l 1,5,6
 35 127 35 127 35 338 c 0,7,8
 35 503 35 503 122 602.5 c 128,-1,9
 209 702 209 702 363 702 c 0,10,11
 438 702 438 702 498 676 c 1,12,-1
 548 772 l 1,13,-1
 603 752 l 1,14,-1
 549 648 l 1,15,16
 676 558 676 558 676 354 c 0,17,18
 676 189 676 189 589 90 c 128,-1,19
 502 -9 502 -9 348 -9 c 0,0,1
146 355 m 0,20,21
 146 203 146 203 211 118 c 1,22,-1
 464 610 l 1,23,24
 416 649 416 649 354.5 649 c 128,-1,25
 293 649 293 649 252.5 624.5 c 128,-1,26
 212 600 212 600 189.5 557.5 c 0,27,28
 146 475.333333333 146 475.333333333 146 355 c 0,20,21
255 76 m 1,29,30
 303 44 303 44 360.5 44 c 128,-1,31
 418 44 418 44 458.5 68.5 c 128,-1,32
 499 93 499 93 521.5 135.5 c 0,33,34
 565 217.666666667 565 217.666666667 565 348.333333333 c 128,-1,35
 565 479 565 479 506 565 c 1,36,-1
 255 76 l 1,29,30
EndSplineSet
Substitution2: "'c2sc' Capitals to Small Capitals in Latin lookup 4 subtable" Oslash.sc
Position2: "'cpsp' Capital Spacing in Latin lookup 0 subtable" dx=25 dy=0 dh=25 dv=0
EndChar

StartChar: _TT
Encoding: 65547 -1 195
Width: 1091
Flags: HMW
HStem: 0 21G<155 430 155 155 669 944 669 669> 515 178 641 52<240 240 337 754 337 337 851 851>
VStem: 240 97<101 641> 754 97<101 641>
LayerCount: 2
Fore
SplineSet
1075 693 m 1,0,1
 1084 619 1084 619 1084 575.5 c 128,-1,2
 1084 532 1084 532 1083 517 c 1,3,-1
 1032 513 l 1,4,5
 1015.2195122 609.953929539 1015.2195122 609.953929539 1002.5 625.5 c 0,6,7
 998 631 998 631 989 635 c 128,-1,8
 980 639 980 639 851 641 c 1,9,-1
 851 77 l 2,10,11
 851 54 851 54 871 51 c 2,12,-1
 948 39 l 1,13,-1
 944 0 l 1,14,-1
 669 0 l 1,15,-1
 663 39 l 1,16,17
 726 49 726 49 740 59.5 c 128,-1,18
 754 70 754 70 754 101 c 2,19,-1
 754 641 l 1,20,-1
 337 641 l 1,21,-1
 337 77 l 2,22,23
 337 54 337 54 357 51 c 2,24,-1
 434 39 l 1,25,-1
 430 0 l 1,26,-1
 155 0 l 1,27,-1
 149 39 l 1,28,29
 212 49 212 49 226 59.5 c 128,-1,30
 240 70 240 70 240 101 c 2,31,-1
 240 641 l 1,32,33
 111 639 111 639 102 635 c 128,-1,34
 93 631 93 631 88.5 625.5 c 0,35,36
 75.7804878049 609.953929539 75.7804878049 609.953929539 59 513 c 1,37,-1
 8 517 l 1,38,39
 7 532 7 532 7 575.5 c 128,-1,40
 7 619 7 619 16 693 c 1,41,-1
 1075 693 l 1,0,1
EndSplineSet
Ligature2: "'liga' Standard Ligatures in Latin lookup 13 subtable" T T
Position2: "'cpsp' Capital Spacing in Latin lookup 0 subtable" dx=25 dy=0 dh=25 dv=0
EndChar

StartChar: periodcentered
Encoding: 183 183 196
Width: 240
Flags: HMW
HStem: 193 130<102 136.5 99.5 139>
VStem: 55 130<241.5 275.5>
LayerCount: 2
Fore
SplineSet
166.5 212.5 m 128,-1,1
 148 193 148 193 119.5 193 c 128,-1,2
 91 193 91 193 73 209.5 c 128,-1,3
 55 226 55 226 55 255.5 c 128,-1,4
 55 285 55 285 73 304 c 128,-1,5
 91 323 91 323 119.5 323 c 128,-1,6
 148 323 148 323 166.5 307.5 c 128,-1,7
 185 292 185 292 185 262 c 128,-1,0
 185 232 185 232 166.5 212.5 c 128,-1,1
EndSplineSet
Position2: "'case' Case-Sensitive Forms in Latin lookup 1 per glyph data 1" dx=0 dy=80 dh=0 dv=0
EndChar

StartChar: minus
Encoding: 8722 8722 197
Width: 466
Flags: HMW
HStem: 244 53<45 421 45 421>
LayerCount: 2
Fore
SplineSet
45 244 m 1,0,-1
 45 297 l 1,1,-1
 421 297 l 1,2,-1
 421 244 l 1,3,-1
 45 244 l 1,0,-1
EndSplineSet
EndChar

StartChar: caron
Encoding: 711 711 198
Width: 299
Flags: HMW
HStem: 566 21G<118 118 118 181> 740 20G<35 35 264 264>
LayerCount: 2
Fore
SplineSet
118 566 m 1,0,-1
 0 735 l 1,1,-1
 35 760 l 1,2,-1
 150 642 l 1,3,-1
 264 760 l 1,4,-1
 299 735 l 1,5,-1
 181 566 l 1,6,-1
 118 566 l 1,0,-1
EndSplineSet
EndChar

StartChar: caron.cap
Encoding: 65548 -1 199
Width: 328
Flags: HMW
HStem: 752 21G<136 192 136 136> 897 20G<25 25 303 303>
LayerCount: 2
Fore
SplineSet
25 917 m 1,0,-1
 164 826 l 1,1,-1
 303 917 l 1,2,-1
 328 891 l 1,3,-1
 192 752 l 1,4,-1
 136 752 l 1,5,-1
 0 891 l 1,6,-1
 25 917 l 1,0,-1
EndSplineSet
EndChar

StartChar: Scaron
Encoding: 352 352 201
Width: 523
Flags: HMW
HStem: -9 56<236 284 236 314.5> 646 56<237.5 277> 732 20G<253 309 253 253> 897 20G<142 142 420 420>
VStem: 48 83<503.5 567 503.5 567> 386 92<139 201>
LayerCount: 2
Fore
SplineSet
445 675 m 1,0,1
 448 651 448 651 448 611.5 c 128,-1,2
 448 572 448 572 437 506 c 1,3,-1
 379 499 l 1,4,5
 368 612 368 612 352 625 c 0,6,7
 328 646 328 646 264.5 646 c 128,-1,8
 201 646 201 646 166 620.5 c 128,-1,9
 131 595 131 595 131 546 c 0,10,11
 131 518 131 518 142 496 c 128,-1,12
 153 474 153 474 182 455 c 128,-1,13
 211 436 211 436 227.5 427.5 c 0,14,15
 252.684210526 414.526315789 252.684210526 414.526315789 297.842105263 395.763157895 c 128,-1,16
 343 377 343 377 368 363 c 128,-1,17
 393 349 393 349 421.5 325.5 c 0,18,19
 478 278.912280702 478 278.912280702 478 189.956140351 c 128,-1,20
 478 101 478 101 414.5 46 c 128,-1,21
 351 -9 351 -9 241 -9 c 0,22,23
 182 -9 182 -9 123.5 5.5 c 128,-1,24
 65 20 65 20 38 34 c 1,25,26
 35 46 35 46 35 91 c 128,-1,27
 35 136 35 136 47 200 c 1,28,-1
 104 203 l 1,29,30
 112 131 112 131 117.5 110 c 128,-1,31
 123 89 123 89 132 82 c 0,32,33
 149 70 149 70 187.5 58.5 c 128,-1,34
 226 47 226 47 271.5 47 c 128,-1,35
 317 47 317 47 351.5 73.5 c 128,-1,36
 386 100 386 100 386 154 c 0,37,38
 386 230.21725928 386 230.21725928 299.767411727 277.592062817 c 0,39,40
 278.407852763 289.326662576 278.407852763 289.326662576 232.203926382 308.663331288 c 128,-1,41
 186 328 186 328 167 337.5 c 128,-1,42
 148 347 148 347 122.5 364.5 c 128,-1,43
 97 382 97 382 83 399.5 c 0,44,45
 48 443.25 48 443.25 48 505 c 0,46,47
 48 596 48 596 115.5 649 c 128,-1,48
 183 702 183 702 291 702 c 0,49,50
 373 702 373 702 445 675 c 1,0,1
142 917 m 1,51,-1
 281 826 l 1,52,-1
 420 917 l 1,53,-1
 445 891 l 1,54,-1
 309 752 l 1,55,-1
 253 752 l 1,56,-1
 117 891 l 1,57,-1
 142 917 l 1,51,-1
EndSplineSet
Substitution2: "'c2sc' Capitals to Small Capitals in Latin lookup 4 subtable" Scaron.sc
Position2: "'cpsp' Capital Spacing in Latin lookup 0 subtable" dx=25 dy=0 dh=25 dv=0
EndChar

StartChar: Rcaron
Encoding: 344 344 203
Width: 632
Flags: HMW
HStem: 0 39<44 50 44 288> 304 51<217 272 272 282 217 272> 640 53<227.5 237 237 297> 732 20G<263 319 263 263> 897 20G<152 152 430 430>
VStem: 120 97<101 304 355 592 592 611.5> 432 107<479.5 569.5>
LayerCount: 2
Fore
SplineSet
50 0 m 1,0,-1
 44 39 l 1,1,2
 97 48 97 48 108.5 59 c 128,-1,3
 120 70 120 70 120 101 c 2,4,-1
 120 592 l 2,5,6
 120 623 120 623 108.5 634 c 128,-1,7
 97 645 97 645 44 654 c 1,8,-1
 50 693 l 1,9,-1
 328 693 l 2,10,11
 435 693 435 693 487 649 c 128,-1,12
 539 605 539 605 539 530 c 0,13,14
 539 455 539 455 498 399.5 c 128,-1,15
 457 344 457 344 383 319 c 1,16,-1
 383 314 l 1,17,18
 393 311 393 311 405 292 c 2,19,-1
 546 80 l 2,20,21
 561 58 561 58 575.5 50 c 128,-1,22
 590 42 590 42 628 39 c 1,23,-1
 622 0 l 1,24,-1
 480 0 l 1,25,-1
 282 304 l 1,26,-1
 217 304 l 1,27,-1
 217 77 l 2,28,29
 217 55 217 55 237 51 c 2,30,-1
 292 39 l 1,31,-1
 288 0 l 1,32,-1
 50 0 l 1,0,-1
217 355 m 1,33,-1
 272 355 l 2,34,35
 351 355 351 355 391.5 389.5 c 128,-1,36
 432 424 432 424 432 516 c 0,37,38
 432 640 432 640 297 640 c 2,39,-1
 237 640 l 2,40,41
 217 640 217 640 217 616 c 2,42,-1
 217 355 l 1,33,-1
152 917 m 1,43,-1
 291 826 l 1,44,-1
 430 917 l 1,45,-1
 455 891 l 1,46,-1
 319 752 l 1,47,-1
 263 752 l 1,48,-1
 127 891 l 1,49,-1
 152 917 l 1,43,-1
EndSplineSet
Substitution2: "'c2sc' Capitals to Small Capitals in Latin lookup 4 subtable" Rcaron.sc
Position2: "'cpsp' Capital Spacing in Latin lookup 0 subtable" dx=25 dy=0 dh=25 dv=0
EndChar

StartChar: Ncaron
Encoding: 327 327 205
Width: 775
Flags: HMW
HStem: 0 21G<50 50 50 297 595 595 598 598 598 657> 673 20G<50 186 127 241 186 186 241 241 500 735 735 735> 732 20G<346 402 346 346> 897 20G<235 235 513 513>
VStem: 120 67<101 592> 590 67<189 572 572 601>
LayerCount: 2
Fore
SplineSet
598 0 m 1,0,-1
 582 189 l 1,1,-1
 590 189 l 1,2,-1
 590 572 l 2,3,4
 590 617 590 617 573.5 632 c 128,-1,5
 557 647 557 647 494 654 c 1,6,-1
 500 693 l 1,7,-1
 735 693 l 1,8,-1
 739 654 l 1,9,-1
 677 642 l 2,10,11
 657 638 657 638 657 616 c 2,12,-1
 657 0 l 1,13,-1
 598 0 l 1,0,-1
595 0 m 1,14,-1
 127 693 l 1,15,-1
 241 693 l 1,16,-1
 647 95 l 1,17,-1
 645 1 l 1,18,-1
 595 0 l 1,14,-1
50 0 m 1,19,-1
 44 39 l 1,20,21
 97 48 97 48 108.5 59 c 128,-1,22
 120 70 120 70 120 101 c 2,23,-1
 120 592 l 2,24,25
 120 623 120 623 108.5 634 c 128,-1,26
 97 645 97 645 44 654 c 1,27,-1
 50 693 l 1,28,-1
 186 693 l 1,29,-1
 196 592 l 1,30,-1
 187 592 l 1,31,-1
 187 100 l 2,32,33
 187 75 187 75 196.5 63 c 128,-1,34
 206 51 206 51 231 48 c 2,35,-1
 301 39 l 1,36,-1
 297 0 l 1,37,-1
 50 0 l 1,19,-1
235 917 m 1,38,-1
 374 826 l 1,39,-1
 513 917 l 1,40,-1
 538 891 l 1,41,-1
 402 752 l 1,42,-1
 346 752 l 1,43,-1
 210 891 l 1,44,-1
 235 917 l 1,38,-1
EndSplineSet
Substitution2: "'c2sc' Capitals to Small Capitals in Latin lookup 4 subtable" Ncaron.sc
Position2: "'cpsp' Capital Spacing in Latin lookup 0 subtable" dx=25 dy=0 dh=25 dv=0
EndChar

